<mxfile host="app.diagrams.net" modified="2023-10-10T11:01:29.858Z" agent="Mozilla/5.0 (Windows NT 10.0; Win64; x64) AppleWebKit/537.36 (KHTML, like Gecko) Chrome/116.0.5845.967 YaBrowser/23.9.1.967 Yowser/2.5 Safari/537.36" etag="p46_OLGGZbm9Xz33ky5g" version="22.0.4" type="device" pages="2">
  <diagram name="Страница — 1" id="DA21ceIJnwnHQEVpSjvg">
    <mxGraphModel dx="2100" dy="1102" grid="1" gridSize="10" guides="1" tooltips="1" connect="1" arrows="1" fold="1" page="1" pageScale="1" pageWidth="1169" pageHeight="1654" math="0" shadow="0">
      <root>
        <mxCell id="0" />
        <mxCell id="1" parent="0" />
        <mxCell id="FyLu69PJ2PbQw6B5v2kj-18" value="" style="edgeStyle=orthogonalEdgeStyle;rounded=0;orthogonalLoop=1;jettySize=auto;html=1;" parent="1" source="FyLu69PJ2PbQw6B5v2kj-2" target="FyLu69PJ2PbQw6B5v2kj-3" edge="1">
          <mxGeometry relative="1" as="geometry" />
        </mxCell>
        <mxCell id="FyLu69PJ2PbQw6B5v2kj-2" value="&lt;font style=&quot;font-size: 14px;&quot;&gt;поступил заказ от клиента на вязаного осьминога&lt;/font&gt;" style="shape=hexagon;perimeter=hexagonPerimeter2;whiteSpace=wrap;html=1;fixedSize=1;fillColor=#f8cecc;strokeColor=#b85450;" parent="1" vertex="1">
          <mxGeometry x="400" y="30" width="160" height="80" as="geometry" />
        </mxCell>
        <mxCell id="FyLu69PJ2PbQw6B5v2kj-19" value="" style="edgeStyle=orthogonalEdgeStyle;rounded=0;orthogonalLoop=1;jettySize=auto;html=1;" parent="1" source="FyLu69PJ2PbQw6B5v2kj-3" target="FyLu69PJ2PbQw6B5v2kj-6" edge="1">
          <mxGeometry relative="1" as="geometry" />
        </mxCell>
        <mxCell id="9SO_yJvXqfipgZOrS4GC-2" value="" style="rounded=0;orthogonalLoop=1;jettySize=auto;html=1;endArrow=none;endFill=0;" parent="1" source="FyLu69PJ2PbQw6B5v2kj-3" target="9SO_yJvXqfipgZOrS4GC-1" edge="1">
          <mxGeometry relative="1" as="geometry" />
        </mxCell>
        <mxCell id="FyLu69PJ2PbQw6B5v2kj-3" value="проверка наличия готовых осьминогов" style="rounded=0;whiteSpace=wrap;html=1;fillColor=#d5e8d4;strokeColor=#82b366;" parent="1" vertex="1">
          <mxGeometry x="420" y="150" width="120" height="40" as="geometry" />
        </mxCell>
        <mxCell id="FyLu69PJ2PbQw6B5v2kj-20" value="" style="edgeStyle=orthogonalEdgeStyle;rounded=0;orthogonalLoop=1;jettySize=auto;html=1;" parent="1" source="FyLu69PJ2PbQw6B5v2kj-6" target="FyLu69PJ2PbQw6B5v2kj-7" edge="1">
          <mxGeometry relative="1" as="geometry" />
        </mxCell>
        <mxCell id="FyLu69PJ2PbQw6B5v2kj-21" value="" style="edgeStyle=orthogonalEdgeStyle;rounded=0;orthogonalLoop=1;jettySize=auto;html=1;" parent="1" source="FyLu69PJ2PbQw6B5v2kj-6" target="FyLu69PJ2PbQw6B5v2kj-9" edge="1">
          <mxGeometry relative="1" as="geometry" />
        </mxCell>
        <mxCell id="FyLu69PJ2PbQw6B5v2kj-6" value="&lt;font style=&quot;font-size: 11px;&quot;&gt;XOR&lt;/font&gt;" style="ellipse;whiteSpace=wrap;html=1;aspect=fixed;" parent="1" vertex="1">
          <mxGeometry x="460" y="230" width="40" height="40" as="geometry" />
        </mxCell>
        <mxCell id="FyLu69PJ2PbQw6B5v2kj-22" value="" style="edgeStyle=orthogonalEdgeStyle;rounded=0;orthogonalLoop=1;jettySize=auto;html=1;" parent="1" source="FyLu69PJ2PbQw6B5v2kj-7" target="FyLu69PJ2PbQw6B5v2kj-10" edge="1">
          <mxGeometry relative="1" as="geometry" />
        </mxCell>
        <mxCell id="FyLu69PJ2PbQw6B5v2kj-7" value="осьминог есть в наличии" style="shape=hexagon;perimeter=hexagonPerimeter2;whiteSpace=wrap;html=1;fixedSize=1;fillColor=#f8cecc;strokeColor=#b85450;" parent="1" vertex="1">
          <mxGeometry x="180" y="210" width="120" height="80" as="geometry" />
        </mxCell>
        <mxCell id="9SO_yJvXqfipgZOrS4GC-37" value="" style="edgeStyle=orthogonalEdgeStyle;rounded=0;orthogonalLoop=1;jettySize=auto;html=1;" parent="1" source="FyLu69PJ2PbQw6B5v2kj-9" target="9SO_yJvXqfipgZOrS4GC-36" edge="1">
          <mxGeometry relative="1" as="geometry" />
        </mxCell>
        <mxCell id="FyLu69PJ2PbQw6B5v2kj-9" value="осьминога нет в наличии" style="shape=hexagon;perimeter=hexagonPerimeter2;whiteSpace=wrap;html=1;fixedSize=1;fillColor=#f8cecc;strokeColor=#b85450;" parent="1" vertex="1">
          <mxGeometry x="660" y="210" width="120" height="80" as="geometry" />
        </mxCell>
        <mxCell id="FyLu69PJ2PbQw6B5v2kj-50" style="edgeStyle=orthogonalEdgeStyle;rounded=0;orthogonalLoop=1;jettySize=auto;html=1;entryX=0.5;entryY=0;entryDx=0;entryDy=0;" parent="1" source="FyLu69PJ2PbQw6B5v2kj-10" target="FyLu69PJ2PbQw6B5v2kj-11" edge="1">
          <mxGeometry relative="1" as="geometry">
            <Array as="points">
              <mxPoint x="320" y="370" />
              <mxPoint x="320" y="910" />
              <mxPoint x="480" y="910" />
            </Array>
          </mxGeometry>
        </mxCell>
        <mxCell id="9SO_yJvXqfipgZOrS4GC-27" value="" style="edgeStyle=orthogonalEdgeStyle;rounded=0;orthogonalLoop=1;jettySize=auto;html=1;endArrow=none;endFill=0;" parent="1" source="FyLu69PJ2PbQw6B5v2kj-10" target="9SO_yJvXqfipgZOrS4GC-9" edge="1">
          <mxGeometry relative="1" as="geometry" />
        </mxCell>
        <mxCell id="FyLu69PJ2PbQw6B5v2kj-10" value="бронь осьминога до получения оплаты" style="rounded=0;whiteSpace=wrap;html=1;fillColor=#d5e8d4;strokeColor=#82b366;" parent="1" vertex="1">
          <mxGeometry x="180" y="350" width="120" height="40" as="geometry" />
        </mxCell>
        <mxCell id="FyLu69PJ2PbQw6B5v2kj-24" value="" style="edgeStyle=orthogonalEdgeStyle;rounded=0;orthogonalLoop=1;jettySize=auto;html=1;exitX=0;exitY=0.5;exitDx=0;exitDy=0;" parent="1" source="FyLu69PJ2PbQw6B5v2kj-11" target="FyLu69PJ2PbQw6B5v2kj-12" edge="1">
          <mxGeometry relative="1" as="geometry">
            <mxPoint x="460.000047259035" y="1340.0434782608697" as="sourcePoint" />
            <Array as="points">
              <mxPoint x="320" y="1330" />
            </Array>
          </mxGeometry>
        </mxCell>
        <mxCell id="FyLu69PJ2PbQw6B5v2kj-25" value="" style="edgeStyle=orthogonalEdgeStyle;rounded=0;orthogonalLoop=1;jettySize=auto;html=1;exitX=1;exitY=0.5;exitDx=0;exitDy=0;" parent="1" source="FyLu69PJ2PbQw6B5v2kj-11" target="FyLu69PJ2PbQw6B5v2kj-13" edge="1">
          <mxGeometry relative="1" as="geometry">
            <mxPoint x="499.999952740965" y="1340.0434782608697" as="sourcePoint" />
            <Array as="points">
              <mxPoint x="640" y="1330" />
            </Array>
          </mxGeometry>
        </mxCell>
        <mxCell id="FyLu69PJ2PbQw6B5v2kj-11" value="XOR" style="ellipse;whiteSpace=wrap;html=1;aspect=fixed;" parent="1" vertex="1">
          <mxGeometry x="460" y="1310" width="40" height="40" as="geometry" />
        </mxCell>
        <mxCell id="FyLu69PJ2PbQw6B5v2kj-26" value="" style="edgeStyle=orthogonalEdgeStyle;rounded=0;orthogonalLoop=1;jettySize=auto;html=1;" parent="1" source="FyLu69PJ2PbQw6B5v2kj-12" target="FyLu69PJ2PbQw6B5v2kj-17" edge="1">
          <mxGeometry relative="1" as="geometry" />
        </mxCell>
        <mxCell id="FyLu69PJ2PbQw6B5v2kj-12" value="оплата не появляется в течении 3 дней" style="shape=hexagon;perimeter=hexagonPerimeter2;whiteSpace=wrap;html=1;fixedSize=1;fillColor=#f8cecc;strokeColor=#b85450;" parent="1" vertex="1">
          <mxGeometry x="260" y="1350" width="120" height="80" as="geometry" />
        </mxCell>
        <mxCell id="9SO_yJvXqfipgZOrS4GC-44" style="edgeStyle=orthogonalEdgeStyle;rounded=0;orthogonalLoop=1;jettySize=auto;html=1;entryX=0;entryY=0.5;entryDx=0;entryDy=0;" parent="1" source="FyLu69PJ2PbQw6B5v2kj-13" target="9SO_yJvXqfipgZOrS4GC-43" edge="1">
          <mxGeometry relative="1" as="geometry" />
        </mxCell>
        <mxCell id="FyLu69PJ2PbQw6B5v2kj-13" value="оплата проведена успешна" style="shape=hexagon;perimeter=hexagonPerimeter2;whiteSpace=wrap;html=1;fixedSize=1;fillColor=#f8cecc;strokeColor=#b85450;" parent="1" vertex="1">
          <mxGeometry x="580" y="1350" width="120" height="80" as="geometry" />
        </mxCell>
        <mxCell id="FyLu69PJ2PbQw6B5v2kj-28" value="" style="edgeStyle=orthogonalEdgeStyle;rounded=0;orthogonalLoop=1;jettySize=auto;html=1;" parent="1" source="FyLu69PJ2PbQw6B5v2kj-14" target="FyLu69PJ2PbQw6B5v2kj-15" edge="1">
          <mxGeometry relative="1" as="geometry" />
        </mxCell>
        <mxCell id="FyLu69PJ2PbQw6B5v2kj-14" value="уточнение информации о клиенте для отправки" style="rounded=0;whiteSpace=wrap;html=1;fillColor=#d5e8d4;strokeColor=#82b366;" parent="1" vertex="1">
          <mxGeometry x="580" y="1540" width="120" height="80" as="geometry" />
        </mxCell>
        <mxCell id="FyLu69PJ2PbQw6B5v2kj-29" value="" style="edgeStyle=orthogonalEdgeStyle;rounded=0;orthogonalLoop=1;jettySize=auto;html=1;" parent="1" source="FyLu69PJ2PbQw6B5v2kj-15" target="FyLu69PJ2PbQw6B5v2kj-16" edge="1">
          <mxGeometry relative="1" as="geometry" />
        </mxCell>
        <mxCell id="FyLu69PJ2PbQw6B5v2kj-15" value="информация получена" style="shape=hexagon;perimeter=hexagonPerimeter2;whiteSpace=wrap;html=1;fixedSize=1;fillColor=#f8cecc;strokeColor=#b85450;" parent="1" vertex="1">
          <mxGeometry x="580" y="1660" width="120" height="80" as="geometry" />
        </mxCell>
        <mxCell id="FyLu69PJ2PbQw6B5v2kj-68" value="" style="edgeStyle=orthogonalEdgeStyle;rounded=0;orthogonalLoop=1;jettySize=auto;html=1;" parent="1" source="FyLu69PJ2PbQw6B5v2kj-16" target="FyLu69PJ2PbQw6B5v2kj-65" edge="1">
          <mxGeometry relative="1" as="geometry" />
        </mxCell>
        <mxCell id="FyLu69PJ2PbQw6B5v2kj-16" value="отправка&amp;nbsp;" style="rounded=0;whiteSpace=wrap;html=1;fillColor=#d5e8d4;strokeColor=#82b366;" parent="1" vertex="1">
          <mxGeometry x="580" y="1780" width="120" height="40" as="geometry" />
        </mxCell>
        <mxCell id="FyLu69PJ2PbQw6B5v2kj-17" value="отмена брони" style="rounded=0;whiteSpace=wrap;html=1;fillColor=#d5e8d4;strokeColor=#82b366;" parent="1" vertex="1">
          <mxGeometry x="260" y="1470" width="120" height="40" as="geometry" />
        </mxCell>
        <mxCell id="FyLu69PJ2PbQw6B5v2kj-40" value="" style="edgeStyle=orthogonalEdgeStyle;rounded=0;orthogonalLoop=1;jettySize=auto;html=1;" parent="1" source="FyLu69PJ2PbQw6B5v2kj-30" target="FyLu69PJ2PbQw6B5v2kj-39" edge="1">
          <mxGeometry relative="1" as="geometry" />
        </mxCell>
        <mxCell id="FyLu69PJ2PbQw6B5v2kj-30" value="уведомление клиента о необходимости вязки осьминога с нуля и об увеличении срока доставки" style="whiteSpace=wrap;html=1;fillColor=#d5e8d4;strokeColor=#82b366;" parent="1" vertex="1">
          <mxGeometry x="640" y="350" width="160" height="80" as="geometry" />
        </mxCell>
        <mxCell id="FyLu69PJ2PbQw6B5v2kj-44" value="" style="edgeStyle=orthogonalEdgeStyle;rounded=0;orthogonalLoop=1;jettySize=auto;html=1;" parent="1" source="FyLu69PJ2PbQw6B5v2kj-34" target="FyLu69PJ2PbQw6B5v2kj-43" edge="1">
          <mxGeometry relative="1" as="geometry" />
        </mxCell>
        <mxCell id="FyLu69PJ2PbQw6B5v2kj-34" value="клиент согласился подождать" style="shape=hexagon;perimeter=hexagonPerimeter2;whiteSpace=wrap;html=1;fixedSize=1;fillColor=#f8cecc;strokeColor=#b85450;" parent="1" vertex="1">
          <mxGeometry x="500" y="450" width="120" height="80" as="geometry" />
        </mxCell>
        <mxCell id="FyLu69PJ2PbQw6B5v2kj-48" value="" style="edgeStyle=orthogonalEdgeStyle;rounded=0;orthogonalLoop=1;jettySize=auto;html=1;" parent="1" source="FyLu69PJ2PbQw6B5v2kj-35" target="FyLu69PJ2PbQw6B5v2kj-47" edge="1">
          <mxGeometry relative="1" as="geometry" />
        </mxCell>
        <mxCell id="FyLu69PJ2PbQw6B5v2kj-35" value="клиент отказался ждать" style="shape=hexagon;perimeter=hexagonPerimeter2;whiteSpace=wrap;html=1;fixedSize=1;fillColor=#f8cecc;strokeColor=#b85450;" parent="1" vertex="1">
          <mxGeometry x="820" y="450" width="120" height="80" as="geometry" />
        </mxCell>
        <mxCell id="FyLu69PJ2PbQw6B5v2kj-41" style="edgeStyle=orthogonalEdgeStyle;rounded=0;orthogonalLoop=1;jettySize=auto;html=1;entryX=0;entryY=0.5;entryDx=0;entryDy=0;" parent="1" source="FyLu69PJ2PbQw6B5v2kj-39" target="FyLu69PJ2PbQw6B5v2kj-35" edge="1">
          <mxGeometry relative="1" as="geometry" />
        </mxCell>
        <mxCell id="FyLu69PJ2PbQw6B5v2kj-42" style="edgeStyle=orthogonalEdgeStyle;rounded=0;orthogonalLoop=1;jettySize=auto;html=1;entryX=1;entryY=0.5;entryDx=0;entryDy=0;" parent="1" source="FyLu69PJ2PbQw6B5v2kj-39" target="FyLu69PJ2PbQw6B5v2kj-34" edge="1">
          <mxGeometry relative="1" as="geometry">
            <Array as="points">
              <mxPoint x="650" y="490" />
              <mxPoint x="650" y="490" />
            </Array>
          </mxGeometry>
        </mxCell>
        <mxCell id="FyLu69PJ2PbQw6B5v2kj-39" value="&lt;font style=&quot;font-size: 11px;&quot;&gt;XOR&lt;/font&gt;" style="ellipse;whiteSpace=wrap;html=1;aspect=fixed;" parent="1" vertex="1">
          <mxGeometry x="700" y="470" width="40" height="40" as="geometry" />
        </mxCell>
        <mxCell id="FyLu69PJ2PbQw6B5v2kj-59" value="" style="edgeStyle=orthogonalEdgeStyle;rounded=0;orthogonalLoop=1;jettySize=auto;html=1;" parent="1" source="FyLu69PJ2PbQw6B5v2kj-43" target="FyLu69PJ2PbQw6B5v2kj-54" edge="1">
          <mxGeometry relative="1" as="geometry" />
        </mxCell>
        <mxCell id="FyLu69PJ2PbQw6B5v2kj-43" value="отправка реквизитов и ожидание оплаты" style="rounded=0;whiteSpace=wrap;html=1;fillColor=#d5e8d4;strokeColor=#82b366;" parent="1" vertex="1">
          <mxGeometry x="500" y="590" width="120" height="40" as="geometry" />
        </mxCell>
        <mxCell id="FyLu69PJ2PbQw6B5v2kj-47" value="прекращение обработки заказа" style="rounded=0;whiteSpace=wrap;html=1;fillColor=#d5e8d4;strokeColor=#82b366;" parent="1" vertex="1">
          <mxGeometry x="820" y="590" width="120" height="60" as="geometry" />
        </mxCell>
        <mxCell id="FyLu69PJ2PbQw6B5v2kj-52" value="" style="edgeStyle=orthogonalEdgeStyle;rounded=0;orthogonalLoop=1;jettySize=auto;html=1;" parent="1" target="FyLu69PJ2PbQw6B5v2kj-55" edge="1">
          <mxGeometry relative="1" as="geometry">
            <mxPoint x="540.000047259035" y="690.0434782608697" as="sourcePoint" />
          </mxGeometry>
        </mxCell>
        <mxCell id="FyLu69PJ2PbQw6B5v2kj-53" value="" style="edgeStyle=orthogonalEdgeStyle;rounded=0;orthogonalLoop=1;jettySize=auto;html=1;" parent="1" target="FyLu69PJ2PbQw6B5v2kj-56" edge="1">
          <mxGeometry relative="1" as="geometry">
            <mxPoint x="579.999952740965" y="690.0434782608697" as="sourcePoint" />
          </mxGeometry>
        </mxCell>
        <mxCell id="FyLu69PJ2PbQw6B5v2kj-54" value="XOR" style="ellipse;whiteSpace=wrap;html=1;aspect=fixed;" parent="1" vertex="1">
          <mxGeometry x="540" y="670" width="40" height="40" as="geometry" />
        </mxCell>
        <mxCell id="FyLu69PJ2PbQw6B5v2kj-58" value="" style="edgeStyle=orthogonalEdgeStyle;rounded=0;orthogonalLoop=1;jettySize=auto;html=1;" parent="1" source="FyLu69PJ2PbQw6B5v2kj-55" target="FyLu69PJ2PbQw6B5v2kj-57" edge="1">
          <mxGeometry relative="1" as="geometry" />
        </mxCell>
        <mxCell id="FyLu69PJ2PbQw6B5v2kj-55" value="оплата не появляется в течении 3 дней" style="shape=hexagon;perimeter=hexagonPerimeter2;whiteSpace=wrap;html=1;fixedSize=1;fillColor=#f8cecc;strokeColor=#b85450;" parent="1" vertex="1">
          <mxGeometry x="380" y="710" width="120" height="80" as="geometry" />
        </mxCell>
        <mxCell id="FyLu69PJ2PbQw6B5v2kj-61" value="" style="edgeStyle=orthogonalEdgeStyle;rounded=0;orthogonalLoop=1;jettySize=auto;html=1;" parent="1" source="FyLu69PJ2PbQw6B5v2kj-56" target="FyLu69PJ2PbQw6B5v2kj-60" edge="1">
          <mxGeometry relative="1" as="geometry" />
        </mxCell>
        <mxCell id="FyLu69PJ2PbQw6B5v2kj-56" value="оплата проведена успешна" style="shape=hexagon;perimeter=hexagonPerimeter2;whiteSpace=wrap;html=1;fixedSize=1;fillColor=#f8cecc;strokeColor=#b85450;" parent="1" vertex="1">
          <mxGeometry x="620" y="710" width="120" height="80" as="geometry" />
        </mxCell>
        <mxCell id="FyLu69PJ2PbQw6B5v2kj-57" value="отмена заказа" style="rounded=0;whiteSpace=wrap;html=1;fillColor=#d5e8d4;strokeColor=#82b366;" parent="1" vertex="1">
          <mxGeometry x="380" y="830" width="120" height="40" as="geometry" />
        </mxCell>
        <mxCell id="yauiNE5-DDS5s2IxFTfD-7" style="edgeStyle=orthogonalEdgeStyle;rounded=0;orthogonalLoop=1;jettySize=auto;html=1;entryX=0.5;entryY=0;entryDx=0;entryDy=0;" parent="1" source="FyLu69PJ2PbQw6B5v2kj-60" target="yauiNE5-DDS5s2IxFTfD-6" edge="1">
          <mxGeometry relative="1" as="geometry" />
        </mxCell>
        <mxCell id="FyLu69PJ2PbQw6B5v2kj-60" value="подготовка к производству&amp;nbsp;&lt;br&gt;осьминога" style="whiteSpace=wrap;html=1;fillColor=#d5e8d4;strokeColor=#82b366;" parent="1" vertex="1">
          <mxGeometry x="620" y="830" width="120" height="50" as="geometry" />
        </mxCell>
        <mxCell id="9SO_yJvXqfipgZOrS4GC-45" style="edgeStyle=orthogonalEdgeStyle;rounded=0;orthogonalLoop=1;jettySize=auto;html=1;entryX=1;entryY=0.5;entryDx=0;entryDy=0;" parent="1" source="FyLu69PJ2PbQw6B5v2kj-62" target="9SO_yJvXqfipgZOrS4GC-43" edge="1">
          <mxGeometry relative="1" as="geometry" />
        </mxCell>
        <mxCell id="FyLu69PJ2PbQw6B5v2kj-62" value="осьминог готов" style="shape=hexagon;perimeter=hexagonPerimeter2;whiteSpace=wrap;html=1;fixedSize=1;fillColor=#f8cecc;strokeColor=#b85450;" parent="1" vertex="1">
          <mxGeometry x="841.11" y="1335.45" width="120" height="80" as="geometry" />
        </mxCell>
        <mxCell id="FyLu69PJ2PbQw6B5v2kj-66" style="edgeStyle=orthogonalEdgeStyle;rounded=0;orthogonalLoop=1;jettySize=auto;html=1;" parent="1" source="FyLu69PJ2PbQw6B5v2kj-65" edge="1">
          <mxGeometry relative="1" as="geometry">
            <mxPoint x="640.0000000000002" y="1980" as="targetPoint" />
          </mxGeometry>
        </mxCell>
        <mxCell id="FyLu69PJ2PbQw6B5v2kj-65" value="клиент получил осьминога" style="shape=hexagon;perimeter=hexagonPerimeter2;whiteSpace=wrap;html=1;fixedSize=1;fillColor=#f8cecc;strokeColor=#b85450;" parent="1" vertex="1">
          <mxGeometry x="580" y="1860" width="120" height="80" as="geometry" />
        </mxCell>
        <mxCell id="FyLu69PJ2PbQw6B5v2kj-67" value="получение и обработка фидбека" style="rounded=0;whiteSpace=wrap;html=1;fillColor=#d5e8d4;strokeColor=#82b366;" parent="1" vertex="1">
          <mxGeometry x="580" y="1980" width="120" height="60" as="geometry" />
        </mxCell>
        <mxCell id="9SO_yJvXqfipgZOrS4GC-1" value="Вязальщик" style="rounded=0;whiteSpace=wrap;html=1;fillColor=#fff2cc;strokeColor=#d6b656;" parent="1" vertex="1">
          <mxGeometry x="590" y="150" width="130" height="40" as="geometry" />
        </mxCell>
        <mxCell id="9SO_yJvXqfipgZOrS4GC-3" value="" style="endArrow=none;html=1;rounded=0;fillColor=#fff2cc;strokeColor=#d6b656;" parent="1" edge="1">
          <mxGeometry width="50" height="50" relative="1" as="geometry">
            <mxPoint x="600" y="190" as="sourcePoint" />
            <mxPoint x="600" y="150" as="targetPoint" />
          </mxGeometry>
        </mxCell>
        <mxCell id="9SO_yJvXqfipgZOrS4GC-5" value="" style="endArrow=none;html=1;rounded=0;fillColor=#fff2cc;strokeColor=#d6b656;" parent="1" edge="1">
          <mxGeometry width="50" height="50" relative="1" as="geometry">
            <mxPoint x="710" y="190" as="sourcePoint" />
            <mxPoint x="710" y="150" as="targetPoint" />
          </mxGeometry>
        </mxCell>
        <mxCell id="9SO_yJvXqfipgZOrS4GC-6" value="SMM-менеджер" style="rounded=0;whiteSpace=wrap;html=1;fillColor=#fff2cc;strokeColor=#d6b656;" parent="1" vertex="1">
          <mxGeometry x="840" y="370" width="130" height="40" as="geometry" />
        </mxCell>
        <mxCell id="9SO_yJvXqfipgZOrS4GC-7" value="" style="endArrow=none;html=1;rounded=0;fillColor=#fff2cc;strokeColor=#d6b656;" parent="1" edge="1">
          <mxGeometry width="50" height="50" relative="1" as="geometry">
            <mxPoint x="850" y="410" as="sourcePoint" />
            <mxPoint x="850" y="370" as="targetPoint" />
          </mxGeometry>
        </mxCell>
        <mxCell id="9SO_yJvXqfipgZOrS4GC-8" value="" style="endArrow=none;html=1;rounded=0;fillColor=#fff2cc;strokeColor=#d6b656;" parent="1" edge="1">
          <mxGeometry width="50" height="50" relative="1" as="geometry">
            <mxPoint x="960" y="410" as="sourcePoint" />
            <mxPoint x="960" y="370" as="targetPoint" />
          </mxGeometry>
        </mxCell>
        <mxCell id="9SO_yJvXqfipgZOrS4GC-9" value="SMM-менеджер" style="rounded=0;whiteSpace=wrap;html=1;fillColor=#fff2cc;strokeColor=#d6b656;" parent="1" vertex="1">
          <mxGeometry x="20" y="350" width="130" height="40" as="geometry" />
        </mxCell>
        <mxCell id="9SO_yJvXqfipgZOrS4GC-10" value="" style="endArrow=none;html=1;rounded=0;fillColor=#fff2cc;strokeColor=#d6b656;" parent="1" edge="1">
          <mxGeometry width="50" height="50" relative="1" as="geometry">
            <mxPoint x="30" y="390" as="sourcePoint" />
            <mxPoint x="30" y="350" as="targetPoint" />
          </mxGeometry>
        </mxCell>
        <mxCell id="9SO_yJvXqfipgZOrS4GC-11" value="" style="endArrow=none;html=1;rounded=0;fillColor=#fff2cc;strokeColor=#d6b656;" parent="1" edge="1">
          <mxGeometry width="50" height="50" relative="1" as="geometry">
            <mxPoint x="140" y="390" as="sourcePoint" />
            <mxPoint x="140" y="350" as="targetPoint" />
          </mxGeometry>
        </mxCell>
        <mxCell id="9SO_yJvXqfipgZOrS4GC-12" value="SMM-менеджер" style="rounded=0;whiteSpace=wrap;html=1;fillColor=#fff2cc;strokeColor=#d6b656;" parent="1" vertex="1">
          <mxGeometry x="340" y="590" width="130" height="40" as="geometry" />
        </mxCell>
        <mxCell id="9SO_yJvXqfipgZOrS4GC-13" value="" style="endArrow=none;html=1;rounded=0;fillColor=#fff2cc;strokeColor=#d6b656;" parent="1" edge="1">
          <mxGeometry width="50" height="50" relative="1" as="geometry">
            <mxPoint x="350" y="630" as="sourcePoint" />
            <mxPoint x="350" y="590" as="targetPoint" />
          </mxGeometry>
        </mxCell>
        <mxCell id="9SO_yJvXqfipgZOrS4GC-14" value="" style="endArrow=none;html=1;rounded=0;fillColor=#fff2cc;strokeColor=#d6b656;" parent="1" edge="1">
          <mxGeometry width="50" height="50" relative="1" as="geometry">
            <mxPoint x="460" y="630" as="sourcePoint" />
            <mxPoint x="460" y="590" as="targetPoint" />
          </mxGeometry>
        </mxCell>
        <mxCell id="9SO_yJvXqfipgZOrS4GC-15" value="Вязальщик" style="rounded=0;whiteSpace=wrap;html=1;fillColor=#fff2cc;strokeColor=#d6b656;" parent="1" vertex="1">
          <mxGeometry x="780" y="830" width="130" height="50" as="geometry" />
        </mxCell>
        <mxCell id="9SO_yJvXqfipgZOrS4GC-16" value="" style="endArrow=none;html=1;rounded=0;fillColor=#fff2cc;strokeColor=#d6b656;exitX=0.076;exitY=1.018;exitDx=0;exitDy=0;exitPerimeter=0;" parent="1" source="9SO_yJvXqfipgZOrS4GC-15" edge="1">
          <mxGeometry width="50" height="50" relative="1" as="geometry">
            <mxPoint x="790" y="870" as="sourcePoint" />
            <mxPoint x="790" y="830" as="targetPoint" />
          </mxGeometry>
        </mxCell>
        <mxCell id="9SO_yJvXqfipgZOrS4GC-17" value="" style="endArrow=none;html=1;rounded=0;fillColor=#fff2cc;strokeColor=#d6b656;" parent="1" edge="1">
          <mxGeometry width="50" height="50" relative="1" as="geometry">
            <mxPoint x="900" y="880" as="sourcePoint" />
            <mxPoint x="900" y="830" as="targetPoint" />
          </mxGeometry>
        </mxCell>
        <mxCell id="9SO_yJvXqfipgZOrS4GC-18" value="SMM-менеджер" style="rounded=0;whiteSpace=wrap;html=1;fillColor=#fff2cc;strokeColor=#d6b656;" parent="1" vertex="1">
          <mxGeometry x="420" y="1560" width="130" height="40" as="geometry" />
        </mxCell>
        <mxCell id="9SO_yJvXqfipgZOrS4GC-19" value="" style="endArrow=none;html=1;rounded=0;fillColor=#fff2cc;strokeColor=#d6b656;" parent="1" edge="1">
          <mxGeometry width="50" height="50" relative="1" as="geometry">
            <mxPoint x="430" y="1600" as="sourcePoint" />
            <mxPoint x="430" y="1560" as="targetPoint" />
          </mxGeometry>
        </mxCell>
        <mxCell id="9SO_yJvXqfipgZOrS4GC-20" value="" style="endArrow=none;html=1;rounded=0;fillColor=#fff2cc;strokeColor=#d6b656;" parent="1" edge="1">
          <mxGeometry width="50" height="50" relative="1" as="geometry">
            <mxPoint x="540" y="1600" as="sourcePoint" />
            <mxPoint x="540" y="1560" as="targetPoint" />
          </mxGeometry>
        </mxCell>
        <mxCell id="9SO_yJvXqfipgZOrS4GC-21" value="Ответственный за отправку" style="rounded=0;whiteSpace=wrap;html=1;fillColor=#fff2cc;strokeColor=#d6b656;" parent="1" vertex="1">
          <mxGeometry x="430" y="1780" width="130" height="40" as="geometry" />
        </mxCell>
        <mxCell id="9SO_yJvXqfipgZOrS4GC-22" value="" style="endArrow=none;html=1;rounded=0;fillColor=#fff2cc;strokeColor=#d6b656;" parent="1" edge="1">
          <mxGeometry width="50" height="50" relative="1" as="geometry">
            <mxPoint x="440" y="1820" as="sourcePoint" />
            <mxPoint x="440" y="1780" as="targetPoint" />
          </mxGeometry>
        </mxCell>
        <mxCell id="9SO_yJvXqfipgZOrS4GC-23" value="" style="endArrow=none;html=1;rounded=0;fillColor=#fff2cc;strokeColor=#d6b656;" parent="1" edge="1">
          <mxGeometry width="50" height="50" relative="1" as="geometry">
            <mxPoint x="550" y="1820" as="sourcePoint" />
            <mxPoint x="550" y="1780" as="targetPoint" />
          </mxGeometry>
        </mxCell>
        <mxCell id="9SO_yJvXqfipgZOrS4GC-24" value="SMM-менеджер" style="rounded=0;whiteSpace=wrap;html=1;fillColor=#fff2cc;strokeColor=#d6b656;" parent="1" vertex="1">
          <mxGeometry x="430" y="1990" width="130" height="40" as="geometry" />
        </mxCell>
        <mxCell id="9SO_yJvXqfipgZOrS4GC-25" value="" style="endArrow=none;html=1;rounded=0;fillColor=#fff2cc;strokeColor=#d6b656;" parent="1" edge="1">
          <mxGeometry width="50" height="50" relative="1" as="geometry">
            <mxPoint x="440" y="2030" as="sourcePoint" />
            <mxPoint x="440" y="1990" as="targetPoint" />
          </mxGeometry>
        </mxCell>
        <mxCell id="9SO_yJvXqfipgZOrS4GC-26" value="" style="endArrow=none;html=1;rounded=0;fillColor=#fff2cc;strokeColor=#d6b656;" parent="1" edge="1">
          <mxGeometry width="50" height="50" relative="1" as="geometry">
            <mxPoint x="550" y="2030" as="sourcePoint" />
            <mxPoint x="550" y="1990" as="targetPoint" />
          </mxGeometry>
        </mxCell>
        <mxCell id="9SO_yJvXqfipgZOrS4GC-29" value="" style="endArrow=none;html=1;rounded=0;exitX=1;exitY=0.5;exitDx=0;exitDy=0;entryX=0;entryY=0.5;entryDx=0;entryDy=0;" parent="1" source="FyLu69PJ2PbQw6B5v2kj-30" target="9SO_yJvXqfipgZOrS4GC-6" edge="1">
          <mxGeometry width="50" height="50" relative="1" as="geometry">
            <mxPoint x="820" y="420" as="sourcePoint" />
            <mxPoint x="870" y="370" as="targetPoint" />
          </mxGeometry>
        </mxCell>
        <mxCell id="9SO_yJvXqfipgZOrS4GC-30" value="" style="endArrow=none;html=1;rounded=0;exitX=1;exitY=0.5;exitDx=0;exitDy=0;entryX=0;entryY=0.5;entryDx=0;entryDy=0;" parent="1" source="9SO_yJvXqfipgZOrS4GC-12" target="FyLu69PJ2PbQw6B5v2kj-43" edge="1">
          <mxGeometry width="50" height="50" relative="1" as="geometry">
            <mxPoint x="465" y="609.66" as="sourcePoint" />
            <mxPoint x="505" y="609.66" as="targetPoint" />
          </mxGeometry>
        </mxCell>
        <mxCell id="9SO_yJvXqfipgZOrS4GC-32" value="" style="endArrow=none;html=1;rounded=0;entryX=0;entryY=0.5;entryDx=0;entryDy=0;exitX=1;exitY=0.5;exitDx=0;exitDy=0;" parent="1" source="9SO_yJvXqfipgZOrS4GC-18" target="FyLu69PJ2PbQw6B5v2kj-14" edge="1">
          <mxGeometry width="50" height="50" relative="1" as="geometry">
            <mxPoint x="530" y="1600" as="sourcePoint" />
            <mxPoint x="580" y="1550" as="targetPoint" />
          </mxGeometry>
        </mxCell>
        <mxCell id="9SO_yJvXqfipgZOrS4GC-33" value="" style="endArrow=none;html=1;rounded=0;entryX=0;entryY=0.5;entryDx=0;entryDy=0;exitX=1;exitY=0.5;exitDx=0;exitDy=0;" parent="1" source="9SO_yJvXqfipgZOrS4GC-21" target="FyLu69PJ2PbQw6B5v2kj-16" edge="1">
          <mxGeometry width="50" height="50" relative="1" as="geometry">
            <mxPoint x="550" y="1850" as="sourcePoint" />
            <mxPoint x="600" y="1800" as="targetPoint" />
          </mxGeometry>
        </mxCell>
        <mxCell id="9SO_yJvXqfipgZOrS4GC-34" value="" style="endArrow=none;html=1;rounded=0;entryX=0;entryY=0.5;entryDx=0;entryDy=0;exitX=1;exitY=0.5;exitDx=0;exitDy=0;" parent="1" source="9SO_yJvXqfipgZOrS4GC-24" target="FyLu69PJ2PbQw6B5v2kj-67" edge="1">
          <mxGeometry width="50" height="50" relative="1" as="geometry">
            <mxPoint x="540" y="2040" as="sourcePoint" />
            <mxPoint x="590" y="1990" as="targetPoint" />
          </mxGeometry>
        </mxCell>
        <mxCell id="9SO_yJvXqfipgZOrS4GC-35" value="" style="endArrow=none;html=1;rounded=0;exitX=1;exitY=0.5;exitDx=0;exitDy=0;entryX=0;entryY=0.5;entryDx=0;entryDy=0;" parent="1" source="FyLu69PJ2PbQw6B5v2kj-60" target="9SO_yJvXqfipgZOrS4GC-15" edge="1">
          <mxGeometry width="50" height="50" relative="1" as="geometry">
            <mxPoint x="740" y="880" as="sourcePoint" />
            <mxPoint x="790" y="830" as="targetPoint" />
          </mxGeometry>
        </mxCell>
        <mxCell id="9SO_yJvXqfipgZOrS4GC-38" style="edgeStyle=orthogonalEdgeStyle;rounded=0;orthogonalLoop=1;jettySize=auto;html=1;entryX=0.5;entryY=0;entryDx=0;entryDy=0;" parent="1" source="9SO_yJvXqfipgZOrS4GC-36" target="FyLu69PJ2PbQw6B5v2kj-30" edge="1">
          <mxGeometry relative="1" as="geometry">
            <Array as="points">
              <mxPoint x="900" y="310" />
              <mxPoint x="720" y="310" />
            </Array>
          </mxGeometry>
        </mxCell>
        <mxCell id="9SO_yJvXqfipgZOrS4GC-40" style="edgeStyle=orthogonalEdgeStyle;rounded=0;orthogonalLoop=1;jettySize=auto;html=1;entryX=0.5;entryY=0;entryDx=0;entryDy=0;" parent="1" source="9SO_yJvXqfipgZOrS4GC-36" target="9SO_yJvXqfipgZOrS4GC-39" edge="1">
          <mxGeometry relative="1" as="geometry" />
        </mxCell>
        <mxCell id="9SO_yJvXqfipgZOrS4GC-36" value="&lt;font style=&quot;font-size: 11px;&quot;&gt;AND&lt;/font&gt;" style="ellipse;whiteSpace=wrap;html=1;aspect=fixed;" parent="1" vertex="1">
          <mxGeometry x="880" y="230" width="40" height="40" as="geometry" />
        </mxCell>
        <mxCell id="9SO_yJvXqfipgZOrS4GC-41" style="edgeStyle=orthogonalEdgeStyle;rounded=0;orthogonalLoop=1;jettySize=auto;html=1;entryX=1;entryY=0.5;entryDx=0;entryDy=0;endArrow=none;endFill=0;" parent="1" source="9SO_yJvXqfipgZOrS4GC-39" target="9SO_yJvXqfipgZOrS4GC-6" edge="1">
          <mxGeometry relative="1" as="geometry" />
        </mxCell>
        <mxCell id="9SO_yJvXqfipgZOrS4GC-39" value="обновление наличия в соцсетях" style="rounded=0;whiteSpace=wrap;html=1;fillColor=#d5e8d4;strokeColor=#82b366;" parent="1" vertex="1">
          <mxGeometry x="1030" y="360" width="120" height="60" as="geometry" />
        </mxCell>
        <mxCell id="9SO_yJvXqfipgZOrS4GC-46" style="edgeStyle=orthogonalEdgeStyle;rounded=0;orthogonalLoop=1;jettySize=auto;html=1;entryX=0.5;entryY=0;entryDx=0;entryDy=0;" parent="1" source="9SO_yJvXqfipgZOrS4GC-43" target="FyLu69PJ2PbQw6B5v2kj-14" edge="1">
          <mxGeometry relative="1" as="geometry">
            <Array as="points">
              <mxPoint x="760" y="1510" />
              <mxPoint x="640" y="1510" />
            </Array>
          </mxGeometry>
        </mxCell>
        <mxCell id="9SO_yJvXqfipgZOrS4GC-43" value="OR" style="ellipse;whiteSpace=wrap;html=1;aspect=fixed;" parent="1" vertex="1">
          <mxGeometry x="740" y="1450" width="40" height="40" as="geometry" />
        </mxCell>
        <mxCell id="yauiNE5-DDS5s2IxFTfD-1" value="" style="shape=image;verticalLabelPosition=bottom;labelBackgroundColor=default;verticalAlign=top;aspect=fixed;imageAspect=0;image=data:image/jpeg,/9j/4AAQSkZJRgABAQAAAQABAAD/2wCEAAUDBA0NDQ0NDQ0NDQ0NDQ0NDQ0NDQ0NDQ0NDQ0NDQ0NDQ0NDRANCAgODQ0IDRUNDhERExMTCA0WGBYSGBASExIBBQUFCAcIDwkJDxUVEhUVFRUVFRUVFRUVFRUVFRUVFRUVFRUVFRUVFRUVFRUVFRUVFRUVFRUVFRUVFRUVFRUVFf/AABEIAtAFAAMBIgACEQEDEQH/xAAdAAACAwEBAQEBAAAAAAAAAAAEBQIDBgEABwgJ/8QARhAAAQMDAwIDBgQFBAECBQIHAQACEQMEIQUSMUFRBmFxBxMigZHwMqGxwQgUQtHhI1Ji8XIVMyRDgpKiFlOy4sLSGDRj/8QAHAEAAgMBAQEBAAAAAAAAAAAAAgMBBAUABgcI/8QAOBEAAgIBBAEEAQMCBAYCAgMAAAECAxEEEiExBRMiQVEGMmFxFIEjQpGhFTOxwdHw4fEWUgdDgv/aAAwDAQACEQMRAD8A+tMogjjj9uyU6xRLWktBAPPf6K7SLo/E05MzPyH09VJl0Xkg9OcL6LBShIqtmRs7s7HktLSDt2uiSOQfJabRIMEKnVNGa+B+E8kjn/KF0cGlLXHg/CT2/fsrU2rIvb2EsGl1B8sd1IB9VndKvHEFh/EBKZPu/hJ8is5pVY5f3JHylDp6vZLISZoWM+E7huSvw88tcWDoTjsP3VtC9Mu8gELTr7awdIALYPryDP1Rqt4kmCzRXGRB+ysn4nrGnyJaeT6LTtrSFTc2we1zXAEEQQeIKVRP03ySZ2yuW03NcMBwyf0+RW2sq8tBn/pfPadEMijUztHwnymB6HhFU791NxmSyMRz6K1fpfU6/wDsjJ9DrNDh0OFkfEVp7twqMGOHienQ/I/qjdB1fcyTI8iOndE6tlpMTI4VCqMqbMMLjBlrmsWkPHTmOY7fqth4b8RNqMEOmMHyI/QrHW1Codw2ECeoj6d1bp+gua6Qds5IBj/tyv6imqyOJvldEZPoF1eiJJx19FiNUHvKm9v4YwOh805qW0MAkmeZ6pVRcMAYg/oqmkgoZcSWEW9vthxCI1V8NEdwj7Agtyo39kHBC7ff7ieMCu5f8In7/wAqzTK8bQe6V61upFpPBcPTorL64ENeJ+E5A++Fa9PdFY6Z0jXNrApDq2jhv+ozABlw6czPkvaPrDXCAUbeXUtIHUZlU4wnVPCOTFtDUOOsfRMqtu3aXACTlKrTzCb2x4Tblh5ROBZRYAfVE0WlpS3xHQrMd7xjdzZiOvr8kVp97vElMlFuKkuUclgbNqgjKTXt1trQOoCJNv1BVd9ZncHQDHXslVqMXz9HZ5DrZp5Vl1IOBOEOHwMY8lcK6VJPOTmD3TZE/hPVGafWG2BlLNWpOLmx+Egg/t+6M0ikGwJ+qKcVs5BS4yGfzADh5mE3oAczk9PVLb23a4YEO6HzXdLc4kz0wqVkVKORbYVVZBhTpMKne1cSFGm47DGTGErLaIwE2z8cLPeObuCwRhONIuJBBEEff90g8eUf/bfOGkyO5PH7pukilekyIrkzusWHvG4MEKi3tnNaAZTfTrgcQmDXg4gLZd8oLa1wOXYNb0CWggoltz0PKrcyJ2/RfEfaz45vLW6LIZTYWg0yQXb8DcZJABBMRHY9V2l0stVPYmvvksQhu+Uv5Prfi/Q6V1RfQrAFjx3yCMhzT/S5pg/Jfj7xz4edZ3D6DnNfty1zf6mmdpI/pdgyEZ4l8a3dZ+51zV4gBjixo+TSBPmcrMXFVziXOJc4mS5xJJPmTkleq8doLdH3LKfx+5R1M4t7V8fIdotYB2eoTqndgtIbErKApz4Zt3vftY0uJwABJMrYc1JZfwXvGa6cGqV088/PJ9u/h10SndVHb2xUpZ3HO4O7D+ggAj5/T9T2lIMaGjgCAvkP8P3gx1tTL34e7Lu0kCBxkNA/VfYmBfLfyHVetqWk8pCvKXuc9qecFzFY1Ugq1hXnWZUSwrqi4rqA47K6orq446SuLy8uOPLq4urjji8uqJK448urgXiuOPFeXlwLjjq8vLy448vELq8uOPBcK8CvLjjwXV6F5cceXl5eUYOPLy8vLjjy8vLy448vLy8uOOhdXAurjjy8uFdXHHl4ry8VxxFdC4urjjq9K4uLjjy6uwvLjiJXF0ri5nIiVWSrCoEJDQ1EGlecV1VuKEJI6XKDiuyoOcoyEjznKBcuPcoblDYeMnS5R3KJKgXIc8B4BdSdhW06stHlhQuWSDPZKG3Ra5rQJlY2vt92CjrZ/Bq7AEDlEG7HCos6MjJV1a22jHzVdJ4MmTaCGVcLlNsr1uyRCiHQVwEuzpErwpqFxVgL1J8qMgtrJGtRS+s1MqjULUYpwHjLMxquAfmvnWr1QdwIGSeV9S1anMhfMPE2jlzXgOiMg/Pr5LB8tB7GVb8xxhHzK5uRLmuE5PXzQljfhm4RPZN7vQYH4pP7fcpLa0oeWnB4learlXKLSMOanF5mDXV6Gu3DqOn6eq0fhS/DmOPX7/NLfEGlscz8I7EjHzUPBmiEbcmN3nx9wjtVVlOfksVf4T47+j6r4PMtOP6sFaek/ss5oR2uLekA/smTaxMwYVzSeytI2Y2cI0lhUxChVpzKC093wyTPI+aNsa25xaeYwtNSykPi8os0avDtkehTCu0YdOR074QdS2MiPxDP/fkq7++4aQA6YHn81Le1cjM7Vhg95aueDkiUV4evy0hjwARgGef/AOZHiiAG4zGfWEs1O0mP16g+STtcZb0Q4Nco1N8AWFZ/ULgbdgIEdf2UzqgDNpweM9fNZ6iPeue6fhGMH8UZ/f8AJOu1MXxHtkTak0kfPva54sp2VJ1V4D3zto05y4956NBiTC/NOve07UK5M3D2MJkU6cMa3ykfEfmU+/iV1c1NQfSn4KIDWjsck/NfLpW34vRQrr3tcvk29DpYxrUmuWa3QvaXqVu7dSvKzT2c7e0+rXhzT9F+gPYX7dKly51C8Y1pYwvNw0gNiYJewxs5mWk9cCF+UZX2H+F3wxQu7m4bc02VKbaIw7lpLvxNP9OA4E+a2KtNG6ajgbq6YSg21/c/auivBILXhwcNwIIgg9u4TV9qCQT8/Rfmb2Oe0Vr7qrYUi4Ureo4WzidznUGlwcHuJ+LaY2kf0uHbP6hs6wewGeQsrU0RhY4fR56dTg9rQM62GYGQsxrT6tOqKjRMgAjutDTvmtLmk5B5Xre33iTlZ1sFNYj2V7cyWIijTdVa+oIkOA4PmtVRuAUmpaQA8kLtw1zJ6+Smlyr/AFBV2NL3E9buYc1rfxHM+S7ptUkw4QsrqGrn3hDwWmPhPfvB7p/4cutzQCfi4S46mM7NqYuL3SH1Zg24/NU02A+qKqD4SCeiA0vdJxKvyayMcecAms6aTs2uLYMkd/Xsg7m0I+Hofp/2n1Rw3weoJ+i9Wb3QSrUxfpJcoR2g2Y6IfWtT2MOCQcY80+rjCrFu04gJPp44TBkpNYQl0Si4NGee44RV+X7YxMjITGhSgwo3DZRwrwglW1HAlr27/hI5xkJyy5eB+HjqrPdy0LlWqBhNjDbyFCDj0AX1E1cuJwIx6qmjprQQeo6plRqAqysBBPZA4pvJKqcuQWtSwAeFR/Jg4wuU74fU/RTs6w3HOEE5ZZKq3MhSs9p8uqtbVyjqzhtdPYlZDT9UDSS44M58lLSrClBQaQltqhD6rsHaACD5haPTaE02kRMSYWBqakGirScDLsh3kBmfRbnRblrqdMtMywH8l9l1UWj0zRLUjtEn7KV2zWvOQJ/byRfielupOA5Ix69Eh8NVS9ocDkS0jzGCipjmtyOGp0XcSJIb1goO00gsJbvJAiMZ+vVaS0b8In6ygr9wb8U/ZQwvm245JEeoaO4fGHGeo6Gfsoa9ZDdzmnAzhPdOqF4l0gTA8/NHXFIQQcp39TKLxInJlNPNWBEFkbmk8gnp6QnFqHZnH7/2UNLf8TmngOIA8k1uLXcDtwYx6/2UXWrOGiTG+LNIdUbuadrh1zxM9Ez0awZUbMQesZk47/ovXr3NG1wgwQfP0UNJcafwkQOZ++qsuUnXhP8Ag7BoLaxLSAIIj7wr2VQJBAz9/JTsa4IEfXqrLuhuEjlZMpNvEgkK784j5hX2r2kIKhcRULXR2HmP2Vt0Nhxx+n+E9x4USA6tRDhAMHospeUnB4aYDgZniQtFRus/JUazRDwIjcMg9fT0RUScJYfQRTYX7eCQD5/fKbuqDb0WBvK4qO2bZdx2g+fkn2kaU5jcuJ75+8J1+mhFKTeH9EYLtcLKlNzXRA4/UemUhoUXuG2Btjvk/wBui0NS1bkEcjqgLNoBgdMeaZTPbFpfyS0GabZtaBiMZUtRqcx2Rdu8IXVbCctMH8khTzP3HA1k4uH690S1xaYS23uRScGERJJ3dCf7+SZ3EOEg5/VMsWH+xG4Mp3gPOUi1KlsJLeDnH3hG21oR19Fbd2eAf6vX7hBBxrlwTuKrG6JAH1TOsYaT2SykRgGQeh6f2TFtXEcpdq5ygGLmVhv5RTqZnHCX69pUAVKY+IfiE4I/uMLlnduIG7CbtUoqUWSuex61kiCgrkFp8kTp4J80HqF1tftcCO0iJ7+qr1r3YIfAVbXgMJtaHBPMrN2Ny3djqntpcQ3PCXqK8dIB9BVSpOOV5p29cKLa7d0jyUalYOJHmqu19YI4D7SIJ6lZPx1/qwwGNpDvp0WlpukgDpykfi23Ae0zEiD+qZpMRuy+/g6PZkbW6AcAeY++iYNvYzyj7bTqT8lokfn+a7qeija7Z8LtpjqJWvK+tyw8jk+QWxved2Oy+e+2htjc0XU6lak2szNJ5cJa7tE5BiCPPuvkuu+KL6lXq0a9V7Sx7htgBsSYLSBJaeRlZh12xx5579fn1K9FpvDbJK3d/GC5VVVKHMl/DM+Sj9MotdgqrULaDjhQ0+52Olbm7HDMyqKquSs6+S5tuPebekr73/DpoLHVS73YnADsmQPxdYieo7L4XTHvKvw+UeZ6D1nC/YfsF8Jut6LXvOSMDqJyR9ZWT5/VqnStJ4bNCmcaarJL5eIv9v2PqVrTAEAAAeX3lEtKopq5q+WSMOUtzyyxquYFSxXNKUyESauyogrsoCckl1cC9Kg46uqIXVxx5eXl5cceK4ulcXHHgV0lcXlxx5eXl5cceXl4ry449K6VxdXHHCuhcXQuOPLy8vKDjy8vLyk46uLy8oOPLy8vLjjy8vLy446vSuLy44kuSvSuLjiUrkri8Vxx1cXSuLkceXl5dUnHAuyuBeXHHiuArpUQoCj2cKg5TeoFJY1dECVU5WOVT0LRKIkqtxXXKp5SpPA3bwec5Vueo1Hqh9RC5BpFzqiqdUQlWuhP52HDPX/CU5odGP2NazsFA6Rah1aT/TwPmmlYYXdHbz6rP1VeXkp6ulNZHtASrLhUW5XL+rEAKrKbSMK54ZbQUL7kKNq7hdrmfkgzwKkzr2/CqrQRhT3YhcooY5yDjklVQr3It7UHWCbyc5P4FmqDCw+pQA+eIM/JbPWHS0hfLfFdvWf8DXQHfiPksnyc9sCnq7tmOMiW0rMJJGWkmOOJ/VYrxjWa2qC0Z4PY+nmnup6T/LtMud3aen/az9vpD6nxH1EleNojGuTcujNs1DnHZJc9k62obmDHTPX76LQ6DYllIO3Tuhw8uMeiyrbQmW8RM+X/AGtdoFQOt2tHLPh9fvC7U7Y18ff/ANA6SW6bcu8cDu/vA0NeDEjPZNPDhc8k/wBOFh26a4/icYBmOnPHkvo3h9rWNa4cED5pujm52d8GlTKU3lrCG2mt+Ijof1R1CmG1AehwhnOA+IK64dIxyvQLCRpxwhtcujKT67Z+8+IdOChX3z2/iy2PonulgPYPMIcqzgmT38AugXRIDH5j+o9Y/dG61hqroWoaccj8/qoa9egMz9hM6hhjU9sMMU3VuXkSYH3lZ67rutiSxpc2ctH6hanS6bXNkOBB80Pq1jI7/f5rOtpljfHsVGKayj8Q+2trv/Ubhzsb3B49HZj5LFQv0h/EZ7P31WC7pM+Ok0tqNHLmDgx/uGcL84kL2vjb1bRF/KWGeh0dilUv24ILSeC/GFaxFx7gwbiiaLndWgn8Tf8AlEj5rNroWhGTi8otNJrDN17C7rZqVsc5LmwDEyx0fnGPJfvS21VjKUF0EDAOfT1X5g/hJ8CAl99XYOjbYOGeu+oJ4/pAPqV+h36QKkkj4u/ZYPkLmrHs5eDzvk7M25h8LDGVo9ri0yCSZ9fufyWrsgBwF8yoWlek9o5aDM9cdO6+gWN+CB0McKjorXNvcsFCmyMky6tWLTEfNdqiT+6ReKb12+m1rgJOZ7ft0TfTK+Qw5xyrasUpOJyW6TQv1vSQ9sQDBnIQdtaGnlg+S1j6bUpuGbXwMjn0PZBLTxT3IG2txeULtT1jaA2YcYGPzEdk50u6x3wlOrabuLTyeZ7f3XhaVGsIbg/f5od00wK5yUnkdsrAnhSvq3w/JKdKquDc5Ksu78wcTAViE/aO9WLicq3eMIuyqCAsxa13jdubg59Fylq+3t5pUMti4SzyajVXgQZiErF6IkHkpRrGttqtDWOHIBIOR9lBi0cQPi+n3yrNiaGzeH0bCyvMEfn3Ves1BLenOR6Jdatc1o+KY+/qoU7VzpJcc/l/ZLlN4wRK3jGC+jcNiJnKaUrsbek+aRWmmBpjr+qJDS1wB7pcJNdkwsaEFa7Ic47Tkn0CN0W9kQeQcJnXtQegQwpNacgDtykKue7dkGvcnkZXl0Cxw6uEfULJs0LgGccZWhYR+f6cIh9tORyrEl6gcq/UeWYi/wBFBcKk/KAS4doUtJq+5LhkNnAjicwtBWZuaHN5Ax16dEA2HRIEnyzP9l9ojZuXuPTZIVNUaW9fosjo2olnvhJJY90gZPxGR+X6rTVrAOwD8xjhLnaA1j3OAPxxPkQMFWqXVFNfZDbbNFpd57xgcAYjr6Jfr79zHAQJETOPr0hU0repSENEtMnM4/sOULe1NzCDg89R8/JKrqW7K6yGh1o1Wabdwz+Ujt5IyrXA+azPhrVHuB2jcAYnpjqitQLw4GcTkHzQz0/+I0zirVWlr2uHBOfnwn+mVgQOd339Uqvm7mHjhLNNv3UjDpPy6eRhMlU7YYXaCysYNbq1qKjcgffX9FnKdTa403iekn+/dPLXUGuAM/2S7WiIJGCBIMcf3CTp8x9kv/o6QHa6j7s/EcT8Pp/dPbO8Ec85+qxr6FUuB2tcI+R+XQrSaZZf7sHsn6mqCWSEe1uiDDxO4duvkqLbUg9paQfmCD+eU2rvA29pyqr2A4PHB5Crxnwk1/AeBcy34Py56JrSsQR1VD6uYA8wmFrV3Nx9UNs5YTIwJ36cKeOc7p8/NNNNqEjp/hDalWIA3YI/MfuhqLnME/0niPNS05x5OYfqDA4Hp6LJV7ksrAEHPBjEjz6LSOu2uHwnI6JRrFnvae/l98J+l9vEiO0FVbsQHD5+R9OylZ3gPXlZmxuSCWuBxLSYx+eSCnml2zOidbTGC5Izgu16ixzc4jg9QUv04PDiCfv+yf1LdhGcgiD80sp2+SJ9EFVi2uJ3YzsX91PVKwaATjMIGjX2n4sJtULKjYKqzW2Sb6OFtu4OKquHlpHZLbl76NWBLmHPp/dEC+950IjkFWvTfa6BGJuTtMkAQclfB/aJ7d6dFzqNmwVXNJDqrj/pSJ/CGmauYzIGOqA/iT8fPZFlRdt3Nmq4EghpIhgg43ZmemOq+U+y7wybuq4uoVrilSbuqNouax+cCC4gPP4jtBBO35HB1nkJRt9CjG75b6CSwss+leDP4hbkVWi4ZR92SAXMDmOaM5EuId05gQCv03aao25otcQDOQ7BkHz6hfjD2sWelUm02WTLhlwHRWbVLxsAGQ9tQA+8JIjbjB8l9X/hH8ZF7aljVdOwe8oEmYbnezngSCB5+SDRayV03CzG6POUDLhZPvlO0ZiMJg+kwtiMoVzOx4XLKoSfJaE8y5yA5BlrQDR/flSsbVskg4KquK0xHoQpCsG/DMFJak/7kBphrpH/AGk/iGkajmkjAn69P3RYqGc9M/8AS5f1pB7x8l1acZJhIXWdQN6fku3V8APv7lJm3DpggyOkH7Kznj7XG2lP373FrQQNvVxzDWjq4rVr0nqTS+WGlye9qXg2lfUXSA2qJLHDBDo64y09Qvydqdk+k91N4hzCWn1Hby6/NfUNb9r9esS2l/pNPU5f8ujfzWGvXsfLnckzPWT1nuvY+Mov08Ns3x8L6H/0cbq9yksoTU7mGkHM/kh1ZcsAOMhWWVqXEBaX8mftsskoLl9I+h+way3XlGaYqCXF04Axh3B+IGPzX7YtKQAAEDHTj5L8/fwseFAA+4JB/paO20mSfOfyhfoZi+dfk+qVup2L/KsFryK9PbV9Ln+Sxqm1RhWU2rzDZlk6atlVqUpTJJhdhRaVIITiQXZUQpKCTq8uLqg48vLi6uOPFeAXJXQuOOlRK9K8uOOLq8vLicnivL0rwXEHVxeUSVJxIrzSuLi44lK9K9K9Kg49K8uSvSpOOrqjK5uXYOJL0qMr0rsEZOgrsqAXZXYOySXpUZXHFdgksBXpVcrsriMk14qMrwXEnQvLy8oOOleBXCvLjjq8uBdlQSjrwogKTiooWEcKreFYSoPS5BZ4KyqHq8hUVELYyOGUvKFrPV9YpdcPVecsFiKOVqyAuLmFXd3EJPdXMqnOzksQgX3l6l1W4JVVVyi1Ic2WYxRu9GuN9JpPMQfUYTLTBkjus94Md/puHZx/umrK+1wPTqnTWYlbUUuSeDRW65esnKqoVZyOFZd1NrZPRUXDJ5y6h/JTUrhrcqVuZSWvUNQgiA2evVNbV8earuXJQfLPXjCBiVOiUQTIQ5b2XPjkBcMkaipuCusah7+sBgokxnxlinVDhYa7d8ZB56LTavfS7a3Pn9Fjq9Go6sd2NuR2P91ka5uXRh6q/wByS+xR46tZokyO8HHrCReH7b4B25n9k/8AF9Rzx7to3Egx5efnwlPhVlQMLKgw09uk/mvM6urdNpFTiVuUwS4tQPeGOUkt9Q92CIMeS03ia8Y2Q2JgY7z+izltpL3OGJbG4xn5HyVKuG3Ks/8AcAzyrIqHwb6zs99Jrh/U0HPmEZ4eb/p7CTglWeHaodSAAggbSO0IGvW928iOuI6hWGoVbbF1jBvL4Y6p3riNo5Awe6aaNcEsBPz9VlLe4f74AAQRk9QVqNGZzPJz5LS0tjm8jqrMyGd/ZBzZHzCM0IbRHRV21TEFUOrkHaP1WlHEXktrCeRleQHT0Ql5Ta/HMj78kNeuPqOxTTRg1wkQO47f2XP3vaTnc8GPNvVou208t3SQZjJyBHBWvt6oe2ewiOoPmrL21h27p1++yX1nw4+7/wAffCiur0s/9BUI7GLtSpjcQQI6hfN/GPsIsb1zqlMGhUdyWD4Cf923+k88LYandVadR1R0uZGWjPU/4W60Fgcxrhw4A/VTorW7Xtyg9Pdmbw8M/L13/CyWnF6I86eYW+8Afw6adbhtStuuqgyfeR7ufJgwWjzlfbtVhrSSOPL7+ykFR5dhjueY/wALZt1k4LHZbs1c+m2BULQCqRTaG0mCBtEAEDgDthaTTrUH7++V8r8Z+Jq9gWuaw1W1Hhm3MAuiHcSvpnha/wB7ATE9QOizKZqcm2ilUlJ8jK5tBgwh6tERPCY3dYBhJ7SfRZywvveSegOOytWNRIlFJ4Bdd0Q1CDJnuPRS8OXD2PNN+Y4J6/8AS01vR3QqLmwEzwehCVDS4e8F0Si9yGNBw+z/AHWevK264cAcgCWz5Jjdzt/F81nKOhn3hqAmTyZ5/wAJt9jwkiLZN4SRrKURKsY1JrutWAAa0efojbS8xmAmQkg1OLeCNWntd6hKNV1ajSpVatWo2nTpyXvcQGgDrJ6Ku81+m51SSQ2ngmIHckd1+Uv4sPHor1mWdu8+4ptDqwEjfVPAd/uDWwY7nyVmmpTeUN02m9aePgZ+07+I6oXVKOnsaKYMC4eCXO2nJaydoYYEF2T2XxW68Z3tV5c+7r/EfiIe4DJz8LSBAzgLOSuhaUa4R+D0denrgsRR9E8Q6TWsaTK1HUw8vh3u2uq06hDuHta6RVZMEkd5X1n+Gn2nXFZxt7o72t2hlYkBwLjADxMvBP8AUB6r5X7avEtOs2wt6WW2ls0OJGd9RrHFs9Q1oZxjKUexag5+pWrWz/7gJzGG/EZ8sSmauFfO3pIramhTpe5LP2fvm4vA3Hn9/fki7GpI8l861jWv9SQDgADtPB+S1ui6iHNHTAXm/XUrMI83XZGUsDjV64YNx4+8eqCtdR95JIiOPNDeIrouADRuzny7JC1tfeD8MDgD75Q3X7XgOySUsJGzLoCC1y6aGgEjdz8lTRu3RkD0S/UtN964knygFHOxqPAxvj2oloWoB7j5GFpGV8rH22mCmcHbz80fcV4hu6Sex+8JVVkoLLQyptLkL0q9a5jXAQDwR16GB0IMjKS+IKvuy17TgxiOCT+QWc8PVLiixzKjdxLg5sEgZiSOwI6d5TbxLXD6RIJIGYPSOR5r7hCnbPg3muRrVqjEDbuEGM/RGXVudg6xkFZo3TQaRaZaYBniSOnYT+i19HaAefIR9yEuz24JSF7K84KA1fTg8gAR3zB/yhbqq6nWDYkPcNuY9Qnl4WiH43DHmnPMGnH5CzgUaXbmj8EYn4T0g8gn/dPfunFBofMjKsZ8bIMHqPL/ACrLbDv1Sp2OWW+yUK9QtXMkDP8An9kjtrar/wDMjPDscei09wdzz9JVFRv9J/NPqucVg4t0uwEdCfLCuuwB0Q1jUIMHpx5po4g+arWNqWWEuRFRYAXRGSICMsDPKEvLUNeHngT9Tj8kW0/CXNTZvKIDzRBxykuttLB12kx6Iq21D6q24Ie09ZQQUoS56CyUG2+AOachvrI/ZQ0+5j4eM8IEV3UcHLenf5qprg92/pHdPVTaeevhg5H+o7XtII6JJZ6tH+m7npPUdIx0CZ2WQhr6g08ie2MoK1Fe1nN5BqFDJfH33TK0DSeFVp+BCMoURK62ZK4AL6yE8Y6HqpMZjIghE3J2mTjMSuPaHDHRQrHhZFtlF1QdEtz5JPXqkOAyOs/t6px/O7cE57JB4na+oBsO0g5KsadPOH/qQ39DG7q/AOM/qhtHrPODgT3XNKp7gN3T9U2o0Igd+EU5RgnEJfuU3FPn5H78kv1O4hjnjG3JPkP1KJ1yo6mxzi3cADxJP+SswdapXVq9lIkOc1whw2umI4OeVEIvbuRDZ+OvF+quuLitWdk1Hk/IYaPk0NHyTz2b+0Ovpore5ax3vWx8Y/A8fhf/AMmgT8HBx2WTuqZa4giCCQR2IwR9VTC+bXWSVspZ5yx2E0MPEGs1bqs+vWcX1ah3OcfoABw1oEAAdAvo/wDDDbufqVFrSQSyrkdBt69wvlLQv0j/AAd+FiH1b14hob7qkepJzUcO7RDG467uy1fBb1c7F8J5/uBak1g+/wCm0Hwd5nb8Jic9/mmlrbQ2AYEY7jC46gRJbyefn+6qp7p2mfXp6r0kpbvkS8I7Y2kGSZXjS2vLjmeFU+Z+HBn5QrWul3Pquec5JwWV62R+ShcPkBD6k4BwA6hW1agDQBypUcJEoBvMPHoq9V0+jcU3UqrA9jxDgR9weFO/cTEdOVZRaSBCsLKSeQ+j83eOPYtXpue+1cKlKSW0yYqNH+2SYqdQCY6SvmGr6bXoHZWY+mTwHCJjmD1jHC/aes3Yojc87W9V+dPbD42ZeO91TZFNp3b3NIc4ictn8NPJz1XrPGeQ1F+IyWV/+wCojLOHg+Tbkw0i4+ITwhrm3jgyuWYMhbKbziQuhzptT/c/Vn8KtNsV3B0klsiZjBjHQwvvIX4d9nWu1rSvTq0XOB3ND2Dh7Jggjjgkz0hftXQNQFakyqOHAFfO/wAl0sq9R6vxIveYpfqeq1+oZQp0yokqTF5lmJ0WLoKiuoGdkkFIKCkEJxJSJUF1QESC6oAqag48F5eXlBx4heC5K6Fxx5cXXKMqTiQC5K5K4V2DiS4uSvFccdC9KiSoypILJXAVAlclQ2l2SWSvFyg0q5tCVSt19NfyGqpMrBXpRlKxKi+wIVJ+cpQ1aWTBYXoKvp0jPCcW1iISX5+v6D/o2Z8uXC9aR9g3sgLzSp4VmjzVM3h8AS0skKd67uV//p7lVcWzm8haMNVVN4TESqku0c3Lm9VblwuVnaAX7l6VRK6Cu2kZLw5dJVG5dBQklgeu71XK9K7BJeCukqmVKVBJYCvKAKkSoJR1eKiCvShZPydCi8LpKi5yXJBEHFD1Vc5UVSgaGRYLWKU3zk1qhK7xqq2x4LVbM9euKXuCbXlJLqlPKz7FguwBnBcVjgq6iXyOSNP4EfO9vWQfktC+lB4WE8PXXu6rT0ODmMdPzX0LfIHVaNSTjhkfOCVq0DryUVeUgWpZpzJJnp3TWrlqPYtrwVNVRxhIz1agWZacdk10wyASo0wCM+istxt9Pv8AJYXoS3dHmJaWSk+Auo7CpY9V1qk4UWmFMovoXKrDwTkhLrwTKOua2Eue/BJS7Oiren0Z33e55A5HChq1vDCRyAT/AHV1BwDvXIVmtf8Atv8A/E/osq3lNmcqltbMP4fZ7wl8ckjjsfyRuuAsZgZcQIAB6rngQbqLTMZd+RTa5pEvAjCzo1uVXfLBpj7F+5i6nhUPBdUB3RyDx29UH4FaWPqUnjjg8gwePovpFejDDPZZO5txTY4tHUuHeTnnqqlujVe3H8s70lXNTj/cWandfy9Uu6Obx39AP6kn1fXXOfT2iDI+f9kBquoValWmKg2GRE9ifPotFqVqGguLQcYcPLqsu2DWeMrvH0JjKV2drwsmgrWbvdh4w6OnonGkVPgaZzifVUaRtNJhGQ5oP1H68pMb/wB1ULBABzniFoKXo7ZvpmqmoYkzY17wd4XSySHc9lmrK+Y4uaSOMd/OE98OsJaR54V6m5WPgfCzc+DQW9uHDoUtph1GqXf0f1fthX6ZU2EyYlc1x42zMfurbwln6GSksZGGo6gx1MuBgRP2OUDo9YPZIGSEK+mNv4pnp0+Xb/KH0drqJAn4Sep79PRQ7W5LPR29ykmPL/SA5mRM89lZotJ1KGY2j8MdB24Tu3YHNg9ku1G42kM4xIP3wrypjD3odKCi9wj9o+qFtEtaJJH6z+aD8ADdSa44JEOHUEfoitd03dk8Hp38/XKG06g63cHMbun8U9VR/wAR6jdL9JVk36m5/wAGM/icp1aVi64tyW1aLmVAR0AcA45wQGl2D+y97EvHLLqzoVXPBrvJY8DEVG846Dgz5rf+K7and29Sm8YqMcwtPOR+o5+S/FPs78Su0u7qW1bDBVIc4TLHDAPYtcIP0WyqoyrbguezRhX6lT2rlc/2+T9r1y+q0skwcO8xnqltFr6R93AcIwR0CJ9m+psr0Q9rg7gTI7c44J5Wlq2wwfqsxwdqynyUdmfcgrQqgLB6ZRF3S3DBjHKV2VAS4g8IfWab3NgOLemCrsbHGHKHuWYlV7XOBztPxEcEcfJNrVk56QIWatn1aY2uaHMiAevqe5TTw9eyCMgg8H9UmE05cleDTY892ISjUqYDTjomprCJlZ1t4ajnjG0EgEHn+ytSaig7Ix4yfPvbpqRs9Mr1qQHvIaGx/SXvDd0dmyPoD0X4Vua7nuLnEuc4ySTJJPJPmv394n05l1SrW78hzXMg8QRj6HK/FHi/wFdWj3MdTLwCfiYCcdCREtJVrR6iD4eEzU8ZZXBNNpMya6vOYRyCrKFFzjDWlx7NBJ+gWia+StfoX+EfwS576l+5vwtBpUZHJMb3+g/CD3nss57M/YXdXIbXumm3t5BDXYq1M8BvLGHjcc9l+qvDlBtvSbSptDWsAYxgHDQIAVLU6hJbUZmv1UdrrXz2E1NKBblueeFOnTa3aG8nCY1bmGEwT5BZLTK1VpJcySSTP+Oh4WNdtg8owJOMGsI1LWjtxz5r1/ThhOBAlLNCuH53g8yo61UdU+EGGoVJYyMcltyjlDURUA6Qm2n1G7Zme6yv/wCnnNEsccjj/tG6Hblojd9e/wDdBXOW73I6ibzyhl4heA10CSWnb6wsXqAqFkNhrv8Ad2iPmtdUAkycqVezYQfMff7KdTD1VhMOyEpsGtuRv6CJ9P1kRwhtT0xrgdpic4/Xsi7yhInII6/fKE0m6Ja5riXVGdPLv3IX3SLx7kehRiL+lVpu2iXtmWmR8JH6NOfqt3oGqbqTSPOZOQeo8xzCC1CxBpkxMncJ7TwrtPsG7QWmD07J1jjNch5yC+KQ7aHt/E0hw+XSeiurakXNY6OAJ4zjKhqVV8bcGee0dT6pRpum1WEy8upuJPxZ2zwG9gEyME48/BzNno1+w5H068IzUKwaC8cQsrpVA0nOEBzXAEEYjv8AWfyTateDY4cAg8+ipzo92UEme0105nnP1VxqgySI9VndMugYgmOAIj0MI+vVeTgYjPn5qxOn3EouuXGQCfQoi2vC38X3/hA+93NzghRqVNzR3C515WGc2OrsB4/ZKHVzSxktJ9Y/sjNJAIRF3pge0iSCePIpKlGD2y6OA/eNLhxx3TPTnBZ2roR5Y8io2fi6HHY4TfTGkfi5xJU3Ri48MJIN1jTmuAMZ++e6RtotBjr5LT3NwAIjlJb2hJkJWnsaWGRwW0GdjCAuq5ZUAeDtPDunz7dEZTcR6q+6DXtg/ZR7tr56JzwVkDpCs/mADKRVC9jtuY/ZX/y5d3j1THSvl8AZNC+q1zYdBws/71zTtAJ5yOPmeiYadZnqZ7eiMZagZA+qRGUa212Q4iWlZlztxR93bDbPTr6I63EGCBCvq02EQeOxyone8ohcGOtGnfDcj1TmldBwLZEtMHiR5FJddoGi8GmfhcY8wefm3yULfTy925xyeYxPr3V6cVZFSzx/uckOriXNIlYm98NjcSMGZkcz/dbW3pQI7JdqF8xobJ2l3AgyYUUWOLcYnM/LvtC9k9dj3VKANVhJJb/8xs56ge8BMmRn15WTtPZvfv8AwW7nHGJAInvuIwv2LesgB7YPcffVHaPa5kiPvqs/V+M0979Scef24IU8H519n38P1d7w69c2lTwTTY7dUdn8JMbaYPcEnnhfp/QtFbRptpUWBjGNhoaIAA4EBRtgNxb15aekHoUbYahkt4c0x1+4QKCqhsrWEQ3kTturje5r4EcROQmFyagbIElwiTiJ/VWXdXMHk+XZV3VwSNvBwR9/VOznHCIxklZWbtp3OzBQlrub8PM9ec+q7XqVCwZgnlU21yWnbHOUyMW8k7S65YZnqhqtbMdlbq1EkAh0ZE+Y7KunTET1RwxjLGJg1S6zCNo3Y/pKWV6W527jEeqnprYcePJOlCLjk5vI1uGB4h4Dh2OR+aT+IPC9pcN2VqFN4jB2gFvmCMtPondWmcLvuGh3xHjMKvCxweYtr+DspH5H9ongN1pcvp0yalIjdTIlzgD/AEugYeM+oErEV2OadrpBHQ4P+F+/LZlPnYyT5Cf0SXU/CtrXqsrPt6Zewna7aJz3xnK3aPyPCxZBvC7z3/sKlGDXHDPyP4Vt64LXvp1adIEF1Y037WtBySYgNxyv214Ar0zb0xTcHBozHQqTbRm0tLGlpEFpAgjsRHCrtKTKJ/02hgOMCB9BwsTyvk/6+Kjtxjrn/qNvulZUoN5waYFTplKrfUfmjqNwCvOSrlEzpQYUpBQDl1pSmA1gmvSvBeKg4kpKuVIFDgkkF0qG5d3KGjiQXJXty8FBOT0roUXFelTg4lK4oyuFy5IgkuFyjuXJUnE9y9uQ9a4A6oSvf9lQ1Wvrp4Y2FLkMS9VuqpOy7ccfujLV+Vk2+c+kOWlDRJVFap0TQUMYSi/tHHgT+SyNT5a2XRbq0sQuy29cp1ZBvRZ6zsKjeQnentI5CyLNVKXZY9NfA3aSoOpEq+mrAEuHueQtvALStY80UwLpK9KetqeTkiD1GVNxVLweipXScZZiGv3I1KZXDR3DKmxXNCt0aia5QmVSYkvNH6hAf+mO8lqSEFUiVsU+etrWGV56SJn3WLx0UH25HIWoYwKx9Bp6LTq/IM9ory0mejHuC40rQ19NBKoqaQBwVpVeYql2IenaE25ecUVc2BHT6IOoI5WhVfCz9LFOLRY0qUqgFS3p2AclwKluVAepB6BonJdK8qg9e94oJTLNyg8qJcoOehaCTPOKpqOVjlS9LaGJlNRB12ox6oqNS5QyOi8Cm5oJbcW60FSmhK1FU7KWWoWYZnKtGEPUYntxbJfWtlXdbLsLExU5q2nhXUJYGuORgGeQP7LJ1qaHe4jIme4Uwk4sa0muD6hSpzlH0G4hYDw14gIIbUODw49DjB79VvLWrIV2qSYt5XZypRAUqRB4U6okQqKDIT9kc9HejF8k61HsoPtx80U0IQ1fiQPTQbzgSvH1ye5opdTyhtQttwhHuQr35KW9HDngRLxVbzwJX24wAJ/OED4htTsImAQRjstBbUwJI9Up1lm87ePv9VmW+NioP9zOfg1hmU8JaAbYEbi9rjuEjImMY9E7cMyZgJ5Z2wa0AfUofVqm1vrMKlHxEYQ5Ki8HGuGPgxfinXDt208u8+OVbptoSxpeM8wqtdsWwXdeSPLr6IKprW8NZSyXQ2B06c9PmvO3pV2Pc/4RhTpcJtt5+kKfadRYWNA/9wEFkRP/AEvWdd5th/pud8OJBBJ49YW10/wlTkVH/G8f7sx6JzUt2gQBxwoWilY3J4XHRW9CeZTbxn4PiWgeKarSKTG7ugEmRnr1AElT8Z6XXIFV5EY/DOOp+crYXmm0xeB4DQ4sAIjrPPzE/RN/G1EG2qf+B9JhUZaGSi2310Vo1udclKXRjNCt3D3dYj4Y6ekZ+a+kWFQNDXDg9vNZPwi5jrdgBB+GD5HI+qi7xGKB92/jocyAErTRVCbfTLdFsKoJyZs9Qum8yPv90r1Sh71o+LEdDH2UjsNVbWDiMtaY+aP0lhBjo448pT3erOPhhu1WPjof6LtFNrSZc3GeSO/mm93YbmyOnZLbnTdw+Exjn74TPRL47dr8OGD29fVaFMeMSL1U0vawzS78hsHJHJ/v5pVrmpgvYG5M/LPdc1O+aw7ifh6j9/NUDbVIcyCnTteNkWTOzPtGguDuYHgegBhM32u7OB5dCs5c2bwATODI6/YTrTdRx8Yj76JtM+cSQcGm8MF1S1AEHHp+UL8j/wAT/gB9Kp/OsbgmKseX4X/sfkv194quA2mXHMceZ6LGVbJmo0SyoyGlrmOYYM9+OR1T46iNVqXz/wBixTf6U/8A3ow38O1u6nb0qzXFwqNbIafhBgfR4yCvvtnXDm8r5BdsqaVaClaWorCmcM3bXGSSTJklyWXftMvRaVnHTqtO4j/SY13vGunguLctgZ+SHTRUZNfv/wBRdeFlL7/6n0rVdZZSuKbMgPJB4gGMSmtZ/J6dF+JdY8Qa9eHaaNcODg6WU3NIIMj4j+EcL6INd8T3FkLQ2mx5gfzYqNZU2juA4gP4kiPRWv6bnMmv9S0tJKKzNr/U/TT7hjWgvc1oP+4gZ7Z5d5L5+PHdtXMWTm1qgeGubJaWySM46EH8lh7P2ZanqLKLdVvIpU9s0KLdpeWCAX1Afif3I79F9I0XwnZ2DWMoUwyOoEknmXOOSfNLtrjGOUxVyio8Pkeik94AfI+HLQfuVbbaftadhLZn79UTauPODIhFWRBHPUqqluZUcNzM1U0+DM/EM+qU6hoorHIbnrAk/Xla/Wbb4SRykoplrmlx5w0eZXShh8iZccGaZ7NrR346FKp/5Mb/AGgpvovge1oZpUKNM92saP2Wv06njP1QF88irsYcwJViMVFZLS9sS3b0Oe3ZSqWTYkRIyhhegODDkgZ+f7oirehrTPb/AKUqUfk7j5F775hxI8/vuibW3asBe6PXc7e10HdMDt25Wq0q4qAN3dhPqqvr7pcorUycm8oM117aY3zxiEs95uh3DVHxZQdUb5AgwOp/dCU7GqGAT8km9vdwhjzu64NFTqCP08wsv4+ujSY19PD5xGfsIi0J3bCTPXy/wu6zaAt7z+SizM62o8M6xOUXtFPhbVy/FWQ/JnoRjhaV9y2D8QkeYn6JJQs5AxgBZzxhdBmB+I4H39VVqtnp627XkdGz0oZZt9F1hlZkg/FwWuEFpjqD27jlJq9cUrhtQyGEFjnTiTxPYT1RVHTWiRG3z690Nq2mio2C7cCMSfX6r9A145X2byXIytLnLmEgjoP+JyM9fVTume6yB8B/Kf2WKp3NagGuI3tYYa7+preNsf1tiCtrSv21WcyCOOInpClwcWFJYBqzg8nacN2jyz1J6eiKFoCNskGMdv8ApA6JTb7upTJh0mR1j+kjrjiUbolUloa45b8J9BgfNc7MdBxOMpAA+v8A2pV6DS0zEI+tZyCRz2++qz1S8LSaZEEie3/aKt7+jgmro4IDhyeucgcAoq1ouENP1XbK6BpjMkQD5JuaG4COeiCy6S4kFkAqaeDmBwVl3acWFzmzJMkfl9Fqal7tdsOCR9x5oaqfjI8vqjotnHsh8g+j3GexTG4u4IHU9F62smkSMFVahYvIJEHtzMoJShOZ2SwMk49UVaAEwRlINGv3BxFQQRj1801vapADgYg/UIbINPaRuD7izDv6i0jiPvKRGrUY8h8R/SQeR6cymFLVJIj54/NVa5be8AiQRwVFWYvbPpkZI3g3Q4cr1nTI5Sy2pvZ1Lo7pX449odtZUi+uXB/9LGxveezRPHnwJTbI7Y8dHZNZd0uDz0KhSqsP9TQR0kfuV+PvHXttv7suayobeieGUSWujH4qg+Jx9IGeFk/Drb27q+7oGtVqQXECo6doiSSXDGR9VkvylKlsTbf7HbX2fv8AtmSBB+/JA6y2ozI4PXt6/mvx7T1DW9K21Hm7oMmB7wvfRJPQySwE/Ir9E+xz2r0tUpGjWAZdNb8bOlQTG+lJnbxLTlpPUQVdh3ujyvlfK/sCnk1txeuDZkE+SL0+4c8ZEef+EopWYa85JAOJz/0tBY0exCsXbIx4/wBScFd1YB2ImM+iVsf8UcFvKcX1m8Nc5rjujgLLW9+XH4h8fUdR6+a7TpzT5OT4NPaXQAMwq9ds6dan0kcEcgpFRouJ5IE/9J5p9sG90Flare5PkFgOnWAEA/EO/X/paC0smD+ySscN7g14x07E5IPkitKY8kkkAD1yEN26SzkFsWXFtUbVcAdzS6WEnIEfh8wMpnSa4BxH4jmT3VtxcU37drhLHGYOcAggicFB1tQglvJ7eX7Lk5TSWASqjbPAL3EF0T5A/L+lUadcQ4mofiPHbjp5coe71R0OYAZBjjgf9KVk0OguyenkrKqe17hsFwM9Tvxj8vvsqQCM4Khc1GBw++yor7oPEdEMIJJJDMcHqt6HCemfqqLW4Lp/IIC9udrSAIXfDN7TccnM/wDUq36OK3LBHwOf5fuvUNMzIcQZ65Cr1W5OdsTwFC11rY0e8BEYJg/qq/v25QrITVZUEy/0xhSsHuI+PJjn9MKbCKpMHaCME9eqC1GuWFoeWn4hBaYn/MwlZz7fkJji0ZkE4n+n9Pmi6TvyKV2r3ggkZ8jMT+6cN4H1Va3hi+j1ze7fv7wo1a/w7j6q59EO5Qeo6a6MHA6eSXDZwiQvTngjcjKdbKzum7m4mR2KeUnYQ3V4ZzXA2trscFGtWT/mMpnY38c8dSqduna5QqdQ7BUwqWPkSFMOVNorOOCYXFwuXpUHEpXpXlyVxJILu5RBUZUYOaJEr0qMrhUkEpXJVdSqByhn3gHCp3a6qrtjY1SYWXgKBek91ck9VOk4xysLWeZb4rRZr0/2E3TRzhLLi5b3V7Gbu6rutNI5WBddOXukXIxSAbSv8USnVC8I6BZ7cGGYJ9Ammn1N8QD9FnSukyyq0h9bakTzhF2lQucg3aUYnM+i7o7Xh2fRVrLZx7GKtPo1bKOFRUaGoik/CB1SrAlUZ6jLChXzhjCi9ENKz+n6iTyITOjeA4VnT3bQZwwE1Hwqal0ArKgkJfU04zhyie/dldHQ245DqdSRK4DlQtWQIK84wUfrqK5EuDbLi1Sa5QZVBUiUK1GeYhKGD1SpHKX1LeTIKhcVSTCNp01Mbs9nSjjoGotMozae681ishM9Z/5QFDPZB5MIOlUJMI17kJGZUf1UvhhqtYL20kLd6e13TKLpVFeFe0uvshLKYidEWZ12knol9zbubyFqLqptzCpaQ8cLf035DOMsT5RUlo8oy4K8HJ5caMDwk13bFhyvS6XyVWo4iynOmUDjXL25Uhy8Xq7gTktDlxxVG9dD12A4stLlW5R3LhKjAeTxCg4LsrhQYDjLJS9qpqMRLlwsQutMYrBdVooOtbJy+mh6tNInTksRtM9c26ArW601a3QdW0SJ04LNd3JmqlJOtG8Tvpw2oNzRiR+ID0/qAVdxZoCtapKUodFzepcH0S01Rj27muB+f2QiqFWcr5O+kRwSO8Ej9E08O+ITR+B8uZODyW/X+lPhqH8hKGD6YxyFSpmu0y2Q8R5kIfTtfp1HFrXg+is+tEJSa4waGcIInJXn3GEPQrCTlFuRMWd1B+0Y64S7+XI+LlFXLgXRPCg904CTNpjlNJYOi4HyHKBvqfvB2A+qhefCCJQtvcOnbwFXm88MTdUpR4FWtaa2IBMnzKB8L+HG29RzgSd/M9DzjstqQ1uYHH1/yhLi0bVyP/xWTq/HVtqeOUeR8hpK87l2i0XQOGlXOYA0/mktrYOpVSJLhyPn09E/pWe4S76KhBfBgSy85EGq2bHua4ABwEbusduciUi8b0K4oOa0b9wgRyOxj0nhfQm6c3twl97TAe0FBdUpRa+ynZUkn8ZPlnhPwbct21N20O/EwZMefQHKA9puk1aVRr5mmcT1BPfuF9kpVRwB1+SA8S+HRcU9pMZBCyp6CPpuMeytZpo+lthyz5dYaBWFP4CWh4BmR+0+S2PhYb6QDgQ5vwnPUdR3nlNbXTTShhEgCAgtT3UqlNzfwuBBB4xx81Tr0PpvcyKcUpPn6aNDod0W4dmep8v3RGqVYEtgdTwUjuLyWS3B/dAN1UOpneQ0gHBOSrcr1BYZoq9JYCn3LKzTBDnNw7yPbzR2k7qTQAJH6fRINM0wtHvGDDzLhn4j6LZ6YWvaOh/2k5Hqho3Te59h6eTbzLsbWDtzc5Hr9+Sp1KWguDZj8kI5hZO3gyTlAHVt4cyecATP1Wm5qK57LTsWMPsZOAe34s5HmMqr/wBIbMtwfLCXaTbuaS0mcymQ1GHcR3SYtPlh17XzI43T5adwkzyu3TWUmSW8DgZ9MDujbi4+EEZyFy4pB+ewTnjHtHLj9JgrPUi934S0yQAfn+UQt5pNqNokZjPqs3S00urHGBwn9rdFmDwAlabdn3MiucnncNH0oBIGUnv7NpBJPlyjq2rs2GD8UccFJaVdpGTBceOyt3OIE5JrB6lpbtvwuPHHRE6PTcwGemU4sAA2Ej8QV9pLQYDuSlqpRW4hw2LJffsdUHMDrCV6hpE7SSfhIjr/ANoy1uQdrWn1KO1GsAwgZ+Ej5qUoz5YLjFrIDXvy1obIkCCev/ar02hJ3zkpdo1RwaRUbJEw7v29EZpdwQDuaR/2o3ZYMZ5xk5fUBSmoTIGZ6jp80PdXAqNBmW4Pb0UtbPvm7OG9fNA09A+CA5w7eSXZN54XBzk28R6NFYxGI4SLxdfmlsLRMuAI8up+Sstar6Y+LgYnuhdUuN5gwRI+/JBOa9P9x8v04XZBmozlz4A6H76I+3ug+CHcDOVU7T6bm8Dy+n/Sy3ioVKWw0gTJG4D/AGpTscVuYGZVrL5QZrtRzam5pknBHkOF621GoWkuaD05SytcP2ztzHJ4EqFXV9rYc4AGZ7Y/uq6nznOCFZHLyXXGqVNpEED81hK1tUNbc4kicJ3d+JKfDZdPJAXLau157TmCqWrshY1HcUrJwuaSfTPqDLunXG5hExzPP7pFbVC2v7p8lrxLCMQR+JvzyR6LM6LXq2rnOpCab3Dc10kDHLf9pPC0FzdiqA/aWEfEO4Pl3X6Ihxwj2e1DurpjSDtEweD17fsqqOmMPESORwQgdH8UZh+0Hh09QOo7HyTjVaLKgLmFvHLT99giUpZwwXyZfXLWo1wfS/8AcbME8R2PG5pQtvr7qbw+pTLRAFQDI9QBkGYx5J5ptbfW21MFrQWkSQ4HkuxAM/qjKunNfvHX8v8AKa5x6kSuAyw1APbvDpb0Inj9iEh8WajTpmnUcNw3gE9g7E/LBRGk6Y3cWhxZ1wTnvjuo6zp4dLCN2Ov5H1RVKKkFkb6a1jgeIIwe67QvtjtpJxHX9Ej0ijUZ8O6RGAfpg/mu3lBznhxMOHBK70k28vgjJqdSt2VBk56dwskb/wB1Xa13ERunzTy2a+IMO8+Eu1HSG1Oee/XCjTpRzGT4IbY5qVCPjYYB5B4XLDUdzZPQ9P8AKzjqb2Rn4eoCa6TsI7FdOiMY57CS+wbX7YuIewkOHfg+RXaVSq2NwlpGY5b/AHCeVKIghUUmS2exMqFd7cEPg7Y0gSDCMvDHCjpls12QfNd1m3O0mJIGO6rOSc8EZFWo1gBu4AmT6df1X4n9r/i119eVasn3YOyk3o2m3AgdC4y4+o7L9hX+oNfb1mOgO2PbEwZLTx6yvwje0yDBHEj5hUvNOyGneOs4Ch3yUL7X/DJZ2dV1elVBNwRuYfjbFJu3cW1Gke7fuOc8AL4mURYXr6Z3U3uY6C2WktMOEOEj+kicLyelv9Ge7Ay2G+OD7B7efHLXsNja3VS4t9+6q2s3c6nUpGGtp1iGuq0zBmQ78I+IrIexnWTQv7V4Mf6rWO82v+Eg9xkfRYcrXex3TDX1C1pgHNVrsdAyXk+X4eVq+L1s3rVL4fDX7AOtKGD9u3oBdA65H336L1pf7CGvx59/NItXpVKdaQdzIAjq2OM9QYRIo1KsEjI7H8vIL2XpLasvgE1DtQBGDKTOsWtdvcI3HJhFWDIEEEHpj+yF8R3+xsVAQCYBiYniVXrW2W2PyQhrRqQOBHdMKF23qB9Fm/5je1opmYP5Rwe0o+1tHls4B85j8kqytfIMmDW+nUxVc4Nw4zAM59Oi0NtRaODPkvneta3Vpio5wa0UiXuILsMYJJECDgFC+zD2gO1Fz3MpOZbsIaKtQjfUf1AY0YYBtMz19UdtM5RznhIhtFnhnwmLF11UAc4V7qpUkmSGk/CBnLRLvPK1Gn3DPxAyT1/T/pMdWuQW7I++6XU9OY2m6R0z5o1Zvj7+wopIBvLxpqkCCYl0dOmVXbWBaS6TEl0dp/8A6Um0h7WudGTuWjp3Q6HlXrIOtbYj4rgS2moU6z3ua4O924sIBxuByP8AyHHyRmrX20fMD6/urrbS6NKkQ2mxglzyGtiXOJcT6kkn5qFW3YaQcc4nP9lCnBtPDx0c3grq1ZYIEz2E/oOVR/JhrZaASfxTg/nwmGg3oDDgTJwPlmO/9kBrF6H03vHQwfKDC5Slu244yKbD6GguP+p7zdj8JESenXlFEtc0MdmYH7deqt0K9aaYgk4iYKS37yLln+0zI81XW+Umn8dHYH9Oy90C0kuH9JPQdvOEn1q2h1MwHQ7g5z09E/NYu88fks7fGo5+xp2x8Qcf0/ZBTuzz/ciSGbW1BB2x5CO3RCs1ar1ERiOoH7ouxrPaAHODjGUZX2uExmOijOHyv7kYyBt1ckw0+vkjqepHqeizVtSLHHbJ+IkjyP6I8ncR0++EUqYP4OwNreoCjmuxhIqLXCescImxuCUiyr6DcXgYNtj3CsfUDRB6ghcoVVkvbTZXNSyebV5Y9kvdAlzqYB3Maf6HHmfJLrhvsUJPGXjJMI7pKJpPCev7azrd0ls/6b+RxO2ehW3BX4q8JeJ7ttRkPc4OIBnOD1BHB557L9XeAde/mKQ3H4wII+Zz6LvMeKlppblyhvkfHSoSkaglelQBXSVhYMUlK7KhuXpXYOJSvEqupVA5QdxqDYwVRv19VPDY+NMpBrnwq3XCz9XUHE4/VQoXrnGOFgX+bcniJahpsLkb1nt5J/skes6o1k/5TYUx1yo17Gk7loKwdRdZY85LtcYpGVoeImlGWmqbjhyp1zTKTQYYAc+S+f09XNOoZw0ec/ss2zUyrfLLCqUlwfc9HqDsmd6ARwsn4Z1lrwI+8Jve3ZhHZqVJcC1Q0wK4oCcJxoIjoEmouLuSmemVIMJMLEhjTfBtLUghD3luENZ1lfe18JF9imsE1cMrY/zVjqc8pda1RKcl4hVIxihkptdC66pdgl9GuQ7hMycoS8ojlROaS4CinNcjaxrSEUCs9a323BTSletPVBXqZN4BlVtDHIC9qK0Xbe646nKKfvBi8CdtZwJiVbRuXTElHtsla60GF0cw6Jk1ItptBg9VYQoNUwoVm/KBxgjK6KiHu6sKpr9yRCcoy4GKvKyGPgrzWBUUGIpoVqDyLlxweaxSXFwlOclEHBVcCVTQAar3uVLqUoVc/gPaX+8lD39uHiD9VO1bCJhW9LrZwluTEWVJmNvbMt6ff90E4FbW4oTyEFc2IMwF7TSfkiklGaM2zRtcoycrwcib+zLTwgnlemqujZHdFlN5i8E5XiVSXLu9GcmWOK8HKrcvSuO3FjnL0qDVJQEmdC6Wri6CoaCUmit9JUVKCLleCjahkZiyrQQtW0TtzFU6klSqTLEbmZ6tYJbd2C17qCHr2oSJVFqvUNHz67sSOiVVqbmHc0lp8jC+hXtjKzepWKqWwaNOjUxfYhHie5YCN+7/AMhP5ghPfBPiwu3MquAfMg8Ag+XdZu/tuUmuKEKn60k+zQahJH2ileZJBRttVgZXxHR9bq0HTLnU+rSTI8wf2X1Lw9qza7Q5hkfp5eqs1XbilfVtWRjfx+IqGl/E4l3H5qVeegOUZpNg4Az/ANJ6TbKsrFtDGUmmML1djWgmIjsu3L3tAxKB1euQ3b1OPL7/ALpWqvjCOGed1t8YrDKbd4cdw9Amp3SPJU2VINY0R9/9plTGFiJpvJ5yySOApXdUQ9x44hN3tSltKHHrlTLDKdvZO30sNE9URTxgqymSuVvz6JLgsHddFN0AV8t9pmiahVLP5bZsaXSS7aQIxHdfRLZzpO/5FMKQBCRKtS4ENRt7Pl+g1qwp7K9Pa9uHEZaexnzH6KGraW2rBBAdmD+36r6Tf2YIOP8AK+aal7ujWqPeCQYAAkgR1PYefCytdpklh9FfUS9OKjLlGl0C9btbTMB4ER3jEgoyta/FuadsHolek1GVQHtgg5+/NM6jCG4JEc8I6YvaWK9Q3FfXwD3/AIjhwoyNxHz9fVJLXTKheagcQfv6JZb6eTcueSC0kAHqPTuFttO09zODubyR5pCcrn7vh8B0TlfzJdPgO0R4Azz1lGX1IECIQTAHdIhJPEWpmi5jQ78ZgNxM/wBloKahHno0p3RjHkYXNdoOzcWz8h8kfaXmwbT8RHXy/uslqdu6tG/gZHl6QrbGq+iGz8Q6dwPNVvXcZC46h5NFb3vxE/hTexeHgEwcffzS3TqbXNHdU6r/AKTS9vI5HQwr1eUssfvxy+jmvHYTUAny++qF0q6ZXyBBHIPIUqeptqtEwHRxKv0uzG6QI8+/90Em5S46FKzMsx6Dq1fY0Z6xMroYHMM5I6qvU7NsS7LRk/3S6ndtDYYSR5Jrk1wxkrUnyC6RqDS9wGC09evp802uKp2kkR5FK32THvkYgZPX5wURf2jiIB84SoNpYYlWSUcMa2rgWwQFndf1A0nBrRIOSeqLsquYQ2sU5cCfSUU7PaROxyh7Sv8AmyGFw5OQEz0+/ls+Sn/KtLfOOiz2qas2gQ18NBPPqcD1KW5bHlhKfprdJjbX3bhA6kf3+SS1dKeAcuTX3ocz3nG0SPRENuGuAMjhROCseWNxveciGxvHNEE9+eRH7L3/ALh54HXhLvE9majgWGNsj1U9PoPDM9R+yQ3LO3HAMJty2voIc9oDg6OyxOvUqYY4njJ569EdqFcncxg2meTn5rIa9RfIE7jzPdUNXZF4WP7mdr9XiO3H7ZG3hi2BGQMmE/faACYHqs54ZqvbkjrwnV1qfw8cLK9WEcp9g6CdcavcQ9n3iVt1Q37S0kw9jxDmuEZGcsOSO/yK2luwMByXNOR5enmvzJp9+ad5LDt3Nj4SRHWIBgjHBX0jwP7Qy6q6hVLWu/pOdr+8z+B4X6b2NPK67PptmlaXBt2VKVVz2bSCBmWkDkxmI/6Rmm6S6k/4HFoOe4PkRxPWAqaToduAzGRPwu7ZH5JloGsU5LXw3/yPB/8A7Ubs+im0znuqlN3vWkOHVpH4h+xHRF3eu02w6S09WuaZP0n6hMLzTsbmGOvcFJntBeBUAaf93Qz+hQpqXIK5Q8s61KsA9pE/KR6icJXrNM0zvBnuD1Hkek/qvUtLa0zx5gxz5jmUTcWuIORlEnjoHBTpt4KjQ4GQCAREFvcR804uLFr28LIW1B9IuNMkEnLTkEenb80z07VKzTuLdzf+MyPkVEs9onoOuGPpN4L/AE7fupWmqU8SY5BBwZ9Dz8kZS1Vj4GciYI48j5pL4htQ4FzB8QyD99EcGp8SI7GtxTAcD/S9uO0/9LlPTm8jKRWWqObTh1MyO/E+X+1c0i/qw7BBDuCTgdAD2RKE8cMnLGV7ppYfeNc4d2zII9D1/shtCv8A8THPkGTB5HdMWl5A3YB6DOUtp6SJcSMzM/fThMhhxakd2Q03WA1z2tIO0iYMjr26+Sa3Gsl7RsBJ6pRR01oy1o8wMH/PVMrOBI4/dTZCv9SWWR0Y/wAU+HG1txeJkQfyP14+i/PPtN9mr7cmpSDqlMzIAJczzwPjp+fI8+V+rxesc7aBJmDjjzPdAazp7eSJaescT+yZZYrIenNZTOyfg2pSgwobV+vtW9mdnXkupNJ6Ob8J+rYJCRj2D2ZdO+sB2Dmx8iWkx815j/8AHFKTxPC/gb6nB+Y7a2c4gBpJJgAAknyAGSV+ov4cPZu+0/8Ai67dteo0tpsOXUmHku7VHYx0GOZC1/g32bWdoQWUml4OKr/jqD/xJHwdvhhb+wtYiAtDTeNp0mXF5f2/+wDk2AXdHa+TmMyeoJV9J+2PhIB+n1V+tWji08dCJ8uiW2eruqAbmFpyD2HTHWPkrybnFHZH1C5aRyPXCX6lSNQbHcTzHMIOhphaQfxdcDum9zTO2eI6j7wl4jB5TAb4ArIBhxHEH1H2PojXOe5h7RjB+4SGlfBr/dOJ/DuD85Mnr16cotmoPAcN2OGk8kd0Uq5Nkdina+qx1IMLTO1z3RtLT+KJncCMfNT0Lw6y1p7acMYJhowAOeOnqmWnXPxFscf1Dg+vmu+I6TXNbJIkwQDEyP8ApP3NS2/DCUciypUL/wADviESekI+u2oaZDXDd/y488cpJIo4BwcD77q+pqLtpx05VmVTeNvRYUULdC047nOqOH4jAbxE49Snt7o0EPpOIjLm9COv/wBSyui6k6mdjzuc55DcfOPOP2Wyt6x2yQfRM1XqRlnIHCAtRv8A4IOJx/j1VNOoDRhpnE8q6tpPvch22OARIz+gXaOltaG0mkB3Uz9fklbq0kv3ywWxBplZxJ2gQDHP3OZQ5rFlU0zhr5wcAny7ynlPw+LYucHOeDnPT6fP6q63qUzUacOj8MgYP7Jjti+VygWL/CAqt3MIls4kwB9fvC54mtXBzXZbtcCSM4JznoPNbi5tmubIwR2SqvWAa5jsmCPkf1VaGo3S3Jf2JyAaLdkPiRxM84PGZRGtW7nfEww7vP35qel27XMAbAIxgdu6p1C4dTInr9yobTnlEogNKrUvjkOBGc8dcJnYudiRz1/wq6WrTh3Bx+X6rm4h3J29Epzk1iWCcBD2FskAoPU7mBugAf1Jvb3IPOVRrOmiow7cHPofI9whjZiXuOwA6beAxP4T1TWlUEQFi9z6ctc0iMeXqqbTxxbtqe5dcUxUaRuYXAOz08z5BMnRKTzFZD2pn0GiUazIg8HBHks3a6qHZbBHdU+MfGFKzoGs8l3RrWwXOceAOw7lVfQnOSjFcsJVNywj5j7SfDtOyvKdSmSyhc7gWf0sqNG6R0AMHHQrf+xNzvevaThrBt82knnzHmvhntE8cVdQdTLqYp06W6GSTLnRJJx0EY4kr7f/AA76xSrsf8O2qxrWuA4AzhvZvXPEhbHk6ba9Cnby+n8mtrq5/wBJmfZ9fJXVELpdC8PKWDx+G2dChcuI4ElLb3VwMBV22rA8lef8h5mEPZHsvVaRvllzaL3n4jAXv5NrOsomnXBEjlD1g53ReVvv3vc+WXoRxwK9WeYxCG0a3cTuKt1iiQM/klNpfBvBIPmfuVnO3EsseoZRra5ER18lRTYklHVXT3RtTUoEwod0XywvTaPX1tuMHrKstPB1J+TtPyz+iXWd+aj481ttMZAQKdcvg57oozlbwqKeWOjy++iorNfxJPdarVH4WZNQkpFko54GwzgbaDpLjBJWgp6IOZP3+yD0CpjlaZjpCctuBUm8iw0towUJVqFFam2EkfXyqM5LI2MRpbRKd0WYWatHJ/YVCcJsZQxyKnknUoiOUC6n0RuoAgSEBYO3E+Sr2OGRkMpZJjT56KVbT8JnTbC69KbijstmboEh0FPbV6EvLUchcp3QGD0VP12mP9PcuBsCupbQvZR4crtVykuRMoOJGo5dY9D1myVOm2EiLalknCwTqUw7lRNuBwrGFTJToqMiNzRVTapyuwoVDCXPMFkjsmCq65VdKuCrSUPrbohbcMpIV1ELkKTF0J4Z0nkkGrpK5K85WVL6APSqzTUg1SR13NcMhoFu7MPEELKarpjmdMLbAKFzTDhBXovGeYnp5Y7RTv0ymsnzgqJK0mpaRJloSa9097OR817zTeRpvSafJlypcQWV0KBC61XhRY1SaqlJpUE5LV5RC7K4LJIBSCiCugoWTk8QoEKZKgSuCyyCqrK1ypqFKkWIvINVSjUqMym1QpbeO5VO5lqqTTMdqdFI7mitNqbUnuGrJmuTapnlGduaK+hey+x2Ud3+9xPyWOqW0mO+F9X0ey93QYzna0Cfv9U3TQywtTZ7VFltK4h6bW9cu/CCB1JQOlW3Xk/X5ffdH3VUgGFpxW1ZZlXyikG1jhZS8G+oSQYGAPNNrfUQcHnzQ9CkS6YxP1WLq9UruEjyeu1HqcIOtbXA5RopwFyiMKFerAyVWwkZNrBq95BhTtgqhTDjuKNbC6EcsXGDfLLNiAvXwUXXBHCFaCTkIpQOtWeEcfS3BKLy6dQG5/4AenPknpbCX61Q3tj5pE44RVvg1HK7IWOo+8buiAUl1BtN9QtIHQmUxtqgiIAjkK+vZtImBu7/AH0VWz3RwxK3WRWcfuJ7Lw81rtzJHdo/D9O/ohfFDKxbtpRJEZ++FqbRpAghKteqtYR/y4SZVJx44GSoioYXBj7OkWMbvad4w4tyJHUdYWr8KXO4GDIBj0RtvZBzePspPXoutqktBLHZc391XWn2POR1UZU4b6NJcUARjB7/AHyvn974dP8AMmo9xcJGz/iRzH5ra2l+HZE+izutV6xqgMaIBE7uxPSPVHfGMksjdTtkk39/AVd6Y8gFrjIyB0XLW5BJa4QQMhNNPvOA7Dux4S/W7mm2pIiSOglCq44yBY9i3r/cB1C+ewt9y3eB+Ly8h0J5U9S1IkDcCC7+k8qjw5ct3O3FoO6Q2e/z6pzq2nMqx0PII5H90SbcfaKjZKcXJP8AsC21g14BiPyKtv8AWBbCahhkgT6rJ6h4jq2z/dbd7v6Y6/5TB+k1Ltg/mCWAwQxvTsSe6Wr+4w/V/sV4av4rXuNdT1KnWpnY4Oa4dMoOw0rbmT6HhI9B08WzvdZjp555/RakVsJ6k5LM1yXKrHZzPszdKwfRquIcXNfnPIPYJxSvemM8FZHx1qtyHMdRpksyCYM7j+gTDRqVw4AvgY4+/mhi0m1EVXftnsimHahSqgl7IGeFe2magbv+H0VGo16lNpMbuuEuufEjWtAMhxzEZhS+ezrNTXVJ7m1/JoBbOHDp8kg1u1Y4w/knEpvZ6rvAMcoHWtNNUtdujaZhdNKUcFqU1KGY8nNOaSNhHwxHy6fJQurIU2kyRjAQbKVZlSdwjjj9Udctc4fFkIY4xgZVPMeuRJaX5fw0iPKJVmoaoWt/CZXLS5aHOHG0kT98K3Ua7TTdnMFJnJ7WdG1uPfJj76+dulrdxPPb7/sgqtjU3B724d26f2Ct8P1wHkOOTxPz7rYOaHNzkLz8lKxPnnngzK9P/U+5t99GdYwDiUJqdaBJ4T+509u0hhz3n7hKq9pyw8kFUJVSjJZX+hdlppuOxHwDW/DZpNL31ganPBz6GZLuF3Q6rmUjVmXMfOYO4QJBPMZP0Wl8W6I1wJBfUqATAgiO58z+yy1vUc4e4ZTLnEEbQJO7qY9JX68rr3Q7PqMYxXuT+P8AU+4eDPEz2taKjd1NzQQP6mSOh6iei1lkym8lwcCwgjI4nvP0Xwm88R16FtTY9mys0AAmPwtONw6OLQB/9PRMfC/iC9cGVqTdlPmruzTqBpAgA5E8giMql/RzznpFedef5xk+96RSqMaQx5Mf0nIjpE8YRd9Q3j4jn0jP7LLaNrbXsa+m7a48jghxiWpzb+Kqbn+5dTqOqBoLiKb/AHcHj442yYOJlJw1koyjJMttriowFhAqDBGSC0dp69FdRvqsmWgt+cg+fQ/JV0v9N+4AlrhBHMR+nKJZrtISHAjt8JI+ccKc/QOCOpvkB7Ttc3iRg+Xm1V6Vrbd8Pb7sHqct3R0PQevdMzRpVWbmkEeRP2Ej1qxLRIyJGImV0Ypo5GupWzHAuBAJ6gyFReWbwdzSDHT/ACslpD2kgSWT14lPzTeGxv3DtKXhxfZDRVZ3HvHPxEcgZ+wrqFJrzg7XDBHftjqldGkw1QILXZ4JEj5dFG80sOOSQ6cGYI803OGdhoa6xTqhkMeARmS2T6ciEN4Yvy+RUMP42n9Qr7ek6Ic4nHPX69Uqv7JgggfESeueUUZZjgkbm/DH7SAJMA/eQUwqOaT3x+SzlppYc74pkHzn6TwtJa2BAxGMBDPavnk5oQ3rHB8sbjq08meo7KRdUd8Mbe4JGf7Jm6uWB5qMMjiMhw6R5hAvuWOG5jg4icSAR5R0KbGzK6IaOadQbwRHqP06EK/cGuPwmAJkCR/hGaZqVMjkecnP06I2tcNLfhE+iXK156JSM14e1ptQua+GvBd8LjBicHgSIRbfELWPcwl3wmJDZH5BAXtqwPDyB8Zgkfl6HlNtGYwAhwEgwT38/NHOMcZx/Y5h7b4VWgiQ36E/XhfPbf2macbgW/vm7zVfSja8DexxGXbdoBIxJzOJX0Ztowccdpwsb4l8M2b6hrOpUy5owdrckZ+Z4yh0/p5cecAPJXrfjV9Cq2hStqt252f9HbDGyPxveWtY/OGk5hONMde1XudVbTo0v6aYO+oR3qO/AwzOGz6oLTYa0GmM87eITKheViY+SZZWl+lL+WRtbPV6YDiQ0Ed+I/JLLoB7suy0QAOh/f5pneW5255JyZ6dktt7QMcSANuJ/VNqxjI2MQrS2VMfh+/NDeLKFQbSIJng47yQesJhbXv+0E/LH16IXxA15AcQfhyI9F1bfqpvAxIXWI43cjuOE0ruDsAAk8Dulj6HvAHMOSI7Af55Q9tTdQqsLg57eN3+2fLsrM4qXOeV8BOQZp+nCg9znNGSXNPMYggFF2F8Kgc4FsNJBB5nyTy/2vYOsj9f0XzejZut6tZoqRTf/qMBj4SZDgDyQYDv/qSan6+XL9QH8ml065y88w7vx8knutTLbhnYhx6dI7+qo0ujWBc6GlpzPfp8+Et8Xjb/AKjhta0Sak4ZPVx/pb3KsxqW5r9sHds3j7yeoyB8/v8AZYLxJdvo1GvawuG4EjgQTB9Y5R/hvUHVSWgtO0SHAjPHUdIzKs17T61SdgaS3oTGOyVXBVyxIKK55NXomrb2cZmDkdeEFrb/AImGYk7T5evf1XzLwHrFwb59tScHMazdVa4EGkeCGmPiyWr6Tq2nPcwtLh5eR7+fRLto9GzDffJEoY6LdGuHNe6mCCBBHfMphf0RVaQ7BiAcT6jsvm+uV69BrnBpcW8up8lo67ervJNvBXtEtbtwY2rFQN/A8bXuPWB/UPRRKiaW+K/uRjBS19xSu6bHbDRgn3m8hxOPh2EQTGZDluqFIOEbhx9+qyXtFsn1KLjRcG1WiWHoHDgHs3+6wmg+2GkwBlyx1Kq0w8BrnNkdRGQDnEfVFKuVsN8F1w8B4++D7dRtPMIq3pOB8lidI9oVjVDXC5pDeYDS8NdPEQSCPRbW0rtc2Q4Ed5BH3/ZUJ71+pEuv6IatY7xiQTiV+Z/ax7Kbu2qVLmm59xSzUdUkCqw9SQCNzR0Lc+WJX6otbhpxIVOstpuY9jyIc0gyQMHB5KfofI2aafHK+UQ6t65PxJbeOL5mGXNUCI5Bx8wfqrrPVq1Yg1qr6hExvcTE8wDgfJAXdm2lc1aQ+JrKj2A4Mta6GmR1iE1/kQ0Ne0HaTtzxugEj6EfVe7Ua/wBcUueevsteJonKXq7uE8NDyx09zmufENb1JAkxIGV9x/hj0io0PqFu0GRGDOcZE5wPoF8/9kngJ9+4Oe9zaIM7ROXN4OcAeY7BfqXw3otO1pNpUxAaI9f7BeR/JPKQhB0Z5ff7Gh53XJw9KIdxyl1/dT8ImVdqdXoEPp9oeSV8j8n5TD2QPOafT/LFdax6uOFG3pt6JrqdAkQFi9SbWpkkA9/ovH6i5Zy0ala4wai2OYnHqnlH4ev91gfDWpFx+NkeZJ/RaKvqAH4RP5JELl2E4ch19bl/QoGp4dBGW9Ey0+4qOjEJyw4kpu2L9zBcmjB19JczIBgJXfXUYM/RfRbloKy/iGwkHaMqndWscD6557Mrot60VMmMr6Vpd2HNx9V80PhW4e4FrI85/ZbDQ9Nr0mw4zHRVa90e0MltY11esY5Wfs7lxPRW6xduAyD9EPoVtUecAfNC+ZBwh7TTaRcRyVqba6ELK2mk1AenyT6hbloymS3Ir8ZJas/CzTq2U31UEjASi0t9xhypuMpPgsQ2pcjPT6oWm09kAFJbDQxy1xCespFrYmYUyjKIubjLoneCWkeSQ2Nba4z3TCvXKW1aImZVaxubyhtUcJpj6hcyrSJQOnMBTIBNhU3+orz4YPXZhI7+3LpgZ6LQOKFrMzhKdccjKrXEQWW9vITujUJCIbTB7KYphS8R6OnPc+SuiERCqa1WNKCN+Xhi2vo8QvSuqNQqZLbyiESlU3TJGFBlZXb0r1dywwtriwC3tiOVex+UUqyxLnHC4Ddm7sk1TCqUmuU1284YDR1z1NpVZapK5CWOQWiwqJC8CuynTlGYJ4FSUF6VMLdvBzWTpYq61uHCCrQV1aVGolFppiZVox2vaP7v4h+H9ElIX0HVbfc0hYCswgkHovofhNa9RViT5RkaqrY+DhKivFclbeCmnyT3LocqwV2VweS4FSBVLSphygnJJxUJXiVGVwSZx5Q9UqdVyFquVaxj6ymu9K7uqirh6U3T1n3T4LtaFuoFKqiPvHJdUKz2zUreET0iiHVWA8T+mV9SfUgAdF878JUN1X/xBP7LdteHOA6K7puI5Bse5jaweD+HhX3dTpyULTqgN2jnKGsqrzMiQOD3/uEzUalRWDD116hwDWdIuJkGJhPW2wEJNp1xl7eTu4To7hkrC3c5SPM22p9BYppZVpyTPcJhUfAlLW1C8yOJUORXcs9hjqIGVYGjopupS1cszATYvDGZS4K3sK8GhWXdWAqLXIym7yFJZwdeEtqcp17lB17dDYsoVfVu6EOr0Y+Icjk+Xn3VVnqIOMSE2qDusRrlk5tbcwiCRI6R1+az7IYMfUylTzFfyjZ0qkhJNVBcctmBhE0wQzrKjZvmJ5Siy5b0l+xV4fv35DxtgwAVX4wvI2AEbj88fsm7qQiYXz/xfQrPrtbSftgSSeMnt164Sr8xhwsg2Wzrrw+TbaT+ETHHTuq79m12/kJBoVas34SQ6OTET8k31Lc+m6HbTGPWOndCm3HotRk5R4TBNS1SngY3GAAiLPT2/iPPK+UeGbpzbosrucS0fCTOTuGQei+sV7mKYjM9uyRRKU8toGlO3Lkuha/w9SNQ1I29i0kflwUyLQBtaScfNLtR1GAGAy4mGo7Sw6A1w+I5M8qzGLz0DDSwTaiv5KLPw21x37fj53dfSZTm3tnNEEcd0ysgAAFa6pOArEKorn5LEdJCK4Rn3kOdJAkYHdHUWGOFc3Rvi3yeuOiJiMLnVydVTKOdwsuaPEj+yjuA8kyuGSEPSth1UOpsh1vPADUqgjb3Qd5Zsgu2gkDsE5urURhAOBCXOrgVbD7SAbGO0Il1PGMFWgjyUw0IYrCG0rjAlq5dnnsoPvQBwvay128bRI6qm3oghLk38BKTT2oy2p2NU1XO3BtPEADn6cFH21vjvhOry3x6JRcVdsHOVRlS4Z+REdLtlnkUaxpG7btGfJcG6lDXB0ccY/RajSm7jx9+SbXFk1wyJ7KxX4SGqhv6Z6Xx/g4zhu6MOJDvI/mmlhpe473fIeSZV9JaSDxGY6FFWXCsaDwK08vc8m7o/B+m90uT4lreninu93IlsHOZAx14lB+GdBpUP9aS+q9sOmJG7Jjjb58rUaz4IfXA3VnMdIO5kD1BHBaiaXhP3UBsvDo3knPy7f5X6CylDG4Z6jSwfN/aVZvqCmG0Krvib8YZuAB5BjPfpC+l2djTDQzaANoERgfLt5Jw21a4FkQBAj9EuvgafBBjMEdPIqJ5sioY6B3+7ORXpFt7p1Sny0v3N6nMfuPyRtzrFSg5riQaUgEdRJj5BZPxPe3bx/oUDPAfvAg94PIHYqnwk65eXUb+kAHCadQbQHGctdtdg8EHH4VE9I0tzwTN8rJ9etNXY8A5HWRED/8Al4V9e4BcCAHN4MZPqO6xVvXNItYWyONw7DjHeITxtSBuaJHlwfXsVTdLT4AnH5HgoNad7DjqPPrj74TN53NwRnAkz/0spR1FjgSZaZI7j5novWtwGnk7esY/L80LixSWRtcFrYa4AZz/ANo+ytWEHaQfR3655QVwBDYLXMOCeZBVA0nY/eyW4ghpwczMd0PfZKO6tYEOa50gDIc05B8/+KJZTe5v4w4Hr1H9l6/qgt2ufBOAEoumVqUBriBPUfQE9k3buRzHen+9pkBxDgOOh+R4PzQ2v0nOgtcGOGWx07z3HRFWGrkth7MAA7hkT+sIfXqzC3Dcx8JGIJ4Pl6eaGCakQiqteV9rZa0u4D2mDjv/AITXStbrEfHTAcBmDj1M9VltEuntYW1dxcPi3cg9vMGICf6HrtKoIfLH9nCDj8vzRTrWOsktsbX10HQHGJ6Yz6d0oGk0/iDTDpnpk8+rgmGoOpOGMkfh5+x/lZjTLKpuc+nULTOQ74gfSePkiqi9vHBKXBpNPsKZEhozz3BH6JnbUoEAxH1WdFk57wfeQW8taYB8z5prS0+BJcfrx5obF9shsSa1Zu9811M8TIOWn5cAqx1MVoFQ7HNM/DLfrn4gh9cpS6RWLGsMiCIcRMz5KmlWNRrXFzXsJmWxOO0cqyq24pnPBobKhTacvLj/AOU/l5obWtP/AKmmAP6ehn9CqaF3T5aCTxkHP1UdZuXmAPhE5gSY8/L+yGFclNYf+pCiDtY2n8TiTuPmY8k207UwfwNPzBCQ29IN+Eu6zzj6dPkraN66YZDk+dO5f+4JwaK8oGoMu2npxj+6zRrVWHYQCAeepCf2THkfGR6BD6rbkfED6/8AaTTJRe14YxI9YX4A+8Im41BpYc9D+iWCu2o2B16j7yr2acNsCfVTKEM5lwzujL+FteLnOpvBa4PcAHCNwnkd1rQWuGeqynjDw48t3teA9oJBGD/novmXhr2svFanSrACm74S88tfxJHVs4nzWl/Sf1EXZV8do54XLPttxdOpSd/wxwcYH7/2XxT2ie05lSvSZRJDadVpqVWkbXNGHNHO9nWfLC1Ptm8QU6drUYHgvqMLW9SdwjHbqfkvzW96v+J0VcouyzvpfAq6x1pJdn7H0nU6dVrQwtIOfhMyOhkfVZL2xeLhaW/uxDn1paJAIaI+IuH9WIjnkL89+EfFlWzqNfTJ25DmE/CQYmOjX8QfJe8aeJn3dY1XnGQxvRrZwO09yk06WpX8yylz+53r4W5Ln6Nf7JvHdOydWFUO2VAC1zQCWuHQjH+mRHHEL7JqXjOnTs3XYeHt2S0N/qJdAbPQzz2X5Nq1kdT8SVTR/li4+63bgzGDM8xMTmOJS9dbpJ6hKTw21nPTBrtlh5NHoHjavbXrr2mGb3l25hnY5ryCW4M9Bnu3qvt/s69q9O+re6qU/dVNu4SQWOiJDTzvkkgRxPZfmFz1K0vXMc17CWuaQ5rhyCOCFa18dNZ+0scMTXOUWfuHVqdJjH1HQ0NaXE44Gfnhfjz/ANec26NywbJqmpsb8Pwl07ewMde+VstY9sD7iwdbPYW13BrHPB+FzJlxjlpIxH/LlfNX1MQh8Jp065uTznjsdqJrjafrfw/4jt7ui2rbndx7xjjJY6BLXifhPn1mQvgPt1j+edDQz/TZIGMy7t/x2fRY3Stbq25LqNR9NxEEtMbh2I4Pz4Qep64+q/dVcXuONzjJMKkp0aC/dKftfC/n9yXP1K8fITdW+0AjIjkdE78K+OLy1BbRrua08sd8bfkHTtPokunS/wCEHnv6Jc8ljiD3WprNTVDbKaThL5+gXFtb4ZS/7n09nth1CAN9Nv8AybT+I+skiPQBJPFWu3d4RUrV3PIbtAnaAPRsT6lZmlchwgkCOEey+EbRlMqWlk81xiXKdsotWy4xx95F9Alrs89PVfRPB2jVbphptHxD4m7sN3YBnB5EfQLMeHtKdWeNoLnuMMZ5+vYL9f8Asa9nwo0mPrNEtbxH4nYknywq/lvJV6Crvn4Lmik9LW5t/q6X/djP2OeGja27DUw7aGx3gAF3oVtLi5hECiTEDAx9+Sp1G0wvhXnvLWX2Skn2Z/Ns3KQvo1txKYNGICydY7X849ey0ul3IIEGfVeP9be+S5KG1DK2twBnlBXdAHoCiqleAgKbyXYSp2p8ARyINVtHM+IALNu1Nzn7QMr6l/ISPiCWX+ht5AAVWynPKY6MsgmgiqACTz0g4TurdYysz/NVKZiUZpV49x+KCPQKPWS9pzhkYFx5S+4rAnlM7uoIWL1K6+PJhROaj2FGvJ9A0VmAmNxSkLO+HrrAWnZkJiuTiLkmmZTV6Y6obSBBwmHiGgeUhsZBGVRlZiRcSe0+gaU6Ubd0MSleg1ePkntyRtKsOeUUnDkzF5cQEBZvBciNUieELasG5VuSyl7TYaY4QjXJFa1ugTqgcKJWZ4EJYYm1QxKXMryU610fDKTW5HZZ8+GXYcxyNtIqJsCs1a1oPzT+lVBCOFuBVsMMjcg8hDs+JEXTsFB2dZVrJ+7gKCe3IcxSBVTjPC9RJQ7pANfJaVXUqQo3VSBKVXlRx4QzyuhlVW4b064Kk8JVZg4TNjkyM8rkicFF8HDRUAiAubEuyrPMQFJ/J5q6olea5dGa/SwcFNxWA5VDLieEVXpAhUMtIXOOB8HDHJexxVrVUCrAUUbl0xTJheC4FGqrO7CygMFi9CrY5WSnQkpcnNYOhSUApBWKpc4BZ1INb0MH4m89uifle5WtodfPTT9rE21Ka5Pm1amQYIghVFbXWdDD8jlZG8tixxBX0bx/k69VFLPJiXUODBwVJQcugrSEkmqbVW0qYKg4moFdUSoCj2UVkHXKMrFBV1VtLVaF107lKLl6Z3pSa6KyL2XqxfcuygqpRVcoN5VVmhWPPBLh7xwPJbjz/utm14aPMLKeBbcFznEccH9VqW0w4547K/R+gj5Bf/Uol89IhPdLq/6YIz+39lmNetRt+ERH55Tfw1WBpz1OD1/Los3USasaZ5rykWnkN09k/FiT1To8JLowjrwYTenUkwq8XhHn5S4JXLfhKotqe0AdETUPToqm1QAR2HVdJi885LKlfoPmoyAENQJcR6/VEXNpIkcqU3gmWcZLaTJC5bsjCttm4USco84O/cucUOXSrgVBjITBmeRPqlEwk2oWpIkDI/PyWpvqcpWWdEm+BS1emTeRNa3OIPdXPpYkcqGr2wY0vHqULZag1wwZVRxeCtCtrhobUqmPOFiL+7b70jcA7vIyAThNdbv3Bp2ckGPJYuhbkCXkOeT2/JU9RZJJJIfPT2SS2o2ekEcDJTcEQk+iN2tGBJ5++60llRaB691raOlbU2ew0Pj1XBOa5FTNEplwqOaOOICPoBhgAAD8kXdmRDYlRs7Es5z6LRjRHPCNCGhrx0gi30emTuc0Ejh0DHoi7i1Yeg9eq5SuJMBWahW2sz3hW/Sgo9AW6OEFnCFllRyZBnpMwrrLBIPPX7++EZRqcY+qpun7STGMLFtpfaR522vHIY0YVVemCEM27BMIktkII8orN7gajlRqAHopV6RbEcdVexgUAbRa+hPkuOshGPzTCo1CvfmFzjH5AcF8ih+nCZn79ELe0iBglPXNQlxbykutHOr6M/TfJV1GgBwmdTThCWVWOH4YVdx2nQrcXyer0sHsgbayB5zmQpXVdwxHKlakjurujrjOfKN7xlUJT9yL2WoHCtbU6Lu5Dh4OVtekorET3Gnoio4RGtLT5Kyi0dP1XXZCr2R6JTX2W5NYwLKlm5mZ3N/ML1eo0CSITCo4kYED6yldxptQzn4SegPC+rwx8nj22C1wXcAx0IGT690kpWTy53vm4n4Ogjz8+vzWsY8jEGBGf0Vd5DomCAnxk+vggVtsGwBjP6R/2gtWsmAEcjz8uPSFZqLiwFzASP6Rz9Fy3taj2td6E+fl5QpcMcnZZmKBdRf8QLqZIIdyW4yI5cMgz5rU2gaQH08sPYcq2rppO10CRPw9x/dSFgRJZ8HUsB+H1jo5BOKm8oPfwZ3Wabi4uGI5H+4fuFdo9yKrQ125jxxPB7EEnOFT4tLy2G5f0A6+Xop6BfU6k0XhzHtAAbUaWx6HqpdPtyFBpIa3AqNj4ZEGYORjoEO3xOym4D3m1x4a/Bd6T+L080VVtqjOH72jgOyR/wDVHHkstrIpmoPfsH/GY2kk4g/7gVENPGXf+xHGTTXOrue4boEcCPnz1Whs9ca8APbDhAIPB8weOyw9GjUacHe0QdrsnacQHciP2TezuaRHLmns4Qcc46hLlQvgBmpqCm0figccr59qWoMrVttN72kTLXAtBg+fQ9CE6ruIk03Nfj8JMd+3AWffetc4mq006jeDAIPmD0+fdOqowmzkaandlu0im6B57vWO6cW+p0XfiEEDgtI/PusroIY5xNGs2f6mE7gTycH8Jz0WgY0jo39v+0MqVnBDyi3U9SoCGh210YkkDzyVm7SzAc73VV0nLgH7h1zHTqhvE9d7QSxlOq92GSSA0x/VAPwg8wuac1wptPuh7wDO2Ns9YPME91br0+If/QUWO7CoNx/1TujJ/t0TgVRsLdxcISDStXYQBVpOpuHPwyD6EchNBqNOPhHIxiEuyp56/wDB2OBVqRomJmR0LSQMRxHKCo2zWwaAHPUQBnI29E7Yxxkhufp/2hattUFQENaAeT99VZhJLj/uSk8DfSt5AJIDuw6/JNg8cmJWUqUrkOEDHcZ+nZaPS7RwEu69zP8A0VR1EEvdlDAfU9NLjuAMAdFRolFjRxtdOVpLbHKW6zYBzpBiB06+qVC/Psl19kYIurOBDWjcD1HQd/vujXW8jq4df3SK0LmO2hpIJ5P90/p7+33/AHQ2x24xglcmdvqXunN2Q1pOWnEH/P7po28AAnH5/n0ROpWIqtIcIPfrPTPdfLfFfj+nZVHUK7KheGgja0Fj2mYIJcIODIKs0VvU+2KzJAvhZY+9qmsupWtV9M/EGENM8E4lflGrSdkwfVfb/GfjizrWjxTqBznj8EQ4HzHYd/JfGLvUJwOF6PxsPRrcWsM66utwUpS/hLkjrHiCrVDRVfu2N2t4mPlycDJSp9RVXyrp0yQvO6ryV0bpURj11gq43ctkXVpUraqh3sgomgAvN+P1F9mp9zw1lNff0Mkkokbmqh2CSjK9OQqrRpac8LtdpLbdZFWt7HjlLo6Eko8F/wASGbUgwUy94EJd0p4W75Xx04QVmns3Sj8P6F1zWcNFVQmZCLoVZQ1o6MFPdM07fJEKfx+iyyTuhPCf6oP4Yz05WSUIrLE126MoSs4HI5TTUKMEg5IwlrrUrM/IdLqVY1Wt0H9f5X9o6vC4fYx0qo4EGJVlegXuyMph4caBO4fVMqppDOCV6vRaet6eNdrcl9Mv16GVlSluSWW8MybrODgrZeBPBz7l8B7WxHP4iCY+FvLo69pCq0u1FZ7WUw3e4gARJkkCcAmMz8l+pPYb7Ixau/maznPeQA1rsNAwZDY7gHJ/pCqauGl8XXKcOJPlIV6UK+ZPd9Y6/ubTwR4AtbanS/0ml7G4PUT37u4krWMuS50cD7/JQvKwHVD6dctknr6r4x5jzVltzzLJCjKzmRp7YCEFqL5wFT/6gYiAFFlMuyCF5fUajcx0IYMd4jsiDME56IvRL8wBtIjutRVpYz+aR6rSABIWROWHwXFJNYJXt/hNPD4Byvmz9UPvA1wJEr6V4fI2iMYQVz3SInDCHlQCEDXIVWoX4aOUBbXoJwJVjfzgUotLIr1XT3EyBIV9hQLOQtNRAImIVNw5vkodUc5OdnAh1K4xwsVqrhvkj5L6Dd24dPQJDdeGt5w4j5JFlUnwi1TOK7IeGtTBgDHqt3Z3GFkbDwTH/wAw/RaO00RzBh5P36Lo1TiugLHB9ENTEhILpoEEThM9Ua8Y5QlpRecEFVXHLwOg0o8huh63BDeCtGb2Ryk1v4dnIkK9tq5uCZR7JIS3B9AGtVexSSpu5En0T6+sw5WWFoG4C6MHkNTikR8O3k4Mz5ha63fhLLO0HMBGvEJNtOHkXKSkV6vU+FZylWMwE61KtjKRUqkOx3VaS5H18RGVtYOOZhObWiQMle0wyEUQjlVlcCZWPoFuxIhL6FGEdcv7pZduJ4VfZh8jq3iIzoVkYAkdncHg8pvRqJqnFdiZxO3DQRlLhRzhHXZwh7NyTN5fAdbajkvp0sKQarIXClTrYvdk40qYKBvKxbwpULuUNNrzhhOp4yWXr4BKWWV3JKcBs8oe408EyMFOemk3uQddkYrayVvUlFQhrenCIR0yxlSQqzGeDjqajCuBVdQI79PHG5AJkWOVgKC3FX0XpFM3HhjJQwWlq9K6F6FZ256FnQpSoLsqxCeCMHZXQohdBRQn9kHSUl8Sae1zd3Ucp0UPfkBpnIgytvxeqlVcmmVtRXmLPnLwuK67A3GOFSV9Vg90UzCaw8HWqQUWqalog8F6F6V6VGAovkqqhB3LUbUCFrhVrYlmuQhvxCTXLloNSYs5ejlY16wzRp6AKqEcEW5UFVS3E0/gS4+FzeoM+oI+/qtDazML5zZ3Tqbg9vI/MHkL6JpNwHtDx1C0NO01gmS2oq8Q1oEfJS8M0Wgdi781V4lbLZ7GV20umkAjAMY7LP10Wp5MLylcnHcPg0gkgSP8fqiLKuOR9nso2tb4crumNEmMSfqqS4Z5WSbkFWT9xkoLxHTcWO2890W9+13kUXTAITGk1gJwymhd4eq/C2TJThqU0rba4kcH8kdSeUMETB4jhhHBQlV+VZd1MKugQUU/oXN5eAmmVx6sptVVdybGPBY28EKzUpu6fUdE1L5QNYIprKwRZDekkKq7d4g8dkFU0hrcswO3RN69Mqmo74Vc0+m9vuRu+L8apxxNGO1W0duMme0ffP8AZJ22LhUaScTKeahcS4g88fP9lyzZM91S1Gljk9LHxkK4dBemUy5/OBC0LqUBKdOpbT6pk+pPpIViiO1ASjmROyses5KOq3G0QV2i4cBVOfLvIK7XwTDvLKrSrB80ztmbuULcUMgjorqVyB+icv3Jtr9ToZMcEPqwJaQOSoUXyfJV3F2AfRBqZRhWZWthGEOhVotM5B5BTpLKj9p3Dg5Kro6pudtA4XnN2Hg8q5beBvWOD6IO2qyFdyoVW4MIlzyLbfZCo9LrmrB9UTRyo3NMHlQ+VkXN5WSbCIVJMrsKh1Mg/eEPQasbR67eQEraCTITkZ5VLqYyh25G4bfYprVOhXi7CMq0hOQqKgCu6OxRlg2fG37JYYHuVNZvZEVqaFqOWu+snuaLPaVfzEcqi7ugMkgR1JWf8Vav7uY/Eenbz9FiNQ1StU/E4weQMD/Kp2WJMPDZ9w4xELvvQjqgB5hLb+2gGOnRfTYyUuzyabOVmtODELOX1I7y1pEDMdYPfyTamHHlVOo7SXRkjJ8ldq9jCwDfyvw/JA0Lz3bm03EAOOJ7npPmnFJoOVC4tWuEFoPqmb/iRKryRDP8LtS269Uj1ObcFzSS3nbkx3jqBnhWaPrjaw3U923pLXDjnBHdH6Msbl0RwmV6hRAqU3f7X9ePv+yuv6FN1Q8ZGP8AB7onUKYMA5kdVSzQGwCC4EeZ+4UtrCyzsgr7Z7MB0js7n69R/dZ7xJpAu2OouJbMw5vLT0PnmD8lqa1Mjzjv0/wldtb1n3Bc0M2BkOMmSTxHaFYre1ZT/uDu5wBeHNFr0qbWtrGo5oiakmYxBcj6V8CNr6Za70kHza4cynNiHUztqQBGDP791DUQ15DQcnq3p2M9/JK9ROWX/qcYzxXWcG7rYj3uAJnYJ/3dwmFK0rFoLm0qgc0bgMGY5E4I5RlHw9WaTTFQPDjyW/EAe56lOLfRHsYGmpMf8QP0TJXVpJJnGHs7ygx3u6zDSIOHlha0/wD1AQAOJJyndoW1mxSq7gDG4Hc30B4cueJvCj7ljmh4pmDD4DuxgtOHNPBHZE+zbR3W1BtJwbvZILmiGuz+KOhPPzTJzrUN0Xz9BEdS0EbJDjv2wM4Jjq3jJ6qfh+3rFo94Gj6/onTyXv2z5nEx6+afadpeAXGSqtmr2QxIEzNfTiWkGIII++yD0CyDQfiLjP8AVBI/wt5eaY3almjaeGk9eUmGuTgydxTSs3R+En5JZqTzI6dM9Oy3FtTJldr2LTkifkFUhrdsuUEpfCMvZXMDJ6co2ldggdUb/LM/DtEIinYNHQKJ3QfOCdwiubxrQXTx3lDGtugz5p9qukMqtLTjtHRJh4fc0Rv9Mf5TaramuXhkxYXbVgUc2sISC30KpMioB8pV11p1cDDmOPQEET85wonCtvCkg0sh11WHdfCv4oaDdttUA+Lc5hd1jaTHphaG69ptOm99Kux7KjH7HNif/qkD8MQR1ysR7XfHtvdW3uWNJfva4OII2xOcjMyRjutvx2jtptjPD/8Agm6pqttnxusVQ2qrahVNSkj8jOzdvr5a+DNhj5O1HAqpy8Gle5WJda7eZLEhiWDtNkrtMR6KTGwqjdhRKVGmUZXNRlz38ncvoLV9zbQBkGRKSfzB6KRrvKV/+V6d5Xpyf8LsNUtL/wCRhIC5TIJiQlxY4oi00uo8w0En76qvLz2ok/8AD072/vwyNkFzJh4tRIBI9UVZ37Kcjcu2Xga7fxTj1MLRaX7Ibl8F7mt8hLjHyhL/AONalc11Rj95Y6rU11PdFrJj7y8aXEjqvUrniBJ+v5L7ToPsRpYFTe4/+Rb+kL6J4f8AZZb0gNtJoIiDEn6nJKbX529J+pj+Ev8AyV5WRcnJdn5v0Xw/dXLobTeG4klpAgmMDG8+QX3P2eew+3cxpuWPqP6/G5g9IacD1kr7BoXhRjYho49Fs9LsA0QAqV3mbpfpeP8AqDOxy5ZmvAns2sbMl9C3Yx5aGlx+M483SQOOOy1d5eBoRNZ4aMmEEym1zu5XkvM+TlNYbyx9Fbbz8Gf1e9JB6JPp+pvaeOvJ4W6v7Fn+0LJ+IaTQDH5L53qd+5ts1o4J2+pPqGAR8lrNHYWgTz5r594QvXNqHA6c4W1r6qY7KmrsxyHsG1/XnhKqlBzsEEIC11NxPBK0lndSMqa0p8sGfBlr/wAOAmUZYVzTxJ+YTa4cCfxKqppgd3HmoVf/AOoW77El9qoJgiVoNDa6JDQB+ayWp6HV3/CQR+ad6JRc0DcSPmlVWPc8oKxLHBpLmthJPfS6JA9VO7uBEbkH/JDkPkpk7G+hezgY3DCByD6SgbO7+OFR7+oMchBUgd89EL1GXwdGttH0DTaoMJ4+kCFnNBuGwFpWOVqNmUJccMymtUYKFs5kQmXiFklJ7KmWnBVN9lnPtwbPTmYyhtUpdV7TaxIhFVmkhOk8orR4eDH3ZnyXbSsQo62drpVdKtIVN2FtVZH9C4TS3fIWbtrhO7OuISJ25IdeATWKSQVvhPzWr1GC2VmLzJSR9XJodCrEhOAVk9HrO4haWnV+SsQlhCLY4fANqrfhkISwqiBPKs1eqY8kst3jqUCjlhx/ThhV0STIRlrUI5VFpQgy10jsUZdRHZVbYYfIW5P2lj6ghCAEGQgKNbMSnVJLXKOa9M7Qqk8q1yp93lXgJseVgRLAJVphylTtAuGmQfJEsKCCWcBuTS4OsEKQK9CiQrct0eUJJQuQvArlQrpNNZJPblzchqdQkq6FVdkgnHBJzAq6bIVoK7CmUVPlHZaOBTBUV2U2t7QWRqOXWFcewFdARc7snfBMLxC4FIqysSQJ4LzmyuSpBPpniSIayjF+J7AMMgQCcpESt94itdzCsUbU5X03xPk4OhKx8mJqKXu4B2qQU3UCFEBbcLYWfpaZWcXE8vQvLyMHJFwQ9ZqKcqXpco5HRYpv2YWdvqS1dyxKbu3WZqasl2mzBlazEK8J1eW6XVqULNlBo0q55AoTfwvqD2vawH4XOkjthKntUaD9rg7sQfzTKuGWGso+j6lT3NEIBtIgRCaWNQOAIMggH8vyKlctkQFbspViKt9ashsZbp11ub8vv0RVhWO6Fm6pdScP9rvyKb279wBHPdYd9bhPDPH67S+jPgd6nkfMIjTakiEsNQkQV2xuIwcH8lCeHkzZS9wyYIciSUpmXEgqdJzpgrt3J0Z5GFZs4VNNhB8laKklSrDAR7dxDhl5LqT1RfMJ4U7dXBWILjBZxuWAKkzauVRMK69KEY7CsU1OUi7o9O5zSRx6X1EwqDBSyo0ifJbUo4ie3or2JIQ6tZAkn9Es00RUIPEJvqFyMz05Xzvx14o9yP8ASINTpEGPVZN0OTShmSwfSnVFTVvI+S+M2/tPuYh1JhPef8YVdx7QqrgQ5kE8Rx/lJ3JELQSPumnao1/4XSeo6pnbU5X5ctPFtzTf7ym9oI5aWyHAdD1AK/SHgzUjWoUqpG01GBxHMSOPNOqmmytqdK6eTQe82jI+aW1XbnY4CKdUnC9d28CRjyVtsGpxRfQqnhX0bZpJnqgbEdSjw9S4JrkpammMnyA+IgGt4iOqB0BoA3dTyUdWud7oIkZUHUmtBjC8/rnBzzH4PI+Q2b/ahi0oU1gZVOnuLmkcHIXTalg7+arwe5ZMyabRGnQIMzhdu6aJBxKg8I0+MA7MLCF9vUlEPeI7lQfTgqJXLo6CaIAKu6jnn7yrnMHKocBCBrgcljsHY+QgqwPRTaYcRmETIhBC3axunseUwAnog7/AlMrlsSQl2oTt+S36bd8Mo9no9RvhwfMtbHvKrnH0HoD+SBNmOy0Ve2yfUqptsqc45ZrRuwj6XQqyp1FGlg+q5WX1THJ5zaDvbCprtldrSq6j4556KxFExKX23XhCsrydvUJgypKqfSAMxlOjL7Dl2VVWDbnIVGiwwbABtH7o1zJCXXFqWuBbkCePPv3RRaacWA4jl9MO5C8xhHOR0Pl2Q2m3YcMmDPBRxrCFWllPBGGLdWYAC7sCg9Fdt+HqRuWZ9pPj+haDa476jse7ZtLwCPxGXANbzyfqg/AHiV17T98z4djix4P9IGQCeNxaR1jKvrTz9Hc1wCv1YN7rIDmGQDhZn2dkk1Zz/qkc8Acc/TCzvjv2iUaAdTa73lXgMb0PZxEhv6+SzXgvxW+xZVNzUY91RweKLPiqUy4SQ44AwW46QrFeisdLx89DlBy4R9yta0bnEjJxHIA7oilVFTAwOh6fqvhlH2i1rqoWWlvVdH4viAa1pP4ndGnnE9F9q8IW5920mQC0HJnPVUNVppULMuxW36Y0p6e0A898LP3+nw7cx5aeIJwfywtkD0aPVZ7U6c1WtjJImcSB59VSpull8kMb+FtFa0AmCXZJ88fTqnbabWnhVacZ6bYx8kTUZGSVn22OcnlgspvHyCAAl1tQMmYaO0Jg8Ek8R+f/AEs/qmpe7cGnGcdo9UdMW/aiR3ZEd1dVIS7TqwqZBRjh8kM44lySkC1rQGSDBVlGniJlc9wehx2VjnRCNyfWTsFGZyEUIIyuP4QtV/Zd+oInSort1bnp+StoulXFxQuTTJjJ5PjHtq8BPumtrW7W+/YYeD8PvGduxe0xEx1X5k1qm5tRzXNLHNJDmnBB6gr9he1TxWbGn740alVvBLANrXHjeZ+Bp75X4/8AEN86tWq1nCHVHueQOBuMwJ6Dhe68BZdOp7l7V19/ugdVY3BRz8ix7VFzlYVHYr11cv8A+vHPZRT+yJZIVthpj6hhjS93MNElGaTpT6rmtby5zWt8y4hoHlkhfpr2Z+zKnbU5I3VHAb3GD04b/tZPTzWV5K2jTQVlsVu6S/7j1XJR3Po/Pmn+ALyoB/p7R/zMH6AFO7H2NVjl7gP/ABBJ/Nfqi30FojH3/dF0tGHZeM1fk3fLMorjrgr75Lo/Nen+xenPxe9PkS0foE8oex23H/y3H1cSv0DR0gdkS3Th2VH+slHrj+Ec3KXbPg9r7J6P+yFpNK8A06YAawADyX1YaeOysp6eOyCeutl3Ji1RHswtn4WYP6U4s9BaOkLVMsx2RFO38lUlY2OUV8IQ2ukAcJvZ2KYUrdF0qKFyCKqNCFdG0E+SIbTQGs3AAj7/AOlR1uqVVeRtVTnIRahcy7JMTwtDptNm2QIMdVkqN033kH808ubxrWyHdF4m7U7m5Nmqo7VgIvq2Y5Q//p4cDI57qGiXYe4wCfM4Tm6holUJ4fIccpmPutFDHbhg8pRqV49vUnyWxrunpIQN3pTX8tWbbVnodGWHyJvC+u5hzT9la+4umxiFl3eGmsktcQfv8kl1K8e07Q7gwlb3XHDGbE3k3uh0i50mI8itO+kFkvBtF4aC50rU+/H+FYhZiGRFsecC65p/EuVaAIXLx+cKplaTCCueQsYEOp2pniRKnQ094/CCtJSpAEEhHmq0iEKrT+QnLgyTC4fiCoeOy0l1YzwElubNzTgYyglW0NrkmE6Hdhh+KVr6F/IwsbYWcwXSndtjA4Ux3IXZgs1aqszd1XDrCdaq3CosqAOCJ80Mk5PAUWorJPwzePcQJla11QwhdJ01rYIgeiNvnYTdrUexFjUpZRk/EAnoSlNuHcBp+aeX9SCuWteeqrKKzyWFY4oFsLKoTlN6NFwTPTnAqN9RjKidKA9VsXaiDt5SnTXHd8QnPVGalcHiULpV1DsxCUoJDYyeDU2FADMAK27dAletqgPClXpyITJPgrN8iPUq0hLaVcDmUVqfwuIQL7c8oFIcotoe6fUb0TSpTBWZ02uAc91p6RwEibUngCUXEz93p5Y/cOD+SaWFxOIV19SkY5Q1gSOeVVmnF4H7t8Oew+V0OVYqKTVKm88Fdo5UClTcq67oCHo3CCVu2WQ1BtDEFeeqadSVbK0q7lOLQlrAvp1zuRdN08r2wKTVTjmLwNlJPo8GrxXV5HLDAIqQK8uShh7Djrl4L0ryN4TyQdAXSFEFTBVivEkQyIUpXiFxFzHg49KkFBSajrbyQz1QYKzVxRAcfVaYJBqzNr/z/NaUbJbcCZRWcgptwgbixnhMNy61O0vkrtO8xYM6FJcoQVrchULSXDAQUlvaBHovdeJ80tT7Z9mXqNPs5BnKpwVpCrcvQfuVk8PALWagq9NMHhD1GpM4ZQ2ExLdUUsuLZaOrTQlegqFlBeqtwZK6oQgnhai5tUourRVJVNGhVen2e0LW3UTGXMJ+bfTuPJbSyumvgggjv98L53VoLumXz6LsElsyW9Cm1WNcMe4Jo+i6vR3CPmEXpDAG8JfpOpNrNkcde4Pmr6dfYQDwTCjVUKzlGRrtF6i47GRevX9tuEg5CiXg4UKlfaO6zJaWX0eZnoLFlYPWVxBgpq10hKg0OHmrreoRhI9CUSt/Tzg8NBttUhyOuqgDCeyALwVTeVHFojifqrddEtuSxXp5YfAVp18Cj/fJPZUT6JhSZ803T0uTwO0+ncmkztwZKqDVc9QqNW1RplXyeh0GlVTyyt7kr1S5DQSSBHUlc166cwS3JWH1y5qVZBMN7Bddbg2YPLMl431d1ZxDCWtHMH8Sy7tMnJGVtDp4H/SoqWXksScm2asJpIxrtLKrfYrXPs0LVs0lj43GRfYAffVfWPZJ4i+D+XeQCwfBJiWmfhg/1DCxVW1QlSgQZHTjyXVzafINsPVjhn6Ls62UyqNkEeS+Xey7X31CaNQ7nNAc1xOXNmCCepGM+a+jsdhalUlJZRjzrcJ4YLXuNpDEVc1vgPeElvqhD57KbCanp1ROfwN1NKcCnRa9Sp0jnP5JxWsnbTlE6bRaxoAEK6rU+EqktDBJyZ5t+Oi22wTR8JpVMhZnRr0FzhPDiFoWvwslPa3ExdTBR4QKXQoblO5ZB8lCtUAx3S92HyZbbQPUOV6o3CtZRleceiYpIJAgqYS2/c7lvCcFoVdamFz5WAtuUKWHuhLqueAmdenGeiFdQDjIgd0n088ImFUm9sRfQqOJzx+ivuWyFfUtI4Ql3VIHC3dHTKuDUj13i65V14mZu7ofEfVU+5CYVcmVW5irzfJqqZrX08lB1CijXCi+nOZX1OLx2ZqWAa3pycnCrvaEmR0wjqdLquVGwjU+QfkGt6eFXeUJmOyva0xIVT66JN5yiWhfJGChtTvQxjiTgNJP0/VKLrxra/zTrV1VrKjQCdx2tO4SGhxwXxBjs5Z72za6yjalrSC6r8LYI/Dw4jvifqtKnTSlOMWnyHWlJ8nz3UPa9V3FvumbJwQ4h22cESMPjutZ4q9qFBtix1vUJrPbtaw/iaeHF4jBbn1xEr4JqNwHGQIQQet/UaWiMo8df7lOdzUpY5XwX31057i95LnOMuJyST3Trw54zrW9GpRpuAbUO4mMhxAaSOnAH0WZuihQ9Y3kfLOm3a1wvsCtPtGk0ulJDyczPnPM+srS19PBG6o5wPJbtl3eSSRyJzlKvCTBDXEAx0PH3/ZWeIq7tsAkjzJP3/hel08t8Yy+1k9HpqoUaR2SjnKzj7PpHsjsrgHfa06bbZ1Rra73v3VXhvOwTDIB7deq/QmkNLsDjGey+feCNSYLG2aykQw0W7cQRjM+pnPWVvvBtbbRBd/VmfXheJ8nqHbNvGOcGNOSfKWDSvhgxCR3IbUe1juQd0jB/wCkW1u4bgTHZB1rI03Cr0OD5LKril88i8ZH1EbQB2QRvZdxgD8160qGp6DjpKo1VrgW7cCRMIIwW7D7JxgO3yUNfWFOoQHtBjvwiWtx94Q9etDh6Lo5zwTgGuKRojAG3gEY2/3C9RvQcSCU3BD2weqz1ezb7w4g4BjqmVNTypdk4D6daUYWSEspshH0CosX0S2VF8YK7TMrt5budlpHzUqVMjlRlYBLhSwrKNTCgHqkvg569UvGQsAOs29N7KlOpt21GlpDoiHAjqvx77UvC38hce7FT31J4Lqb8SBJBa6CRvbjPWei+3/xL0n/AMoys0vinVAqbZA2PaWncByydozj4l+fKV6xzcgekZC9r+O6eUYeqpcPhxLVdMLI7XPD7RmqvkpUmyr7iJMcIjRWS/0Xp/SjD3L/AEMmqp22qv7eMn132BeCnVXtuHCKVM/CDy6oI/8AxAn5+i/SNpRx98LJewjSi2wpFwjcNw9HEkfsvo9G1Xyjz+ulfqJJ9LgteQse/wBOPUeEAspq5lJMG26sbRXn2ykkANpK1tJHCirW0EuUiVEXiipsoo/3Ck2ih3ktAbKKvZRRVOkrmsQuRCiDspK1tNXAL0IcklNw6AT2CwetXjnOLf8AK1HiK7/pHzSi0otdmPJea8xN2YijS0iS5Zhbqg8vntyUXqd6GtDdxJx1MrRahZtkgcn7+qyWqeG3vfyds5P9l4q9TrT2rLyacHF9m48O0Q2mDuGY6r2p6gJAkc5Wd94KLdhJx1JSCvq3+oNuRPHddbekkmTCvLZ9Z0qs1zRhR1AgcBL9J1IlgO0Nx1Um1veGCYHkplblJIS4ckTWJwMpVquhOqEECPOMrb2emhox/lduWAJdtXHJKm/gRaIPdN2kn6Im6vh3ClUZOEBcaQD1P1S2njAaafYLV1hwTbRK4dk47LPO0x+6JBHmnFAhrchdCTXYcoJjivcADle0twJykdO+aT81pNJpg5HKhPLyBNYWBoaIiUrvDCbPrfDCz2oVYcuss+gIwGFg7vCNq2w6Qltg+U3oVAAg9VkuODO6u88LmjOnlG6zQ6oK3wUMLHuGyjmJqrCorL1sgpJbXWQnFF8hOnbuWBGxoymrtQmm4MdE31+jKz7mlpVRyLe3dE12nVBKc1cgrI6ZXWptHYRxsZXshhmT1m1IPzQdBkGTlaHxFUWYuqo7wlS4LEOUa7RLoHEpusHoBJP4ls6EgCTKKM+BFkMMD1e2BE9Qk9K5BwcQnl/Wx3Wedp4e78W0+SDHI+rlchNvbA8fknFhuGDJ9UNodmWnJ/6ToNRejkVZZ8EHFKX1fihN6gSW+o5lVroYZNDXIVuwjKBwg7DIR7QhjHnJFjXRCtTlBOoAFG1HQlleuC5JslHPKCpUn0MKAAV4Su3qwUzYUymSzgC2OGdcoqRXIR2R5Fo6vBeXpRxZx5UVAZVgepEJckrFwSntIsUiuLqhccEHguhcUgm1rBDJKK6CuFWLHwiDoUmqsKYTKpHMmlPiFmAU1CruWSCCr8ZJoW0ZJjiiaa5Ut4JUab1nzyn2WUsovNND3tDCMpDqoXDwtjxspqyLj+xS1W1J5MtVwYVZU9QfDj6qpr19fhXJ1qT+jzKsTm0jjgqXtV6iQhlEfGXII+mqajEa4KtzEqcMjoz5FlWgg7izlO3U1B1FJdRZhakZS4sUDV09bGrbKl9okuguQ1WDMaRXdQfMEtP4h/bzWys7mnVEtI8x1HqOQllWwQNbToyJB8lyrwWI2qaNhbUwPRU3df4oAx1WTp1qzDh7vR2R+fCLfrb4EsB9Ov8AlHwRsWTVMpheYzPkgdH1RjwB+F3UOx9O6atA7hMVcGKlTFvlEqQRVIhLrhs9YhTt6vmiUEC6YpcB1QR1UjUxhVNqBefU7BFGuK5QuNcIvODrXHuu1KqrpUyrTSRyYcrxRf0d3KSXVotTXaltzSWdesjK7sGUurVLq1qtTc0Eur0Fn2RLtWoM5VoIWtRT6tboKtQSGi3C4Q1LdCV6Cf1KKFq0EBbhYKLCs+jUbUYYc0/UdQe4K+z+GdZZXZuYc9W9WnsV8jrUVLSb19B4ew+onDh2P902q7ZwDdUrFn5PsTqQMrtg2JASbwj4gbcAgja8ZLfLuO6fupxkK7BqXKKTbxtYSypH6Ku5qw2UubcneAUw1KluY4eSbJ+3BVvr2Iz/APKwS5rs8+X/AGtBpt2C0Zys9pY2gh0uAMASmtNzf6V5eUWpt/OTxupjPeNrx+JWd0+8c9znHgGAnrWbmkFKbxhpGQJacJ8tNKUdwP8AQSlHeOaTuyGuzGUHaXivqs3BVo8lZxb4RF+VPolFCuQ8tJ6pqyphSs56OhW+mC3KX0qgBITx1KUk1GhBkAx5J0YS4aLUKJJpouL8Sl14MInfhB3dXovQZxDk9ZSvZyLKlNVOaiSqnhZso5eQ4yNWKAVb2dAiy3bPZctyCTC+lqfyU8grGK17AVLUWxkJB4m1R9GhWqtALqbHPAPHwgkD8kyuLsawD8l9e4a2QSBnv17evkhyR9V+RLrxXWrVKtStVeTVcHOa1zmsLgAAdgO2QA0Tzhaar7XboUPct2l20tFXO4CImOC4DqvVS/HroxTTT+/2CVlbr3OSz9fJn/a/qTK1/cPp5YHNYDESWNDXesODgD2aFlKlw4gAkkDgEkgemcdPooV3znnrJ5JPPqVVTK2d/puNWeOv9DLbbyyb1ymulyra9DZdXC1Ns5J4PXYwlt10TStwhX0ZXlvyXQS1Ens7aH0yx2M9Du9rRnkxH7rc+z73Tbqi6uQ+k0uc4OiMNcWzOI3beV81otjC12mXrGtHEnHVbXiZSnplVLtLD++jX8dbCU9tjwl1ln1TxB4+qXtenZWLPdGs/wB37xwENZnc9obJENkye3Hb7N4M0uvTpst6tQ1fdNA97AG4dJAP4u/ovhv8PtM/z1dzQwxbE78HYS9sNHUbxukj/wDbC/RHgmo6p7x5d+F2yMRjv5rz3msUz9KC4XP75ZTvhix/yxyaWxrWzuBnt6n9V3UmAsLRBx0/wgL2pNVoGROYnEjt0ytHSpw2f2WBKW3DYoS6JcQ0AggjGQePVXak0OHoj6ZxnK9WoAjCj1FuyGuAKm/C63bIJCJo2bSBPbuu/wAm2Z7KXZEk86kOgSu6oQ6cZwZ5TsVeiSas8g47qaG8nI5TogI9lMQhbfjPKuBjKZPklRCBTHmoVqRKvpE9lY7gqvuaZDFrUJr1fbRqOALixrnBrRJJAmAByUDpevUKr61OnUDn0XltQA5a7tnn1CPdcNILXEZBBHcFW1BpptDY1yz0flTxZ7arq4bsFJlKm5pDxHvHOBER8QAA56dei+bWlRofMfD5rUeM9GbTr17eNrqVRzW5n4eWZ6gtLT81jKjS0weQvpujjTCC9KOE+QNVCzTuMsqSzlP9/pl1xQJO4fhJwV9T9iXs7N5UO4wxhYXGJBmSW8dgP/uXzzRqW5jh2yv0x/DN4eqMc+s4OaHNAgyDiQJBOZyeJVHzWqen00pQeGXdLp4wqlqfnHH7N9n2rSNPbSY2mwQ1oAHoEeymp0mK5jV8isscpNsxJPdyVtYphqtDVINSWyEQaxSDVOFPahyEisNXWNVgC7CBko5tXQuErigjB5QuKwaJPRWFKfENxDIHJSL7PTg5DK45eDOarebnEgYRdhdnaPhg+iQ6hUDeT/hV09aLmgD0leGu1bcm2zXjVxwaG0snOcXGFC9/08nKloxdtklCao8vIaMmVStxtCwxXrlv70SBn0WVb4PuXO3Nc1o5yD0ziF9LFkWsgrts7ETwqdmljP8AUGrWujGfzNWk3a98x9Pkp+F7oVqn4jjzRfjCiNpjlZfw9QeyoDtgHsqVqlXYklwWFhxPtdk6BzjjlBa1fwlNG9c0TPTqgrqsargN0BOk22V4Q5yabRvjEou6oxwqdFsQ1uCpanW2jurXUeRePcD0CFG7sd/CAsnOc75rW6Nad0he4ObcGY2noNQOHJytdpdk9vSE6bQAzCu94Et1xXTOdjl2IrsOSa/qZzC018OVktUndACrzi88FqnBfp140GMp9bvlI7LSXH4shOmM2hdKDSywZ4bJXz8JO+oP8o67MhKbSiS6OQorhlk+1Ih7xxODlaTSQ7bkqm10lp4wjjRLGps6tvIr1U+BTrhMd1mqztxgStVXIPKz9aoA7CSoofCzCLdMsSCCZK19AjagtArAppdUJGEbjxlCZ2bmItUty/hLKOlgnLR80beXBY5RN3JBURwM9yQ1sNMYOIBTCICB0yoOqbbUcoJrgrOTF1auI4SO4uGh0pvqVr16JZc0GkFIfHA6HI806uCMZRsrLeH620lvRadi6ubbwLthtYNdV4KBvXk8CUyvKEhKKEhxBSLYtSwx9Ki1lF2nXQ4OE2aUgvqcGQmem1ZCXGzEsM66HG5BNduCs/Rad5kLSJVqFRocu1NafuO002sxI1WjlHWrpCXCsCmFoMKrHKkibliPIUq3VIU0PWpSrl0mksFaKXyXgrxChSZCtC6GZLkhlTKcKxeXkUY7eiGzyi5SUS5RNLHJyOhdC8F0BHE46vLkqQVmOJPsggVJhUXKTUqvieDmTXHcFeXnBaMJAsQXVUSZVDKclC6ufjKIsayqzUnLhFuOFHIdTakGsuIJhOzXCz/iS6AAXrPxqucb4qUeDA8tOPpvDEd6ZyvW7l5tQELlML7DtxDaeNps/wATIUCoOUgolZslybcWchdAXl0IHEYpHtq57pTCkCgcRqZSaSibdFwvIGg0wL+XVVSyTMKQQ4HRsaETrFcOnDsnuwLophdsQavkIW6WOyIpWJHUpuGK1rFGEhn9QxObM9yrLXT4TdtJX06Kkj12wWjbK9tBFNauuXZFymykMUHhWuKrcFzFqYNWagq7Exe1C1gq84jYzwJ7ikga1JOq1JBVaSpTgWY2CarRQdaknlWkg61BVZQLddoirUEHVop/UooSrbpTgX67eBHUpIWrbJ5UoIarRSZRLUbBXYVnUntqM5H5g9D3C+p6FqzK7JBz/U3qD2Xzd9Bcsaz6T97DB6joR2ITaJuANkd3R9IvqBkEYgphRq4ysxpnilr4a8bHH6H5rSNEhaCkmVrcy4kK9RB3gtGOsJhYUcmYVFoIdnhG8Z481X/poylkpX6WLlnAWXgcKDoIMiUBTuA/IyOiKdUgT2VratrQDrxFrAqpUPiOeqc2jMJdbOBMppTfhZWk02bMtGLptI97lJCrxDakH3jORyO4/wAIOnq7RE4JWgeJELK6np3x4EZ5/VN1mje7MSNVpJOWYDkXs4Blce4EIKhDAuUriVa09ChHk0tPpnBcnq1IBJ7hwJTG9uegSx4U3tPgsOXGEUvVZarXtUIVGawDGRs9SuWtY4uwA0k/LP8AdfnGn7cX0qryaIfQNQ7CHQ8M4GIioSZPI5X0T2u6lSfptxUFUOBpwDTfIJcQBkHgmB81+ZtrXsiRx5L7j4HxVVlc3as84+sE0UeopJPnHB9lr/xFUv6baoR5uaM/VZ72i+2wXFuaVvTfTfUEVHv2mGkfEGxMkiROOV8bvaBYS0qglb8PB6StqUY8r9zIstsi3GR6VwroTrwd4dqXlZlGmIk/E8g7GNGSSR16AdSQtK2yNcMyeBCTk8IREL21afx/4QfY1vdOe14I3Nc2eP8AkP6X+QJSelpzyBA54VeChbHemsDlRZu2pPP8C4sXPdrV6H4Juq4llJ23uRtB9CeR6Le2fsSJYDUqPDyJIZtifKWys3W36Sj9bX/U6Vc4rLWD4o58KqnWEr6xrfshLQdtR0/8gCPyAK+Y+I/DNW3cdwwP6hMf4K8d5LzNsZKVCUkvj5JrlW+Gyq5oEQe+VKlVVOnVogOyrKpG6QtfQ6t4Wor43NKSfwMsiujbeAPGBsW3D2N3VarWsY4n4WQSSSP6jkfRfdP4Zr24dRr17l5c25qE0yZ5YNpgfhawkGI7FflwOX6Z9gnio17RlN1IMbZ7KQc2dr4aDuPapGXDznrAf+QVp1epFJt9siqW7Ef2Ps1TT9o3AxJBP1/ILT2bm7OZlCU2Nez4RMiceY/NUaTXA+CACOi8HJuaH9EqgglLnatBg7iJyY++Ex1B2DKjpVswiMEwnJpRyyWwh7h8MKdNU17QtyOnClQq+qVjK4CiSq0ieOUguPicW/1N5H3zK0dNxSXxLaljm1mgQJ94Iy4dCI6t/dNoniWGEcoM8kxotCRv8RUWiXVabW8kuc0ADuZPwrtr4otnGGV6LzzDajCY74PCbOub+GTlD/3i85Lmam0kgGY7cf5+SMYZykOOOyMH5E9sFCtZanWMOptrvdVpPa4t3NdG7IIIIdukeYSM6lVZDxVqCDuBFR+D8yvrP8YWlM9zbXO6HsqmiBP4mva55jH4mljT6E+S+JUXF1vUd1a0GMZBcAfMxIwF9G8XfC/SwlJLK4f9jX8fq2/UhP4WV/b4Bdev3PqGuXl7nEbyeScAfkAPkltZrqzi4D1QdEFxgSvpHs48Lmo8Da5w2kugYInbG7oZIOOxWlK2uuG6XSKOlrnrptP2w7l9Z/Y1nsU8COqAVDTdMiJHwkEA7jPI5z0hfqbw9pLaLA0c8k9yk/s50P3FCm0xhgEARAAgdZJha6m1fLfNeUlqrGl18CNdq93+HH9K4RJgVrWLjArQvPSkZyZwNXoXSutQP7CwdXSvQuQhOPBdK4oBy4gkuFelcKg5EnFIvENxiI8/NOSVmvEVQkkLN8rPbQy1po5mZLU2F4IH3/hKnD3YWjumBjczlJLu1Lo5grwNvPJuQYw0e/Jpkkq3QL0uqwMjklItTmkwhsxGV72c6q3e4OMHp3/NVHelYosJ18ZPp2o/gxkrMW16Z6SmmrXADCZOQs1pNZoeNxMH05Tr5+9Irxjxke/yAqH4pVl9pjOAIhH1GjbLD9UmtrsueWk5QzaXDJXQDqEsB5ICyFlqDnVsEtE8HlfSq9juxyDyhP8A9M0gd0fF36/oqdtEnJNMbXbFdjbQqsNHxSqdauvNLXUfd8SP0Wdv795fyittcY4YUIZeUbHwxcEvyJX0DS68r5r4Ju5PHz6LfW1UNCKvrIm+PuGl9VACEsnEmZQ383J8kws3jsohHMsi5cLBVdvSq4ALgmeoOCQ16m10nhTOSTDqTwarT7fGVRqdGOFDTrqQM4TIQfNWZKM44E5akZauVbpLRmeUVqdrBnolldmcFVF7GP8A1Id2VTKMrtkLO29xBjqntlVkKLLc8AKtxEt/QISK7oZlbLV24WWuWTISNuEPhyF6RXgiFqaVSRKwlq8tctPp1zgIN2ODp1Pso1y3EyQldeAJC0Wqu+BI7Kn8JnqoUuRsE3Hkt069WhtK0jKyDHlrvh+if2FxxIP0TFPAi6rDyM7tkgpGKY4T3es7qteHY5S5vJNKb4K7hkfF25CdWN1ICy/vS7GR5LR6M2R6JGHu4LFkUocjSUqv6oB80ydhKr2yG6SYlTNt9larGQapUDsJhp1sR1QtKkAciR3TOg2PRKcVnkfbP24L0q1ey3GUyqPhD3FXCmdixgRVmLyhdZ0IPKcUgldN8FMaFWUhS5G3ZZaSobl14QlQGUFrkmKjHIcF0KunwpAqzXYgGiTl4BdhelWFBJ5YJ6FU9qtlccEFtanHglPBFqmohdXVvjBDOSptVblJpRVTW8lo64Ly6vBOwnIE8F1xXoXnq1SsAyZl9dpZLoWaur1zStffEbiFhvEVQMdnjovW/jcKbb9lkcmX5SdkK8xeCx+qOKCvLkuGUJSrqdenIwvrVGiprxtikeD1Gqsk+Wct35RjHZSq1puBymNuMq3ZFCdM25r+Rg1chdaFKFiWLk9THogpNUg1SDUISRABeAVwYubUPYyLIAroUmsUxTS2GiACm1qk1qtY1QEmVNYrW01MNVrQoZOSttNXU6akFC5uA0SUL4WQ4tyeEXQulYrWfGUHbTjzP2UHbeLKpPIhUJ+Rqi8GtX4m+Ucn0FdlI9K10O/FynLXgjBlWq7Y2LKKV9E6nhog9RIUyophUK6iHqNRDlW5DJBpgdRqFqU0wexUVGKvND4sXOYh300yqU1Q+mq0oliMxVWt0LUopy+mh30Up1lqFuBLVooSrQTypQQlSkkSrLULRLUood9BO30kPUt0O0sK4UOopvouvOpYcNzeknI8lS+iqXUFCzFhOakje212yoAWkZ6Tn6KjU7YkASVh2Ncw7mkg+SJfqNb/AHkxmO/+E+N2eAFHHJtdOobRCuuamDKU6brjHAbpa6Mzx9eiZCuxw/ED81YjJYFSeXyiFuQOFKreCYByoPLe4+qV17hrTjJ6o04roXwPadwq64lB0LtuFa+9b0U70LkkmV1290AW5RL3EqpwQSllgSmB1QqiEW9qocFWmIYPUCrKvqNVLgq9hyPxcy8qNY6mHuDHEFzNx2EjglvBIU7W7Len/aZWehh5b8U7o45ymDtCp0z8RBgkYcDx3AOP8L9QQtriHp/D6ttSi0v3b+DMXVUuMlUAL6lY+FKtxtNKjtYA1pJETES+DkzPTyWy0T2NMMmq5xmNuwbMdzkyVT1HltNVzKX9gdV4pQbcrU38/Z8BbbO7L694f124fp7GUHBlem8MmmwAviIBxtc40zzjIX2Pw77PaVGn7um34ck7/iLieSSZmcY8lq9M8MtbHwtx2AHpgfReX8j+TUWcKOcMRTKinLWWz88eGPZhd1zuuSTuO5xJ3PMjBJJIEGMZ/Cvq/hf2WUKI/DLogvOXGc9oA9F9RtdMaOiPp2wXntb+Q33e1PC+kRZ5Cclsi8L/AN+TK6b4aa0AADGB995yja2mjstF7pVVKKw7L5T5kyg+WYbVdCaRwvnXjPwdTqNcC3BkEd8R6jC+5Xdus5q2nyq7ta6I9NP4PyV4n9mu3NCWxyHEkR1IPIPGCeix99oTmgSIcOQev3+6/W2taMD0WD13w0xwO5gPqFpaDzLhJRt5j8mtpFVhqxZyu/o/Nhw4DhfbPYb4mtrayu21agZUbUNUM/qez3bG/CP6zIIgd18t8b6K63rFpaQ2ZYTw5vcHqe6WUqv6L3NVNeqUqnLhtNfwU5Zpnz8H7H9n/tr05tvbtdW93UeRTNNzSSx0wN+0EMZxDiYyvpda6Y/42kT3A7r8A+H6LXPh3b81+xfYS1rrCiRW96doa5pMlhGC3uHDz7BZXmPDU6OKshJ8vDRbjXKdPqtLGcGxvmuc3hue+J/yo6LUyWOG0gCIPKPNOOZxwgL633DcDBHUcj8vuFgJqS2ieR2K+IOfv81S5wnsvgH/APkC6zuatreW5q+5qPZ76kWtcRILCaRAaPgMkh+YGMr6f4U9pdjfYtqu94yaZBY9o7lrwCWz1GE2fjr6llxePtdHRmm8GvJPRSqgkQeqhSqD08sKRrKrhjcNH5x/ik8B02MbeU5Di9tOqJ+EtIO123/cHbRjo7yXw7wx4jrWbnGiQNwhwc0EGOD3BHqv1d/E6wO0x8kA+8pRPU+8GB5xu/NfkavpjxJiV9G/HbFfo8W84bXIq3TTwp1xf74Pq3gz26V6WK9FlQ9HNJp48xDgflCZ+IfbhdODTbsp0gJ3B01Z7R+HavjGmaYX5JgLSWOntaI5CsW+O0anu2LP+3/g2PFePv1EPdFYfTff+hD2j+0a61FtOnWDAym7eAxpEvgt3EknoTgd1V4ft3Oplm2S+AMZ747HH0JVl5ZUy5rQOYLuMGeBniI57lfUfZd4aIe73lI7doDHnAnMwAZz8OY6dENtlGlqe1YXeC9ovFy0k522yTSWP5z8GL8C+zKpVLi5xZktALYMiDOTlvTC/Svs58EtoDMbQAGsjA4M8kuMz9Uz8KaCGgEiT+gW0taEBeB8r5ud/sj0Yep1agnXTwiVvTgIhrV5rVJi81JmTkk0KcKIUgkslHYUmqK8CoZJIFccVAlclQTgk5ygF4lRlSEkSJXtygVxyHJDRJxWd12mA4GeeR2T57llPEXwvMdY+SyPMPFJd0i9wDdvlwEYXdZohoxHkp2L2zJVWrVWyJ4XibOjTxyJrizLhujk/fySm00vbU3AdVvwzcwREAY9ISSsyJCpW0rKbGQsbWBbrt9LfxegVHhC8YXxUI8p7oXxDp8j4TlZ3T9KqNO8kw08LPttmrMlhQi44Psl3Wa1stOIVGkaVv8AjWBr6u9w2g+i3/gy9cGhr/JXKLo2zK1lbiuBwaG0f4hD2t02YKZX9X4Ss3pz/wDUnbOSnTl7sICEU45Y4uLbeOBCS6h4TDviAW+sqG5vZXvpADITHTGS5FRtcXhGB8P2XusEJ7Vuscou5pApTfWkcdFWlHbwixCW6XIy0qofULS20RzlZPQ3uPwwtLTtz9/eUC4QNq5Kb9vmk99Twjb1h6pffVx1SJcsZBfBdp95AhOtPuevRZZ1cHATPTaLgJJTITa4InUaG4aHBIbggHKZUqh7pJrFo48GF0pZQMYr5B31ZdAKfaaHd1n7CwcDn6rS6eIEJLTyNm4rouuzhZbUq0OWpruSDVWgkeqJtYwDXLAmqvk9lqtDYNvmh7PSWuEon+WDOMJTiFOzK4LdSomOUioWlUmNwhN7y5woaVVzlTCPJCm1EWmwcyoCc91q6AECEvvHAu7eaYWzcIm8C7J7kdOcQker2RncE5rD5JVVvYkeqVnkKvJDSqzThzc8SnVG3DeFmLW4258/uFprK63CfqnJp9kWtkb10IXUHy0JjVYDylmp0toxwq9kWnlHVYeEDU65ATKwuNw/VKXMJGFfp9TbhI3cj7KsrgcPZKVagCCB3TOk+VVe2+4eY4K6cVJZQiqW2XIneyMzKLtK6p29CqniDhU5Jl3bu4HtJy5WYqbB2AincKxT74clCS2yKqT1MIJjoKMYhjLLwTOOC0KJCkFGVcmsoUeapFcAUkVcOMHEV4LzlxpQcRlhknHKQXHrjSlt7bDvgmV5q9KrY7KsZxJEYL14rwXiVoxAZlPFNfYZBWO1as2pyFrPHNLr0WArvzC+p/iOi08q9/8AmPIee1NkZbfgpuKMZBUra4lcfMQqLO3cDK+hqK24Z5CUm5DakMIigENRCJt1TteEa2kry0wxisAVQKsaVlS5ZurokAp7VFpUwUDJXR0LoC8ApAKEEehSaF5oVjWoZYJRwNU2MXgFKUGQ9x2FYAqwVMuQslHKzoBXzn2geIiz4Acnz4W21q5hp8gSvz74s1P3lVxmYMLJ8rqfThhHoPCaT1J7mMaeoSm1lcTCx1lXWi06pwvKu1t5PYOGDYadclafS9SIjKxFjVTuyqq5p9S4Phmdq9KrFyjd0LoO65VhWWtKqa21/wB1v0a9SXuPMajx0oPMehi4KDmrrKwcpOCvKaZmyi4vkocFW4Ih4VRCGSDiwdzVS5iLeqwEvamNUgJ9NVPpo9zVU+mlSgOjIXupKirQTJzFU9iU4Do2CapQVL6ScPpqh9JDsHKxCl1BQfRTV1uom3QuGRisFb6A7Kn+X8k3fRVL6Sj0wt4ubbKwUPl6YRzaSl7hFtZ27II1p7n6qQoo5lupe6RbQHIFp0kVbUIVlKiiWU1GBNkuSBaqXsRTgqnBCLbyClqHe1GPCoLUqZwJUVDwiqrFQ4JMzomb0XwBb0vwUWtdETBJj1M/VOLXwXRmTSZMyfgAz9FvGWKKp2i9/PyV0nlyZQett+2Z+x0ICMD5BOKGmgdEypWyKp0lRsulJ8sRKbk+QCjZjsiqdsEYymp7UjcRjgHbTUmMV5aogIGzsFTmKt7EU5qqeFDZKWQGsxLru3Th7UJXppbWRkUZTUrPyWX1LTfJfQrqikt7aKvKA6MsHxrx94QbdUiwiHiTTd/tdGJ7t7jsF8A1PwzWoOcyo0tLeJ4cOhaf6gYX7K1DTx2H3+6zuq6Ix4Icxjx2c0OH0IiV6Hw3m3pZYsWV9/KLLdc8Kz/Y/I9GuWODh05X132E+1UWdYUau0W1Z43PwDSc6BvcetLiZ4ie6j479lmS+3kjJcwxIMjDAABEE4J6YXyarQ924iJAwQZ57HsV731KfIQe15i1z9p/ZEo20V4TWxv+f9u0f0atqjKjQ5rg4O/CQQQZ6gjBb5hBa1S2Mcewn1x+a/EXgL2l3tg7/wCHrHZx7ituqUPkwuBpHnLC2eq2vib+ITU3NLRTtmMczaYY95J6uaS8bPQh0ea87L8e1FdmYtOP3n/sRGxfq+F2YTx7U/mq9W5DdvvHbtsziABPcwAlfhglrt7XOa5vDmkgj5jI6oy3vmvbjBjIP6+SS29+6mXAQQeV7+pxhXjHGDQ1MdNVfC6PT/0z/wC9n0Nvi+/EFl7XjsXBw/8AyBkLaaV7crxjdr6NGo7/AHbnM+rfi/IhfGrfXacR8QP5ffCvdq1LaIJLtxnGNuIM95nEKjZpdJqMJwX9uDQctFJbk1zy+f8AoOPan46vL4sFw5opscXMp0wWtDsgOMkl7wCRPme6zOk3Lnugn5eSP1FgrRBgBO/C2iMG9+wuDGFzyCPhEYJByRPZW4Qq09e2KSQmjxlktVmqX+Hw289r+DN63p9Rvxs3bZAMAwCeM8Ccq3SNLuqpDWmXEEhsgOMdpiT5BfUdI8N1aootDXe5qEVKzWub8Ej4HAmCTtIwPNfVvBfg1lFrWwHbXEhzgC7M9YkEBYOu8pp9NmXcv54H62nT0TlJWPn/ACp4X/v7Hyn2f+zO8cWvfFMY/EGuf0nBkU/UZX3/AMD+E229MMDnPIJO52TkkxPYSQOwTrStPA6dhwntvQj1XifIeZu1Lw3hfsYWp8nZYtnS+j1vRRYC9TCmQsRvJm9nQOF4LwKklNknmlTKgFKUBxxy4uuKiVwS6PErm5cK4oJR4rkrxKrlRknBMlQc9Re5VOcuI6JFyzet/iKd1aiz+v1Vjeb/AOQXdF+oUfzoa5eZWD6jScicBB+63ZQ9Oo0PEuheDnYl2bUYZ6N5Qp7WzIyPphZq5l9TaIJ/ZHvufgkGR5FJ/D17NZxAyl32JzSFRraTYc/TCPxBU6jajaMBah7i4ZasrqNb49ucD+6RZtT4JryzCasTSqBw5GY5X0XwT4gFVoJEEdIWG1qzLnY81ovBFL3TctJ84+4VDTSlC1pfZYuw4mt1vUvhPohvBd+0uhw6/fol+vXzS0xhDezGu19R4Jy0/Z9VaV3+OokKv/DPsVhtjCjqb4CrtmwFVqb/AIVftbSM6MFuEP8ANy6Ewto65QdGkyJ6q+xiVVUngsSisjKhbRkBMaVXuu21OWoO7fChywBgjfvBWb1ake4yjbu6hK72tKX2x0OGMNA07AJIK1Frajaslo92MBbOwd8IViCjgTdKWRZWpOac8Iev3Ti8h0BJdQZt4Ve17ego+4nQfJEp0aY24WWtapmVpdPryEO5SidZHAvuXkcpJduJOFptUttwKz7BtmUpdjYcoeaMYblGXNAOCTWF1KcW9RMkV5PDEb2Q74uEe+0aWy0wV7VqPUIdjnQuq7GS5QO9xnKc2NeQEjqVO6O0+rwEi14ZKjlDWuyRhZq9BBIjK0lu5Ktdc0EEpG7PIyl4ltEr6RGeia6VqLRhB170dsIO1Ic6W9OiZKWB7rUlybWjVlduKYIhLdPqdE0BU127k0ylZDZLgVVW7cJZUqnd8Inuml7SJOCo0LETPVV5xb6LkJqKywiwqkhF1ThQo04XLhy6L2xKksOXAsq0zyoW1Mk5TejkKlzIKVZHEclhXPlF9NsKwqLF16ZXHbHJUbyyqpTCspBUgq+m5RVjcFLOCar3ZVgUHMVu2LaygETXgvLgTG0miCFQrrQuuXQqzhmzJOTjlAFTehXyhuTUshRWQxq9tXKasCvwippC3wchUXz4aT2RKG1MfA70WjpqU5pMVZLEWY3WNQDwQSsjc2/MdEwu6uT6oR7l9o8Do4UVpw+jwPlb5WzxIVOdCPocKD6IOVKmIEL0kpZRj1xwwmmiKaFplE03LO1LZv6KKwWyrGOVQKkwqjk0GXhTYqmq1qhnIsCmFWrGKMhFjQrIVYU5QHHQvLrV3agZ2GcXXL0L0qMBJGd8YuilUP8AxP6FfnDUKsuOeq/SfimlupuHdp+eCvzPqbC17h2J/VeW/Im1hnt/xt+1h9i9aLTKqylo9PtNqrzEbT08omtsqifWVRZWyrJ7Y1lZrsK04ZNJaPRzHJPa1Uwo1FfrsM22sOpvIR9venqltNymrlWsnBmbdpIWdjhtQFRc1Lab4RlKutWjWxs7Mm7QuHKJvaq9qvKgQrpTawygtXtqsLVFygLJS5iqcxEFVyhaJyDupKp1JGkKBagcR0ZAZpKBpo5zVAtQNE7gJ9FVupJg5qrcxRgLcwNlJT92iAF4hdg7cwYtXQxEikpCmuwc2U06at2qYYvOaoIcgeoFW5XPCreEuWDkwYhUPCKcFRUakz5OB6qFei6gQlQJLOR9Jp0FeyiiAxTDV6dzMpopFNWMYpwuhqFyORHauhqlC9CjIWCJCrAVqjC4hkSqnKxyg4IcnIoqIaqEU5qpe1cMixfWpoSrRTR7UM9qGSDEV1aylV5YrU1KSErW6U0EzDX+nFZfxL4Xo3DdlVkjmWja4eYIyD+vVfT7i0QFfT55Ct6fV20PdXJomFko8JnwO+9jtvHwVarSTy4BwHaR8M/VVt9lbfdlpr7nj8JLCGn1+InPcFfb7rTJ6IOppPktyr8k1cP8xYovVeeF/ofna69mt0CYon1a9hB9Pjkj5BVWvs2udpcaLj0gua130Lhhfoh2lHzXmaSe5WtH8ttx+lDnqtO3n01/vj/Q/PVr7LLlxktDB2c5vH/0ytBpXsopj/3qongNYCT6kkxPlC+009G8vzRdDQh2Sbfya6S9qS/gW9RUn7YL+/J82oeBLUNDRRLoP4i94J+jv0wtX4Z8G0qU7KQbuABkl0gdPiJwtpZaP5fmnthpgCxrvLaifDm/9SLPIWyWE8CjS9GA6YwIiBhaiwsAOiItrZMKNNZk7HLsoym3y2V29GPoi2N6rrGKZCRkF9nAF4ldXAEO45HgFIrgCkgbJPLgK8olccecV6VBy4uC2kiVHcuOKihZx5zlAlclVvcoDO1HIatUXalRB13ocolIruKyV3o3AhW3dRCU6klZHlffU0W9LxICvPgELM6pa7jK1GrAEJSxkwei8FfUm9rNuuTSyV0qrm0ti74Wvw2pt5JPz6qOtAGYOYWTp0qjXgsMOnlZl1uyxYQ9JOLyfY/fuPeFkddDjV+Edc/fVOdE1OKcOy4DMrP3l+RVz3j5SmahrCbEUxw2N9Lohxgj8k4BaxvkvaHtgGOfJX63tiYTmsLKAfMsGO8Ts3NJaClngWo6lXnoefqtR733p2tGJTLSPC4aS89VVWmk7VOLLLsUYbWbjSr4OA9F3VHS0pVagtEjhcutRlp++i1p8x5M2K92QOk858kXp9TKzVK4fuMyBPf9kdplV5f1hU3guygnyfRNNfhLNXqQYU9MrEBB37i5ymUStBcsDq25KE/lOU+2fD/dLaJ+IoZVpBRfORRZM2vzgStbQvZiCs/qVqCVTb3mwxyh3YDklNG0pv6qrVKMgEKrT6u4DCvc8Qly5FRW1mdqtIPkm+k3gBSrWK4+iosa88FK6LU61KOWbao6RhZ6/tzKcac07UDrIPToUWBFaw8C2oNiaaVfAjzSao8ux2VmmU4IRtBuCxyaK8pbglQui07UdsdyDhIr1jgZQ5wDCKfBZqNSeOVPT3uETlK6dM75JJHUStTaUgRwUmcdw6W2KCrd0BC6nZ+8hd1CpDYULJ8BKWE8MXGLXvQmfYEOg8ffVF0NHLTuaR5phWqjqibKt2Tkkzp2yRRQZBzgo59QBdLAcoTUqZHoqs63DLQtSU3yTpODsqyhygrITkK0V4OVyfTClHloYIHU3QETTqr1zS3AhHYt8eBUHtksgmnVsBEV0utKRBjsmJVflxwOsilLKJUnKxwwhmuRDCpql8MTKOCpgwhvew5EVHcpcTJUWLA+uOc5HFN6mqKIwrWlWNPbxhlWS5Or0Lq8n7U2QQeV1pUa4XWFV3lTCxwTVZYphdKsNKceQc4OsCkFFpXQVaraSQJNV3AwVaFTe/hPotOpLKYuf6WfL/EdABxI6ys1XuC3n7C1Wotkme6T3diHBfXvxp4oW55PBeXh7+AX342ypUKkoKvZkCBwo2jyDBXqXFdoxFJ55GoqAIui4dMpRcU9wIWboavUpOIDuDxyCsLyWpVDW75PXeG0j1EXg+gqTVmtP8UNMB4j9E/tq7XiWuBHkVTr1MJ9MvW6Kyp8oNpBWNVNEq2mU/JXwTCuYuU6SuZSVazV1Q7aDVUn0cY1XU6Kk9kIN2okGF53XfkldLxE0KPHufY4o2aJFsIyqLeoTBRQqSvPWectseUyz/RKPBTS08Lp0/sjmMwrqY6qP+O3L5J/o4sy+r6QXAx2X5e9otgaNxUDsS4n1X7Ra1I9f8J21cf6tJr/AFAP6rtT5WWqr2zwXdBZLSS46Pxfb1k3sa4X2Hx37D2OBfZnY/J926dh8gc7f08l8Ov6FW3eadVrmPacgg/l5eaxHZKL5PWabWQujw+TXWdyndpdLCWF73T6xuuMqxVbkstZNrZXKe2NRY3Tq60thVWlTMo3RHrXq1lVAsqqH8wrbmZ7iN2qbEBbXXmj6TpR12CbIBdFyuhC0yrqVRbGm1mOGZGo02eUSLVEq7lRLVrRaayjLlmPAO4KvaiXBV7VzIUigqLkQ+mqy1C0GmVFVkIgtXNiFoPcDwuEK/aubELR28oDVINVrWKQYowTvIbVyFcQoEqMBbiEKDipPKrchwRkrqBQeVNxVTylyC+Ct5VNRWPKrKTJHJg7ih6oRFVUOSmicn1kNXguhdAXocmalkiurykFDZ20iuKRC8QuyQQcorpXCURPZFwUCFNyg5cjmVPCpeFe5UuC5kooe1UvaiXhVuCjsLIK+mqX00aWqLmKGiciupRQ76KbuYqX00KidkS1LRUus08NFcFBFg5sRmw8lNunjsnvuFJtBHkhIS0rAI6lZeSYC3RFOkuTObBKFr5I2lQV1On+iIbTQNkIrpUlexikxinKBshnAF5wXgF5Dk5EWry6vKAjy81cK4F2Dj0rhK4VxR0SkeJUSV4lVucg7GHiVEuUXOVTnLmwUuTr3Kmo5eqOVD3JeQsHKjkHXqK2o9B13JUpBoAvXoCnWhyLuylNycqrqIb4tDqnhjK9buCg+kCwdMKNKqXMkcqdmAWGTnK8NqYKE2jcr5ihDaUxvfmUTpemxU3O4/wlxoO98A3knMrX3VGB6ALHrnvy2umWJppAeqMx8P5LE6yKoeSJ79/0WmtqpdU2boE8JvU0bMtzwl3VetzE6EvT7A/AupvP4wVpdeuhsMBLadkWOBbEwvaxWqBuQIj5pvMYbWL4cwfQn7cwJJz/AIW1pVQ4D0WD0G7aBLuZ47Le6XcMqNkdlZ0suBWoTLLmu0Mjqg3EFvRDa3U2GULaXm+AcZ9Ec55eBUY+0OpWrZBI/RPbfTGwHBU22njbIlTr3m0bVKxFckOUm8Fpaf6UDVLtyPZW+GUHaul5M4VWffAyHRY4OiEFU3MMxhaL3WPNKtVIOELkRFiPU9QBGFT4ft3PfMYU6tvJx1Wg0a192JiO5UdvJLeEObajtCruWYMKLriSiBUaok1kGLMZqNm5ziAitIt3DBCYV6cPnumNrSGEEYZY+dyxgMp1ob8lU9wIKjqDMYSl11tB81E+BcVl8EHNG7HPKYWTB80psXHdPQp7bRjGVOHgmTfQY3AykGuOH6rStghZvXaUFLbZFL5FVjcAOytfp9SQIWNcz4hPC1GkVsCFCeew7VlBt9bbglDGlmCtA0oTUbPdkYISbK88oXVbj2sVk4UbO4h3krDbpddywyMrllFjYpGot60q2syRCUaZVn5pwEUZNop2QcGLAC0wEHrgOImfJFX9WJPZLW3Rcc8cQkyjhFyuLbTCdEuXHBT1hSe0ojomlAJcJe7AnUJZyilxhysquwvVqOZXQJwUePgXlcMqtnyUQcKDKQGUm1rWgzGPv910a8InG58DSo4KulUHzXyXx77VKVo3c5wET0kyew6r4zqn8QVxUeG29N5k/Dy4mc/hEbR6norlXibruYobsSXZ+yW1B3VoX5N0L25XVrVpi9pPa2pBbubIImCQ4E5GV+lPBXiuje0RVpOBBGR2+/2Uz8dZR+srSX0PiV1jlQ+qpW4VGFuJ4OceCdcL1MQpPXgmS/5hGeDq6CuLjSmx7wCTXgutC8rkYYSIyTBVV4fhKtChVZIhXk3jgDsyV7Zgyszq9As6LYXFMgkIa6ohwgiVq+G8/do7UpfpKGv8ZG6Pt7Pmte9yQVQ6vmRlOtY0cbjAS3/01zeM+q+z6TydN1anFnz7UaKyE8P7L6Ttwxz+6zWqeHas7gAQefJaixZHKM98OFR19MdU0bXjNbPSJtGJsfDzz+LHb7+isbp9ellpOOglPruoWnHCP0SXchY+r0FWnrdjeDYo85ddPZjIq0LW6rsOpk9yBH5LV2lSehB80dbUmN/pH0UK9wJwI+S8Zd+TygnWmby8fGz3bRlbNkKqm074KnbXEKykZdlefnr5z5yOWmjFdBVa2x3SappJ3z0T6qYCraJIKrWXRl2FXFxKqDywiRhFCJnurNTAiD04QXIEcykytcehir3csa0noo0sJVa03SnNuortb7BsjtOUjhWtCi5i5uhS7GmJ7PVaIKwvtC9nVC+g1BteOHtgH9FuBWVsK1Tbv4Z0ZOt5R+UfaN7MKti01WO95RB+LHxsE4JjDm8ZWG0+/gr9o+IrFtWm9jgC1zS0g8EEQvxj4w09lvd1aTPwtdiek9PRHdTsW+Jv+O10rfbI1+lXS01jdrA6VWwFobS4V3T28ZZbnzk2VK6wq6tZJbe5RPv1d9TJW2sY0LmE6068WP8AfJhp9yojZgXOGTcUqitBSGyu8JlQuFbrvKkqg6nVhFMqApWai815WlTrnAo3aPehq5qrLUNSunImnXB6QterWQsMu3Rzh8HIUSxXEKMKysPoqSi0UuYolqIhehcDhgu1da1XbV6FwwpLV5WQqnoWSVvVbirHKJCWSUlQJVjlW4oWcmRcqHlWVCqCltBuZB5VZU3Kp5SpBR6Kq6HeiXuQ9RLaO+T601SaohdC3ShE6QuLhK8SuOOrhXQoFciNpwlRculRRkrs8VBylK4UOSU0VlVlWPVZC5M4reouCmQoOK44i4KJCmSouCg4gQolintUYUPJKIbF7YrQFIMUZOKtik2mrqdNXCkiOKBTV9KmrqdNXNYhyc0VNYp7VKF5yjIOTii5SC44oWSiMrq8uOQs48uLy45cSeJUdy4VCVGQuzrioFy85ypeVGQuiwlVOcol6qc5AySbnKlz1xzlU56FslHX1FQ9yjUeqKlRBlknnuQ1VTe9D1HJUyUgW6KUXRTG7elVYpLY5LAxt/8A2x99UO1xnyhe0y4BBafkp1GwOF4vyUWrXk2aJJwQpvLvY7d589uqfW9/vph3MhZvWqO7AQOiioxxG47c4PHlC8vK6UJuPwairU45NVpWkl7y/iFu7GjDB9FhfDF64v258xwPy6L6RavO0YiAr9GHDKKGoymjM6lWFN0nqULVcKgJ+iJ8W2ZqYE/JV+H6Apww5P3ygW6Umn0GlFQz8gWj+GmvdOR1/NaK3t3UQB0RtGls+IDnsoOr7nQcAcp1cYx67EtuTEup1dzhKY06YBaYBjt3XL+g0mAuV9Nc0fASCe655zk7KSwO9NuC7HCG8QHHKqsqNRoGZHXCr1Nu4c5UTllYBjH3HLKm8tyQB0zlE6YIdyuafSluCvNG1yHbwGljJqJx8lmNbqw4BMhdiICVXdMOdlLlHJFa+zjACQQntu3CVfy4ER0RVnW7qekBNB91RxIS+lXJTZoBCQaiNjp6JEuGHWsoZvbIXbOtBhU2t0HAIS4rQUeccoFxzwaqlBCzfiCwgyOE00274Vmo/E0rpNSR1OYyM1b18YR9jWJiSltW6aw7YkqVs90yMAo1+kbOPOTXWNSRCo1W2kSOUNpdwPNHXT/hSBKTUjKXlKZUbS+LSBKhf7hP0QllppJ3FLyX1GPybjTLiQjanCT6AyMJ05cumZ1qSlwJKlwMzIKW3FUnEfeUz1ajiQoWNEHMZSm/guRktuT2lWp5TsNwhqFGERUfhcmkipbLc+AKvQk5QTrIA4TJ7pVDnZhC+R0JM7bU4RzAqbdwVtcGMKIQ+RNkssi6plUVK4Cpp14MFK9UuYfA6hHFZ5GKrkPv9SDQfRfnz2+e0llq2OXuMMA7meecR3Wy9pvigW9J9Rx+FrSTnC/Bnj7xTUvLh9VziWz8A6Nb0jseq9B4fxn9VPMv0rv/AMC5yVS5Hd9VuLqq6rcVXBkktJ4joAyMCMbj2W29m/iiwtnOFZwFRv8AVBcCMmMCGnynovilXUHuABc4gcZ46ETzHkt37GKQL6hIaYAwRPf8v7FfQvG+OU7VGWMfC/8AfkzNXqmoNo+0+K/axpVzaut31BP4mTSeYcOMgYzlMP4dfEfuLhjGvDqFcYaHS0P6wf8AaROOhC+Z+0HQbJ9B9R9MUarWlzalOGbnASGub+F4JgcSsl7B/EJpXlKiSdlWo3bH9FQcEdgctPyVP8k8PhSa4eM/yv8AydodSpJI/plTZhXMalPhy53UqZPO0Jwwr5DTGMrH9mjPKPOKgCqbswZ7quiSSmWS2y93ZMYZWRgAowvMXSrrxKORRJi7C4xSVuD9qQJ4LxXlFxTt+1A4Fd4MlLLoJ9Uahrm0BCr+puGLgzFxSDpVFPSwUwvqMTCqoOd2Vujy1+nW2LZE9BXby0J9T0g5LVmqwLTBX0CoSk+pWbXdFuaX8sugsMztT4SEnmIjtbXdCcWdCMBdoW8BFWlQBVPJ/kNmpjsb4Leg8SqXuXZ6rRMShKLZTW6rjaUjL4kry9zj2jfqUvkYWuXQeE8LwI+Sz1jdAo+hcZURswgJ1M0IaHCFAWZafJQtKwKaBshOWJIpyTizO6pd/Ft8l2yqfqlus2D21Z6FXUa4aIOEjnJd2x25RpLSojqVRZ21rk/hTSxrkp0WypbWNUPUwiKZVddqtNe3JUi8MqbCuaUMxsIqkgps5CsXANqH4T6L8U+2K4YdRr7DIBAPTPZft96/Jv8AF5o1G3rUblnwvqkseP6XdQf/ADGfqVsRj6kcIf42ahaYvRrnC0llXXzjR9Q81rdOuphJrbg9rPRWZybGhWwiPfpRYPlHgK2hG8uFZEUK8JY8q6ihTObRpLO8Ti2ulkbV8FObWsnQeGLlFGkt7hHUnykFvUTO3eVZhNsXJcDRgUixDMeiKRVuEmV5IkwEK9tY9Qo03K5oV2nUTj8lSyiE+yQIXIXNvZeWtVqk+zKu0mHmJ4rjguuC4VbzkoTTK3BVvCteVW9cyEyhyi5TcoOQDCmoqyFbUVTkMifgreqCiHKh4SmSuyt4VFUK9ypcEpjGyolUvV5VNVBLo75PrC4VJq8tszkVkroK85chESSleleK4FBzOOKrKm5QCkk4vLxXCh4RyIFVq0hVwiJwVuUdivLF4NQ4IyyktXA1EFi81ihklJYvBiI2LoYoydkH2KwUle1im1qjcRkpZTVrGKcL0qMnZPQuErhK4SoySjq7KivKOCTgK85eKiSoycdUHFdJUSVBx4FRc5ccVBxXMlLJ1zlAuXCVW56CU1FZYcU84Okqmo9c3SqntWRqPKxg+CzChs456g96hVEISpWVWPmovtDv6VhDnqsuQFa4KGdeELl5uvOGT/SP4GFR6pc5BVNSag6+q9gmz8xQlnIK0c2xk96HrVUvo6lJg4XqtwO6OvX1Wrhnf08ona70vuqisq1wg7hyCWsqXG5HenL6K7ap8YkwJCfV3zhZQtJP3hPrZ2AevB+/qvOeUnGbzFl3StrhlApHdCLpWrSrLdwnKM1CmABt5K8+4JZbNaM+TPXNd9B+9h29O6+geGPEAqt5l39SwlJpqFzXcDHzTDw7RqUi7b+FUdNZONntztf+weogmsmk8Q3DhkTj7+in4fAqfETHeEsvL8uadyV6Bq7jVFNoMdScfkrHqqNmH8ivTcocH1JjBt5Wd15+zITq0p4yUp8RUxCbfn4K2nWHhimyu3EgwtxZtDmieVkdGpguAW3sKEAYR0p7eQdQ8SJmkISu4pjOE8rNwll0Q1p7qXIVW8GeoUXNmDhVODjiTymAfDfU4Ren2fdLTzwWN23sHsbVwySu3LTPOE6rkAIS7YC3MIpLAvdllFvUBHKGrEA4K6LaGy05Q38oTncVDeUThDy2uhCF1is1zecwqmuxnognvA6JbSGQXOTlrdkCBlX7S/PCFsbj4oHVaClQxhTjg6U0md0+iQFZVLjg8Kh1Xag//UgcSkNYAWZcgNzbNNTMlM7e1jzCFu2g5HKjRrEED90eWl0S5t8Gn0+1ETCHubjMIi3r/AkoqSSkuSfBEIZbycvAJCOsGA4CXVawnKO0+qAUyMAbJNDehbxlQu65aUZRdIQep08T5IJxwhcHmXIHfVpGFVp9dQ24VNP4Skyg+y2kujR0XyqdQmJCHsLiUdUEhT8YKzW2QJbVe6ld0Zylvvdrj+iZUbkEKPjDHTg4vKKaJgo+m9K2GSmFFqWm0wLooV6y7a4Hp1WI8X6vtMjkfuvod9Q3BYTxLpoMiESy1wWtPKOOT82/xOeKf/hTTEzVIB9DBP7/AFX5cX6N/ig0c/6eCOSPUDiJhfnc25gnoDBX0T8cSWl5fOXkzvIrM8rrBSFrfZjrrLev/qYp1Btcf9pn4T/48/VZIomxtHPcGtEkmPIT3PDR6r0tF7pmpr4MycFJYZ9O9td48NpBjgaNQHLYIJEHn0/RZf2N2bqmpWjWj/5ocfRoJP35rY634NoU9PL6tRoqNYXMh5ANSMBrCch3WB14X0H+Dr2a1C919WbtBbFEEfFtwS7yDjtjyb5qv5zyUZ1ytb4xhBaPTuGIo/YOgUtlJg8k6t3pXTaYA7QmNqyF8Vi27co2bksFlwyVGnThXFVynXrM8sQm8YLQoypNXHtVtwezKA+TrFYq2FWK5p2tqBZ5ccF1clMljPJBUWKpyIVVVqozjzlDIsSas3KoIV9U5IPMokUwlOeS41hCyqcJbVoI/V6O34h06IWyqb0KkMUOMgVy0qi1ZnKeXVok95ScDIQ25RYqaaGrLdpCCv8ARsHb1XbS84BTyzfIURlGXB0t0OTEaXblriHYTB1BwM9EfrtAA7gF6zdubCF8cDHZuWQjS68rRWVTCyElhmE20u+nrCKueHgrXVbkP7igHDI9FltUoZjzytNSuMJLefjnpKsymVqsrhlmnuAATW2YOUlqmOEw024XK3nBM08DPergg6hyCiaRToWZeCpJcFV2FXaVUXWZIS+k+DBwUydEs7oEqa24ZbfvIEr5L7dvCw1GzqUoHvAN1NxHDxEEHoeV9cvBLVjL1hkgjC+h/i+npupxNcnn9dqJ03KUWfgGldPt6jqNYFtRjtrge4/Y8rbaNq3C+qe2b2Pi8L61GGVwJaY+F/8AxdHfv0lfnW5ZcWdX3VzTdTcDEO4Pm13D2+iqeY8M65twPdeP8jDVVLLxI+06RfghPKVeV8w8M6uHDBW40+5lYcM9MsTjhjxiMptSu2rSmlBylAhVuxNLdiCtnJnSIXLshhVumdu5KqbkXQcrFT5FSbY4pPRNN6XW6MprRrRWkw+krwg6SIpuVqMStKQQ2mpe6Uab1eE0U2DuaqiEc5iHqU1e092HhlDUUf5kDFVPV7gqaiv5yjNawUPKgVNwUVDOT5K3qoq56qcg+BhW5UPV7iqXJTORS5VuVr1W5LCyUvKpqK56qcEEgkz6u1eIXV4rZKKRUV0Ljl4KTmicrhXF4hcdkiVyF0rwXHEdq9CmvQhZGSuFEtVhXIU7jskIXA1WkLwapyTkhC81qnC6ApJI7VKk09VJdlBggkGri4CuEpZzOPKgSuuUZUhnVwOUSVGVGDsFhcvAqBXA5RhHYJkqLlGVwuQnHVBy8Sq3OXZOJEqD1CrUAVDau7Co6nWRr4LFdLkgmnlRLAoW3ULjsrzOu8jOb4L1VCXJ1RfSRDGr1QhZE7/stKAsuqeEu9zPVN66XPVWduRuwX3NFI7wrQ1QkWsMgHCq3WpLI2uLE5LpXqshQo1VKq9Uo6qPSZaVQHVuhxwo2tz3P0QOq0DyCq6BbHdVoeRsg2GqU/ga3FQRgpZ74zEqq7rAcIVu4nCVbqp2PdnH92FGhIdCme6Z6JJbnvj5LMfzZAgp34crl1N09HQPTlW6NS5y5BlSl0OHYTynUY5oEyY+azxqyidPMEO/JWFb8HOvBN1EtqSBhPXwQBx3St9zOSEwtLxjxEZHK6rEWyLHuwD6oRgDOMpRT3U6gewAwmdzSMyjNPoY4meqBxc5fwT6m2GBp4dvnvEuJn7/ADRWuD4T6KWkW4azAyq9QkjKfOLS5KdUvcIdLuR7xrS4Nz6Z7eq+m6bTBAIdOF8XvdL3Onz/AD/ZbXwNUdThpLucAkkfKThBo7pNuMkO1dUWtyN9U7JL4gp/DKcUTIlA6qJBHRXbq/ooUv3GNpueXNxiVrLAkgff2VnbiuAYmD0THRLlxEOIMcFU4IuXRz0PKtIxKV168kgjhOLc4ylGtgjI6pkkytFZeAP3sEAdUbRpcpQ5rwJMfuiLO6LuP1R44CkvolqTNolZq4u4PIWl1AkthfPtZbDznhVbntLVC3I2Oh1RMwm9bUQ0cr5xYat7smT0Wd8Z+LXlji3A4ny+RCZGacRdlL3Gk9pPtatLRpDn7nxw0jH/AJOMBvpyvzl4m/iFrFx9x8OcGA6f/u6fJfK/aVrbq9w+SdrTgTiep8zPVZMlet8f4KrZGy3ltZx8Io2ap1txifa9O/iO1QOG6owif/2WnHnBBK+p+BP4kmv2i5ZTM43UiWun/wAX4PoD+y/Jek1mNqMc9oewOBc0/wBTZyOnRfozQvaxo1OkKJtwGFoBaLdrm5nEETInp3Wpb4Gm+PtWBMdVJP3H6y8E+LKF3T30Xte3g5y09nDlrsjBTS7teYX4v8PeMKNpde/06pU/l3kONJ4cAOJaASdzOonIPlC/W/gfxSy7oU6jT+JoJHYxkH0M/ReD13jZUWuJehYmskv5d0nqrrS7goy4rNbk9UF/LkmRwVXde1DNyl2aPTLvoj7gy0rOaeCCn4PwqpObzgXOCTWBSx4ByRhLr+4BOETWpy4qR0/qOVKm9uC37V2X6WSnDSgLClHRMAUrcVb3l8AN9Yh2VD+XDUTfVYCGZczCN4CjKWAihbdUYAvUipFqmMCvObk+QStUhItVoiZ7pvfnMdkpuTnK5QwOj1wfKPbh4K/mrcljQXslw6Hz/dfl1vhFsOYaZMyHNGHg92zw9pzntC/fL7YOHdYrXPZxRqVDUDA1x5IMSe5HVy29JqLIRXpv9yrJvPJ/PfxB4WuKDy11KoR/S/Y/a4dDxg9x0+hRHhLRr974taFd7nY+GkXM6xuLm7G9YLoX9CdL8POZ8JDHNj+tgPHqtho2jsb/APKpj0b19Pp9F6F+ego4a5Feh9H5O9jn8N9erVFzqXxOBDhS5aOCDUMAEjPwAR6r9d+H9CZb0wxrQABGBiE0pMU3uXmvJeSlqX3x9DoLbwiijSEokBUtVzSsamMchzyRqFVXGBKurBVPbIhTbFZOiTt6kq9ypt6cKTqitVSUK/cBJZfB0KYUApo6AWdKg5d3LzimWSjJHYISokqt7oKkFmOznA3aBajZzkIe3cnMIOrbgGR1RyXyNrt4wwK6oyCEmbaupumMH8k/JUK9MEFLeCzGWBe2uCFH+XmUquq2x0eaY2VzKV6m54LEq3FZQp1O22mV6w1TofRMNXty5qzun25a6Hd0Ek4vKLEHGccMeXFQuCGbSe2SMpjbMaUcbQEJ8Y7lkqu3bwILjcQEZptGRnlc1RmyCp21YHI5Q4SYTllcDzTqPRd1CxMSENYVsp1b1QVcrimija3F5M4eIPRStDCL1aw+LcEso15MKJVtMYppocWlxKZ0X4SO2TOzq4RRjJFWeA5pQOqOjMItrlG6ZLSCtjxGqjXclNcPhlDVVycHt7A7K6BEJd4it/h3DlL33Ox5E4lWatqg2dMhe6l4qzS6mFtH6H2YkNXG+DjZ2j4R7dPanW0l9BzaVOtTqlzXNcS0iIMtIB6SM91iL/2z6JqdP3V9Qq0SepaHta4/1MqMO9kf7iB80B/GnXDm2vcPf/8Aw/8AS/NC1tbc5Swy/o1simuz7Xqnh5tAmtZXNK8tJ5p1AatEnIbUZggCW5jrlP8AQdWBAyvz3bXLmHc0lrh1Bg/ULUaF4kfIkjnPT9F5XX+PbfqVnrNBro3YhPs/Q2m3YPBlaGyesR4KO5gPMrc2bFjxeVll6aw8DW0CYNS+2KJdUXCmwxlVF2tVI/eFF2pJ7plYEjS21RMKRWetd3SU0ty5adUsoq2cDemURTS2iSi6NUq7FlRhrGohiEZUV9OomoW2EgrlRq7TKuAXdC28i2sxDPamtWiga7VoUX54KV1HyA1Aq1fUCpIVso9EXNVFQIlVVUD4CyDKDlNyiSgaCTB3hVPRDlQ9JJKXqBU6igSgYa4PqxK5K61chbJTIFcBXiuhSQdXCVJeAUEYIBeUiFFSQdC6F4LkKGjsEXLwUoXIUYOweAXiF1eKkg4AvFeleJXEnl6VGV0IMnHQVElcKiShZJ15UCV4lcKIYjrV0KAK9uQNHM64qBK84qDioZODocuErgcoucowCdc5VPcvOcl+pVknUWenBsZXHLOXFYTkqn3wBMEoy3s2kSck9UBU048jiZXiNVdJybZr1QSQ1s6cNmZlWUG8qrT6ZDYRFQ4WfbMdGJ0uVNYqDnqJKoTmNSBq70LtMo9zFTWakSkNwAV0p1RkghOLlqVXlAlInLhobWZd9GPkhTcBO61mMpNq1HbkLFvhKPK6L9eGL9Sq4KT29bCu1C4c6YagtsDzU1Q9vJYjFYC7utI+SvtKkAFZXVr57YgFNNJuajm/E2PNPnpmoJ/AbqzyMr57SM/JS8P6pt+HoTkfKEvvXwEktGVPeSAYR01+14eAPTTXJ9VogHjtPyKKpVYx3Wf8IP8AicHckYTd7SCrlLUq8lKziWA24rBpgqypSdtmmc9+ZUK7Q9qO8N2TtvOM4SnGTs2/H38nZW3IBa3FU4eMrWeGntOJSbVJb0VFhdGmd7c9wnUSdc9reRdkXKGUb19OBhJbusQSI+qJ0vWt7Q5wDZ6c/mq9Te38U/VaNuGsoqVwwwCgwF2P8LT2NkJGeyzml31Muwc9lt7Cqwjv2Q0QTJvm0jtNh4nCjc1OnIRxohwSS+cWk9k2baWCtWuRPXsw4k7coV1tU5GITi1qt7oig5pEDlIVS7LMptcEdG1NxAa7kYReqGRPbooUrVoMxlWVnSDhTJtcCljdwLXX4Ldu1K2ENcYkInUbQjIwSkzrR4dMmEqVr6HqvKHtWv8ACvm3jW72un6ra3O4DlZDXdOBkmTz/wBKtq5Nxwi1pUovkwt5qgceSs5451TZbVHj+kGfLqtReaRyQEu8deEKj9LuqjQS73ZIbHMZMf8AKJUeKjvujFZ7Wf4zyHqGksn5HrVCSSeSZPzVa6VxfWkeVbyOPBp/+KoTEe9ZzEfiHfC/Xv8A6NbVWN95b0X4/qptP7TK/F1CpBB7EH6fsv1F4d9oNrVsS43FOhWDC3a97WneG/0z+LpwOvmtzxVkFCSkZ+sU8pxyfOPaVXtKN4KFtbimR+PZIEnj4Zjj9l99/hp1dwa6k7gQ5vzGfkvxlc3lSpV3ueXVC4fGTJJmAZ7cL9Tfw+NqMeJk/AMrwn5Nt9RWR+WbWii9jTP0xWO5MKdvgQl2jNLsrR02RheRul2y0srAPp9vz5Ix1TCspUeyX3ri054Ky5sbHEmVOdmUZa1shLqzieFKydnlHBZGWRyjQNYuVqUjHKrsKshFOT1XHHJRbaZm3ViSWnkKfuiOFXezvLoGMFdZXc7oEiO0vNPCY10+5kdiOUa1yR2hc1XahqIptLjjz81arWSnZHB3WrlrSB1STULgEDuoQapDuiNtLQHnKTf7XgtVwwk2d0qpgSmjWAqujYjsj6NKEym9pYRXtisgQtROUbQCBuKnxEK+0qyqlk5OQTj7Q0IJ1bMHojQl98PiXWP2g1LLwzz7hEWtSUNRpyjKFOEEJ5Ydm1LBcVwBQdUVda4iPNO3x+RKi2FtQ9almVOhUlTerM3GyngFZiyNNScotVq6iO6GCGVrhUiolJksZSOA9QfGVK1rSFbc0pELP1K5pugrNvUoz3fBcqrVkcLs0gKpvDgqmxuNwV1wJCfGbaEbdssMS1bpFUeEt918RBTW1hCpcl+xYXBmdeoQ8H0lMdLotTPUNMDwktWk6mY/Pupw08hxu3xxkfi3BCS69p8ZaEdp18OCj7ggjGU7iaKynKuXJjbK8IO0iCtVYQ4eaz+sWRB3geqLsbyYj0Q1e14LN0VOOUH6nb7xCz9K2NN3cdFqbczlAavR5Rzhl5Qmuxx4ZQBwQmFrccJbbVhEdeysD+oTYppZAm0zSB8hYrXLdzXy2Y6+S0FlXKD1rr5rW8dKM7YxkuzO1Wa4NozdnqFRtSHZbjK09vehwkLM+8APZSp3XuzI4PRfS7PxWi2v29tHkY+enXPEje2b5VtyYB9FndN1FMtQvgGd142f45dRqFHHGezdj5Ou2vcZPW7kFxCy/izWmUqW6o7a0TLj2R19cgud5L5d7btXp/ydZryDLHbQep6fnC+tekqtOs/CPM6GDu1OF8s/NXti8Sm9unndupUyW0u0dT81g3UkxezopU6a8XO9yk5M+ix8esKCFnuSrrGmdwTJ1BVspQUt3ZQ6PjfTnGX7n372YP8A9JvoP0X0iyGAvmnsibuptA7BfV7G2jleXzjP8s07/wBTCKFBEC3VlJqntQ5K7JUWhMbNgQFNH2rk+poXJMYU2BE0wg6RRIK0KmVbGEgK6mh6b1dTKuwYgKplWMVVJXMTsgNMuYr6dQqlitYpwCuC9r1RXoyrgF6FyyiOBPcU4Qz2pxc0UtuKa0KLs8MoaijbygYqt4VhVbk9lUoqBVuVr1U8IWiSl6oeUQ8Id4S5I5FTyqyrnhUvKU0NPrAC4VJRctcpEHBcC6V4IgWTAXHBeldKglEVwheK4uIOry6orjjy4V1RK4g7vXiVCF4qNxJ0uXtyiF0hC2QcJXQokryElcnSVFcleJUHYOFeXHLiIYcXCVx5UCVGSMknFQlRqVI5Qz7xvdA2hijJ9IJlVPcqf5gHhRL1yZGxlj3oGo2XgHg/qFY+qo21Ru7PyWf5GX+Exun/AFDWlShuJXqTZVnRAVbjafVeEuu9xrQiHlkDCAr1c7USy4whry2LiCql0sliCweLF6gZXKlFwn0XLI4VSYwJLEHX5RxQdyMqvPsOEcgVwxCVqSOuEK5QxvQovaaS39MFP9Tbj5JO+iqN8c8FitiCtapDf0gD8ytjc0lmNeZjHdUYxcJYLlb3C1lnMHEff5LtZxAzwEXbHAVN+JBBTVNuWH0M3MG08CqTPA/P+wTZ1ARAGen31S3wuAA4dk0qEDlDe8T2roXPjonproqMjmYPota1gJWDtrrbVbHdbC1rnEcE5WjoniLi/wCSrdHnIRcHbIH5Irw/qbh8JGJKNsrYOmUUywABwnyqmpqSfAjenwd1RgcMKOjUWxABnqqqVy4A4lUU7sseNuATlL9Rb0xqi9g7d8IyIA4AQDnioSB0WgcA9ncxys05nun8YKuWvbj6K1fJGjpbgS5vTzWk0K6c0jfwqtGr7jtPBTx9oBGMBWK6sLMRN8vhja2vQRhJ/FFQbcfko3lwBnA7JdcV9wjmUVs+MAU14lkn4Z2xJAk9fvlNadKHSlQ0p2Okdk1sbeRDuQlQlxhoOxLOUM6MHzQ95S7KVEbfRdr1gUUmmuREezN61ehpE/f+ELa1N/UFW61aB7ihtEoFk4VbPuL2FtDbq3McLL6y3kQtnVeTwFlfElAmQBlDd+xNHZk763lpjkdl9C9ldCncWrqTwCfiY5p5zj9Fm9FsW8HJPdN9Oput3+9pYP8AU3o8efY+ab49quxTO1HKwj8Le3n2fVdKv6tBzIpOcX0HR8LqbshoxG5k7SPId18+K/pf7WPB9lr1qaNX/TrtE03wN9N3QgkfE3ie4kdV+I/H/sF1WxcZoG4pjirQ+KR0LmfjY4jMQQO6+iabVxtj3yYVlTT6PlamHGInHMdP++U2tfC908wLetyBmm8Aest6L6L4Y9iFxULTVIa08tMhx7bSCfzAR3ayqle+SQEa5S+DG+zbw4+5riGksp/E49JkQPM9fkv2j7I/C/u6QcfxH+y97K/ZLTpMaSzYwQQ0f1cfizJ+a+r1tODA0NAEQIAjC8R5TWy1Nu7/ACrpf9zT00dsdpZY0S0JjY1QRlDsOM4UNwHBn0WXbHcG1jsfUXhVai0EZS+0vR1UNUutwLVTsTigYx92ULnXIaTHCCdcEuBGOyIu6EDKjaUhAVd6iS4NKO3A40yqRCbC5QGnUxCuuqJiQeF39TLooWRjuAL6p8Xqr7JmUpuHQZKlY3hlHVlsbJrbhGkr0hEr4t7QvGhfdssaILnAg1TwGNBHWeTwF9duNTY1vxH/ALXzbwp4ZDru5unCXVXNDTH9LRgfqVs1VNLLRl2TzwbvRrcCn8sIui2PRCsft+FH2zJGfX8lTuxKRbi5JB1BwVlTgoOmESThKjNICUeRFUrEk9TkImwkH1XPdw5MKFFIctzLM5RSLC5V1wCp3DoSuvVM+SGa+BVUHLoMomEYwyk1KvlM7Vy6n9RN0MFN+CDhTptkZRFwFRRdlDdxPAKlmIRSZCk5ykxV1qaubHGvKEZy+TzCrQVQ1WhL01j6Okjzlxy6VxHPtog5KVa9a7gHdQjL98BQovkZVKyX+VlmrMMTQJpghNtsoajQHREtTakkiLp7nlCy/toMwhGVoPKc6iJaVlyJPkFa/wCH2W81LIUNVBLE2aK1upUNXtw5s9eiEsWs6FTv7wBsSnUeOuctkosrWamqPuizH1r803dxK0ulahvAwlF1bMf29UXoR2S0/IrV1H4zqaIb8NoXHzOnt46YyungjhZC7rOpvhsweE71i/AwgKm1+D8j1HomeK8DLWNprGBeq8pHTRTHGk3pIE8/f1RV5Uws0XlhGePv6qWoa1tCdrfxfU6d8LK/YTR5um75wynUmuB3NKu0nVcwUut9QFQ8qF1bclp9F6/xv4rTbRH1FhmDr/N2Qn7Xwaz+bAVd5eAsOVkKepn8Lui5f3RLYCsL8GjCzdBlef5KnHEi+6fJVzBIWZpaiQdruRwnGn3u4L3UdNKquKfwjyduojbPKDba6LXQUyutSlpBPRIr+m6QQg6tR05Uf08bMSZbpukltQQ6mDPGV+bf4kdRLXiiOImR9+i/QGp6iyk0uceAvyf7Ytd/mK7nf8iB6BY/nNUoV7U+T2n4xopespP+T5yeU60nSS7JwFVolhvd5DlbehabR8l8+1mr2e2PZ9Gqjs5fZlb7TtgmZ+SssfDdSp8UbR0mZPy7LYeH9D99UE5a3kfP9l9JpaAIAhUZayzbiPf2WrLo4SaFvslsPdNAziMr6sBhZvQbAM6LSvGFUjuazL+ShY9zySY5Xtah7YI1wXCysFEUKiHIVlNqdWyGsjWhURLSgLUI6kFoUvgqWxLqZRNIoViIpOV6tlZrAW0q6mhmlW0ynLkALpq9iFpIhpTvgWwloUgFWwqYKAg89iBu7fCYKD2qE2nlBtJrkz9alCocnN3bpTWYtCm7d2Z19G3lAzgqnK56qITyonyUPVDkS8KiohYWSktVb2q0lVPSZDMH1WVEldC5C1ingiuBSXGqQWiTSuuC4CuvK4nBWV6VxxXioyc0SBXioNKkSoZ2DjiokrpVa5sgmCokrwXCgOR0lclRleBXE4OyoleleJXBJHCVxeK4FJJ2VElccoSoIwcqlLtW1RtJsnJ6AcqjX9YFMEDLlknuLzudkn8lWuvUTU0egdnMui6+1SpUPYeSFDXDqUS1i85qyp3tno6tLXBYSI2+oPb1Kb2esA4KRVAhK57IVrHEG/x8Jrg2Tqqqt71m7aTlZfTtXg7XHnheuLoe/GeI/RDr9Qp0toxHonVZhn0uhU+HCT3jS6oAOMSp2d20MHolFG731sH8PTuvFXR9xcqjge3FSIATCllJK9x8QxymFnWSLBm1hriqC0KdTIS+jWJJ8lXcg4x4yGlCVqZlEUHypPCBpBp4AKtNDEQmNUgBAVxKCQXaFWovSmvMFaGvSQNelgpE4ZDjIzVWtA9FmtTJqSG8StLqrcEKqzsxtGPv+6zGm7ML4LULNnJiqdR7DDh9AqNQuXQYBWxvbfIwl18wQRAXK9KfMeR8bM8mc8N06rS5zhAKa3NwF41cR0Qd1Sd+aZJ+pPc+A28h2n0p+MpraXpwOyBpuAYFKxG4kTHolxnPdmIDSZudC1KSJELUV3CML5to1f4i2cDiVqbe9I5ytenUtw5M+VXuCLyWgx15Q9vb7uklHUqwcIVFCWPEd+EiUcyLC/TgN0us+kCCZ7DlS1qNoe4x+qYV6W4TH5df7Jb+Nwa7A81dmsJIprvJLQbtuHcevK3VtUa4YIK+a39tklvRabwxqUMyDPEqxp7ce1idTDPIZ4gsQQSkuk6iKZh4z/T2WouHAiThYzxKwBwc3mZStS3B7kHp/f7TaWFwXnKObbGZCznhu93AHcJ6jsthZ5T68Tjkq3RcHgW6idoOPmgaVVP72hIWP1VhY+ckH7/ukTzFja8SWCy6ZLwirS3B6ZQlV53TGI6pjpj5zCmMckzfBH3cLP655dVqLunI7LO6/ShsjohtTwM07yxRbaW4EGeU8023MwVd4eaHMk5Te3tyen91MIYWQbbMPABV04ffP1SfVaDuA930Bj6wtddUuPNJLqmA4zkJnrSXCZ1eJGbtdKD5L6jv/sj90x0ewpMdhpJ7lNNNgzgI9lrDuAulbLb2TLamNbAiOylqFGQqqLIKIfVEHyVSyUmIXDyjPXVH4iO6Is9NgY5KjWgu3T1RFnf5hKreO2PuTaPm/tsvb6zoOuLWmaxp/E+m0EugD+kDJ74BXxb2e/xPNdAv2llQODd7ASwgmJMj/TLcTPYr9hPoh4ggfSV+f/bP/DnZ3jnVqTf5ascl9IANef8AnTI2k+Y2nHK3fH36SyLrvX/+voz5bs8H0ejrlOsxlRj2vY4AghwIIPmEb78Tjj7+q/Det+CNc0apupOrPpUzLXUS99Ij/lS/pmciOuD1Wo0b+Jy5pHbcWjSWgCGuc0g9SWvEjr1VjU/jsLFu07Uv7oZHVuPEkftjTa2OU0LxC/JPg3+Ki2cdtzSfQM4cPjZHmQdwPyhT9oH8VVCmwssmGtUI/G74aQ9c7ndMD6rNj+O6ndtcSJXxfJ+hfE2pMphzzG1oJJ6QOfRfmfx7/ExSpl7LOkar5c3eSWMBGJGCavyie6wtT+Iy4q2lehcUWmpUa9ralI7WgOEQWuLsDynhMP4ePY4armXd20wDup0yBBOCHOkZPWFs6fxlWii7NV/ZfYErZWcQPoPsDstWvnm71CrU92SDSoFoa0DOdoEtHkc4yv1Ro9iGgeiR+GrNrA0AAQIxj9Fq90BY2p13qSckkl9IhVY7EdzbFri7kFE2leUwfTBCGNrCxZuTfBdjZFxwy9q4XIC/uCxpjlC212YyZK5YOVTfIY/lMqJwkVIkmfyTKg5dBpM62HBzWp245S61EjPKY3BlLqdTa4hDOSbGU8RwH0rRE27CF61rAhEJlcUVrJy6YFWrZQn8xlSumO3HsvNt5yqtkucFiCikMrapKuchrYQrwVdouzDaU5rngGrvgq6k+VVdU5UmNgKo8xnkN4cS5ygXKTSh7wwnWNtbkBFZeCnVgduFVaOMcIuhxlXMaECgpvLY71NsdpCkVaFF9NDurQcovTcBX6gbXa5a3yWT/n8kLVaw9rqbgV87uKsO8x/dfTPwmcW3CUTy3n24LcmPqd6q9QudzYnKU07mV4mDPQr6P/QVZztR5N+QsxjIPa6qQdrpCb0b/GCs3qrgCCEXYVMdVfs00HBPBnf1c4y4YRrd/MO6jlQtr8OSnU620weD9/VBacYPPp6LqPGVQTlBYDs8rOa2yZtC6Qstqd9tJaTnsmNtWgxJWe8b2LzFWnJI/EByU/S0x9TbPpmfq9TYo7qyWn3Ra6O61NrcLJeHwXQXiD59P8rSVCAAj1NUYvakWNLdKUE5Fmq2pcNwGR+az7rssHxd1sbCpLUj1Oxa8kJemtSe2S4A1cJNZixOKYqEPH35rQabbxCW2NmKeBx9/knFA4R6izKwug9HQ3jPYycJC+f+17xE2zt31DyAdvr0C0PiLxNRtqTqlR7WtYCSXHAAX4/9tftLdqdTZTltu10iZBee5E/C3yOfRZGo1MdNFyl/oez8Z4udrWEA6r46r3G41avPDaeBHTce+T9hZatVcTk+inbtAGEKXfEvC6nUy1FjnI+n6bQQ0kI47ZtfBdpInzK02os2tS7wLR/0wfv74TTXT8J+f6Lzl/O5v7L+3NuB/wCyujO53n/b/K+mMpr5l7G70PY4RkSvq1uFEVjjHyL1Cangss6aYgISmiqLktifg81X03KhynQCDBBc0IimqmhWNTIAthdIIlhQVJyJY5W63hleaCA5WU3KgOClTerakV3FhrXq+m9BMKsa9WYsTIZUqiJa9K6NREsqJ0WA4hzXq9rkA1ysD0YGA7cuOchQ9SL0LCRN7kDeUOqJJXCVCltfBMo54YhrMVFVOryhKU3FKFoU37+DNu07i8oFJVNQK1wUCE9oqsGcFW4q56peEEgo5PqyjK6oStIrnnqIK6VEKQcEwvOK4FwlQ2SkRcFxdKjKEkkpNVe5eYVBzOvKrUiVEqAcHgVGVxdlcckeleXHFc3Lg8EiVFcJXJXYwceJXJUSVBz12Ts5OlyR+INaFMbRlx/L1XPEutCk0gZeenZY2gC8yck91U1F+1YRraHQeo9z6CKTS87nGSUdSpKy0oI+nQWXKe49DGKisIFNMISo2E2qUkvvWpUkOreWL6oS+ojbg8oCoqsolqKyItdcWkEdDP55We8S686k+jUn4HmH+o7dzEmPJanV2/DPZYHxZZOqWtRoyaThU846x2wprpc3sKGuiktx9m8PX7KtJrmHBz8v2S+yYX3Mtdt2c/8AJYn2bXLreg0PP4gCB2n/ABC21sc+8b/Vn6/qi1Pg06nOPwefes2T2m0tXA/iymAowcLOWF6CW5/7WiNXC8bdCSk0aKmggvwk1vUMu9cIurcY9QlltVOcj0SXp5v3YeCVqIdZG+nVUe2os0ytDx2PT5Jsy4CXj4DeDuonCBp5VupXA2E9kFbXA2jESPqgcOQ4dFzmoS5bgq01Shq9fBQOJK4Zl79w3EK+mMBLPEFUe8+EgkDIHqo6dekjIPqspz2TakWnFNcFl21JNTfGOSeia3lcd+iz1Kvvq46FJcVKba+B1a45D7SwAbJwfNB6pVDU3vawAjqkj7U1HAH8Pc8f5Tdq3IKEslFK7nHKNtBGepVtxZsGGNz3S26uC0GcQoay8RGYyP8AQxLyZ6YCf0bjEL5/oF0957CcEStYa4OOo+5RSm6vaQq/carSnzKOe/g9km0OtJBHHBTau1W1PdBMTJe40ej3Ze0zyEFq1oW/EENp96WjA6yU5ZW94MnPb91eUlOOPkoyjtlkVsLXN7HqjdHtpPohq9sGkkfNEaZeCegRVySfJE4ZXAfXbgmePos5WpF7jK0N8yRg8rNuqOpvk5CjUPLSJ08cZwGWenOY4FpPmthYXboEjol2lukcYKdU2/8ASsV17VwVdRPLwy/+ZkZSXX2ggkdl3VKTgfJcrPDWAEySumsrkiqOGmhXQvvgG5hx1GZhX6VdGeDtPClpFGJafqmFGxwR2OPT+6iHKTGW4CqzxGcLNeJKjYKcViBDf1SvWbQOjsgteUFpfawHw6/s/wCU/eVs7GpICw40wNnbg8j76hafQKztokoapfDJ1Mc8oc1WrNamyJ7FO7i4SjXQdqXe/oHTJ9FWjkDH5+a01lSB+SwVt7zvjstR4fvxEOwf1/yuqtysMLUU/KNC6gEuv6cA5TJlUcpXqlSQVNqWCrTly5Mw4GTJMImzrgHKsNOcclcbpGRlU2aUmn2aKxrAjCvuKYIyllhQLcIm8eQJ+voq7ngoyh7uBNrumNOYC+d637MbO6J99bU3xnLW/rEzz9V9YvKzYz9UvFsd09IVmvV21vMWwnDK5Pjzv4dNJfzbFv8A4uI/RN9P9gGl0cstWF3QvG79RyvrdNkAImiFdfldRj9b/wBSo6ccn558T/w/2DntqC2awggnZIBgzls7XfRfQvD+kCmxrGtgNAA8gMf2X0K7tgQs/dsLD8IVW/XWWY3ybH6erOcDPTSGtyjaFwHJDbVXf1DB7ffomNJvZJjZkfKjA4aQplLqAd1XX3OY7I96Kzq54KtQpSZQdNoBwj6z5Sm7uAx3rwqlib5LlKbWBzbUZXNQpkCWquyupRNathFFLAiW5SEhv87VTeV545Crp0JeSRmUwoafmUmUi89kezlhcGcp3RqIGlbQuXFbbhNjLBTsSm+A2sVVSVFFxJVtSmUEll5A244ZyrW2qdjcygrsEjC5pbunUKVLD4GOtbMjpccFBjlYCrOVLsp4wUipC45wdhVXtInhQtcII8cDlBYygqk1WgKqmVeE5Vp9CZHA5KNerxEIvUHlueiTag3fmV6DwWjdtyUlwUdda668xF11fkghZvVqQc3s5aCradkrvaGcr7L47R00Y2RSZ4PX3WWJ7jL2dy4GCmttc7jBCsfpo5B5V9jpZmSVuW21tZMSOnl8gtTSyTzhMLTTS1E15arm18KnO6bQ1UQixbqWlteIKRV9BeMtPC1bnShzW7ptWoshwhM9NCRm7FpB+LlMqPWVVq7QCp2bparM3uW4VHT4eCbrVp6Jdebhwm1EYVdSlu5QQsw+S1/TzawirTLoxnCkckpBr2uMt8vOPXhY/W/aeKQ302OrN/4AH7PzRSSXuRfo8ZO3g+ogZE8L5T7fPHT9Pa33DmOe8w1pORIMkAZIEL5/4n9vVzVG23pGl/yfBP8A9ox+a+U6re1a7zUrPdUcTMuzE9B/tZ5DCwdd5uvT5UcN/R7fxP4dZPEp8IE8YeNLy9P+vUJb/sbLWepbPxH1mEptqSJu2L1u1eT1Otnf7ps9bpvGxos2ouYzCGA+JMWBC16eQqMJdmzqKMKLXxg+peB6f+k30RevUZaR5FCez+r/AKQHknWq01g6mbjF/wA/9yE/8UB9l1N1J8dyfovtWmGQvkPh1sVB6r6totVLptc22/sjWLMsjYhSpvhclR6pzSKYXMqdu1VUVYw5UKJAU1qsAVLXq0uRpYAZ1pU/eKkOXXFMTFMvFZW0aiChWUnQnQllguPA0puVrXIGlVVjqiuxZVkuQ6k9EU3pdQqIumVYiLYdSerg5CUnq9jkZAQ0qwKphVgC4F8HQpNYpMarAxC0F2iqpTQN1bSnLaa4+lKJPHKOwn2Y6vSgoZ5Wov7GeFnLpkEgrQpt3rkzdRRseV0BPCqcr6qHeEyRWTPqZXHBeK8StFldECvLhK61cccXoU4XEOSCDiuNUSV6VxDRNcK5uUA5Q0EjrlAlSlRXI45K81y8QuKco464ryiVFzkOSTpcolyiSq3OXdnYJkpXreqCk2Tz2VmqXzabS4lfP729dWdOYBwq19qii7otL6kit9U1Xlx6p9pdmEroU4KcWT+FjSs3Pk9VFKMcIaU6KmTCppVu6lX58kaaAyQuXpXeuR1y9LKzkMmWKkA1mwCgK6Z3iWXD8JM+y5FiW6echLdJEmsDkEDB4POMo+5dH35pVaVoLj3I+glNp4nkp+Sa9JibW75oHMbTkcDC+h+HrkupUnDggEfML53r2mCo0luDBMK/2Z+InhzreoQAwSyT5jHyXqtKlOGEfO/IW7JrJ9I1e62bTgZzn6/JPG640tbBwRIz/lYnxY/fSeGGXEfT0/NA6bdwxoz8IAKCX4zRdP1DNs85ZVLb+xvL/U5iDyiNIKwF5rTWupj/AHcLV6Ze4nyT9d+PVehsjH4K+l8vKVu7d0aV7h1QNzqgbwfzSnU9aAAbMbllNT1SC6DMLxfi/wAQtuufqrEUz0Wv/I6qqk4vk015qj3kgcFO7CpDQD0HKwOmamIGf++yc3HiRoaGjko/yL8WlXt/p4lbw/n1JP1JGnrXzQFndY1UAHolNe9JByVmde1aMfcKfE/iHqR3WheS/Jo1cRY4sQ0l1Qnk9SjK94A3ELC6JeOqVXUwTtDQ7Pmc/JML68DfhkqrZ+Ex9d56LGm/I80KXyR1q/dkA/5UPDJczc5454Kps7MvduJxz6Qr9RuJhjeSQAvNeY8D/TZVS4+Te8d5V2xzI0GmU/eEvP4Qfr5BOIHoOg/ZJ9GpupsbTmTzjuVrrOybskgk/osGnSo1ncZm/uQOAkN5T3AkiZ79ZW4r2TZw3KRa3ZPB4nsByq1mnlU937lmm9MWaefdgCJP39VK/uTzkQJhaXS/D7RTZUfO5wBiYjyjrCD121Bc5oiXeXU/ZSbIOOJSLVdsXIK9mV57xtTyI+fP5cLaCpGHLNaHpnuGiIkDMcE+a1LXh4BCsw/S0lj6QqxpzyV2123pwMH77J/bcSFlHnZOOU603UHbQAJHdHRZzhibqsrKCq9TbM9Uur0ZMt7dE2q7XiT2yk7q20x0TZ9gVrgYaZduAgj5qN+8OmRC7a3LSIPVTrUjuHUBPTyhL4ZHQdaLTteDjr5LY2WoNI/ZYutTl2OhTWzZGVYpm1wVrak+UaV4B5Wc1xsGZAARP/q7T8LZ3Jfq1uXAz1RXTTXAFEGnyX6WTIJ69VpqDm91hdPsS07dzo5xIym2l1HtMHP6oKpPAVsMvhjbULeDuGVlNXuXufHQZ/b8lp7y+a0ZWIvHPfV3NmBiJiZ/b+yVfwP0qz2ajTrPdBPAH1TqlbgD4eFlNMvXNIaWkT5rX2FQQpg8oRflAd3TInCF1My3H/Sc3ULLa5X2yW5VazjOR2nWWG6Y0CBjP6plaWsGf2WP0XWxMPEGcev3C3li8EDqiqSkuAdSpQZZUpmEpr3MfCQnb0o8QW0txyMobotC6JJywwCjUIcSPv7/AHTfT6gcUjs7gf1Azwi7K5a105SIS4H2wbzg0Jau1KUiFXQrBwlWGpCGUVnkz2mmZy+oOY7qWz9EwtrtsQMoq8IPKVMowcJHMHwXotWR5OajVc53wkhMbEnAPRdtrcHlHMpKIRlJibbIpbUU16kIG7og5RGqNIz0CVNv9+JjojdaT5Jpi8ZQYS2PNW2jEE+AO8KyzuiekI/akMlF4HVNoSjxDSxjBPVMKFZV3bA5FKSa4K1eYz5M9QunNhpz/wBoutbbxlVvo/GZ6cI61cq+7PDL0nhZRVbUCPoum5A6po+nhYPWbwse4E8pjWEDQvVY6tqm5y0NsMLJ+Hu/dam3qpCXJGqi+gXXbj3bN3I8kg02tUqHcTicLQ+IGbqbh5JHphc0CRCZKWCNP+k0NoiKjsIS3epXVTCjGehMo5kU+/Eq60AlIHVvj5RNG+gwUEZYZalRxwaHcu70tbczwu+/Kdhvoqeiwu5qoRpXd0qeAp9OQSSigik5EB6XsqBddW806NUxM4oNrgEQUvu7IdOylVrkK+jVW743UWUSUkyjqaVOODIFrgSIQGphx4+i3jrZpCS3+lGV9S8Z56qaW/s8jrPGz+DI1K/wwRlWWF6eCnGraJiYMpZbUYxH1Xo69TTbH2sxrNNZDtB7SHBAXDdnoiaLoU6ha8bSui9r/YW69wK+v8MpQ27krPe0rXqtlTc5tF9YD+ln4iOpHQ4/RfC6HtsrvquFOj8ExD53jvIbgGZHXgK0lGEXJ9GlofET1PEez9G+IK7Q3dIx9x+qzH/6zoMO01Gg+bm/3XwPXfE13X37qj2td+FrCWgd5g5csBqOnOB3Elx/3Ekn6nKx9R+Q00+xcnqtH+HymsyaT+j9d3ftItKeHVqYcRIBe2SPqstr/tutGN/06gqdIbkz8unmvy++hOTk+eVJtFZVv5JJrEYm3T+HVRlmRsfaZ7SKl0YpuewE/EcZHYdQg/ZDq+x9Sg93wVmnaDwKgkiOxIn6LH39NR0usWmQYIOCOQs2zX3WLLky7XoKqblBRSH+rwKjoMiTx3GCqG8KtxnJyT3++VYw4WROWXk9fUnFY+AS7YoUGK+5VVuUaftKc4JWhDAu1GYXWBNmWALVXnYo9lyTSj7hp7Ob+CaZOOR8+fzhfQ7ihuHyXx6wmlWZOPiGekFfa9NfuaFQ1kE84+Vn+5m3ra1IWWzNrgV9B8O1JE/fCxd1bZhabw1UjCyNE2rGmDfzHJrGroKpbVwvCotUo4Dqb1a1yCp1EVSehbOZe1WuKraFOEyLyBI61XKqmrpRISyDl5elTTIPkFk6ZVlJyoDlaCr9csisBdMq9lRL6VQ9le16cm0A0mMqT0TSS2k9H27kyMhTWA6mVc1D03K5pTOgGE03IimhaCLYpxkFyCGBSDVBhVsocHJlNSmkGvWU5C0ZQt1TkQpjLa8hOO5YZgajUNUYm+r2+1xSuqr8ZblwZNle1n05ygV4uXVpspsg5dauFeDlGQUyQKiwKMqQUBfBUVxTeFyF2SCC9CkFwomyTwUAV2VAqDjpXiuEqBchyQdcoFy84qtxQho85UV6gAJPACm9yzPjvU9lPaDl339EMpbUHXHfJIzevaqa1SB+EfTCvtKEBKNIp9e60luzCxbpucj1NNaqgkiiq1G2Dl7+WV9CjBSPksbuAtwVFWseEbSpoe4oowYsD3SqHMUqgId5KyRCW2W4sBuwlFy1N7xKbp8IWyxF5M7qDo/NIGv59U18QVMHzSSq6Am1ozPJ2pQ2l1tcRzxwUg8T6H8Yq0wRkEkHtn5I6o9EWeoRIdlpC29FrPSeDx2u0qujg1WmXLCwT/tHP3yu1bQGXN5I/wCks0OtTLACYIkDP39hPbSmIBBmV6XS6yD5TPO6zQSa5RivENrVa5hyQM+nX9U80HXQWw4wRCZajTDwQegKT6LTpEPEQQeuD8ltO2NkDzMdLZVZx0MdUo+8A+cEdP8ACyd28t3AnrytdSect6ED5JHrljLv1++qPTzj0VtbpJtqS/uK9K1aSGNHWJRtJtX3gPP6KvRLWmC4ADcDg9e0evK+h+DvC254dVBAwYM5/wALO8l5GnTxe4ueO8RddYnDKQosraq+AKZJmOOp/ZI732fXpqGabiDJBG0gZgZLs9ei/RdK2aBgAcfkq3W5JbH3C8LP8pnBvYj2kvAVWJep8Hx3SfZbchktFNpIzJJcfWP0TO09kLy4Oq1xkZa1hkeh3fsF9oogqfuz0ErKv87fN5yaFXjKILCR8fr+yU4aytAPJ2ndOOMxCLqex1lMNcyo4vJ+MuAMg/7RPwHnjuvrVKgSZhXCiScrOv1Mrk1Iu11xr/SfPLHwo2n8LWRHU5J+ZymhtG/h2+ULYvtUGbQA8ZWf/TxXRc9ZmK1WwaBAbB9Fnb7TajXAmmSO6+qV6DSUPd2oIiOOFVv0y7yPqvaPntpp78FzfhHEo1ukMd8RAkcY+i1VW26Hjt0Ql3QAHEDqs+2uK+DQrtbMi+mROMdEnfe7HbgcdcrTaqJw3jhY7xD4We47Q+A776LH1EJtraaFMk/1Dl16KgxkjsitGuizBy2ZHkvnGk2F5Y1WMllag9/xbhtqM3EfFvzuaB/SQPVfVNOoAgdZH6pr0zUsqSf8DrGkuOhg5stkHBWfvXljpOQfyTK7a5vBwOiVvaah+eB5cIbX8LsVTFLkZabctMcf5Tq6pSPhMYWautPcIIPH7Jhp2oD+oxHf7yrNUmuJCLo5eUEvrmm2YmUOPEENJe3piOv3yp3d5TcMH6LIareFr4LHGn/uA/xkLrr9iIrqz2azSbiCH9DytVZXQqeYWf8ADtZtSmBtkR802tqZaIZhWqnxkq2wXQwNAcgJXrN37r4okjouXeoObE9wEh1q/gycknjupstSXAEIP5K9T8QvdB904fMGfkEZpVX3jpGPLqjtLssS7qJhC3lgWOL2SO4/P6qviS5bHqUekaa3sBGeUSwbRhB6RfBzZmT19UZVuBCc+FlFZxecMXXmqPdgADp5pdUYS0ycygtYrv3fBOT2mFK23NAD5k9ehVOct3ZcjBJZQXS0gET1TXRXPbDXZCvtGGJGQfJNaVl1QpOPRXusT/UeqV4SfVLsxnglF6oyDk4CVi+Y+Wgj5rrbNxNFfygi3a08ZlGUbEFAafctadpIycZWitHjAQximjr5yh0csaMBV3oKZBBao6BjlHZDEclKFjlMTahqGQ3qrqU8yhatnvyeV6zoZ5KoJ5ZpNRUcL+4wtbsTCa03ykzbAdJ+SPtWEJlbaZSujF8ouvj8JWbtqXxnEBNNQu4wqxTkSOiOyzMhtKcI/wAhFOgFfRtVXY1AfkmCZFJrLK9s5J4F11hUuuRESjdSbLT3jCxdKk7fDiYMpc/aWdPWrI8/AdeXW05PKMsLgEYyg6ul7hhSt7LYfJLTeeiw1HGBxUvIBWD1mmKz8HqtDq1WARKQ6PTAz3KY+VgZp61HLH+j220BHV3uaq7W4Cnf1gQM5SpR+hMpZkF0nSMqVSgIVNHgLlS5EQSmKPHIh5zwQpOhW1XSEDszM4U2v7cIoR+A5Y7IU7RvXlR/khPKvrtwlNW5yjdSXLCU284HzWBokcKTLkeSQfzbuAJU6N33kFWNyRWcZM0DgOeiruACOcpNU1MBXW9fdwQnJp/ADi0G0FbVtD0QjXq/+cRJYAnyQpV87SrG1zMBQZS3/Ep2gEwmxiKm1gJoVyExY6eiGbTzCPDVYhe4vGSvKOT2wHEBL77SWHMZR7VIlWKvK21/pkxUtLCa9yM3c6CCMYKT3GjvpmTwty9iqfSJwcjseF6DQflV0JJTeV8mdf4mtpuK5MPdWjXiHNDh5iV8A9sfspZQe68t2bWvI941ow05+KJx6r9SV9G7JLrGlEsc1wlpEH7he0p8pRqobVLsz6PW0Vu+PwfjGlpp7T59ELe6YIP9l+lrz2fUakxDTPAx+nK+V+OvB1W1cQQXMOWvGQPLzWZrvF7U3Hk9jofORuaj0z4Lq9nteRBjlVWFvudHl+4/uvoOraXM4+/okNHT9rsDleYuscMpo9pVqU4fuJdZ0WGyJWYp04cvslC0BaJXy/xFYGlVc3oDj0PH35J2lnLGJFG7Fj3Y5ROkyeFYW8eqqtTjCk0FQ+zahykU3QVFscoquELQZlNi/aVb4v1UwsFaDR64IHks6QjdEcQ8DvP6KrfBSgxlq3LBotQ04Pae/QrX+CLkwGEyQMJPZ05VtJxpua4cTn77LFlZJrBQ3ZWGburTyjrHBQ+lvFRoITClRRwhH9SK0p/A5o5CnRQltUwircp2foWGU2oq3QdJyIY5SQw8FSaUKKqnTqqUKki4uheFQqAdKsa1GhLJtUlHevAo10CWMU96rapgK5U+AJMuaVKm5daApNpq4IZfSRtAoOkETSCOCBkMqL0RTKEpNRFJWVFCpMNooliEolFUypwQXNVrSqmqQKFojJYqqoVgKg4JbGoz2vW8ieyy9YLa6uyWn0WNuxBKt0SKOsjjDPoxC6SuSuStYxv5IOXl4rwRBo81ec5eXiFDOZElR3KRVbiuRBMFecVEFeQs48oErryqnKODjpUCV6VAlcTg6SqnOXXuVL3qAkz1R6+d+Ma++rHIaIW01W62NLjxC+e05c4u7lU9VLCwaOgpbnku0ynCf2zuEts2JhSKzDda5DZVlJqroFEtC7ByygqiqawK60rjypJh2AXQBS15Leqa12pbeMSGXYsCuayTahXhd1KttKQavdl2G/PyQdjZTUI5Yt1O43E9uiW3J4TB9BA3FNOUZHndTd6kgRxVTir6rMFDOCnlFNwIOqnumGl6++ntBMtBkjrHkllQIeocJ9F04TTyKtp3R5NzQ8RUXmC7aT3x/wBq2p7t8ljh5kFfOCoNdH4SR816Cvy8kjIt8ZGXwbu11LY47nENmBJ6equvHukkZniCI/PnuvnOoXTnZMk+XXjp3X3P2X+z2pQ93cV626W/+ztlrd3EuJO4gdgEjU/kPpZyuQ4eFi1yAey/wZULve1ZAJLgDEniJx8Lf7r7HaUCBmMdldZUgMjg/f04TINAC8brvJWaqTlNmrRpYUR2wBKInhMKTABPVB0aoAIRFq/cYhZbnu6LEo4DtPEySi7Wo0CFFlmYXdOog8g4KXOyUWkdGKayENaTwMKdNx7cIoBQdTlN3oXs5BK1WUMTJlNHsEQq61AFTGcQmKKtEqp1Mpk+geig+keqVbYkMihTVbKWXNMnHRaN9BUV7bCoOUZ8FuMtpkqlgAeM8qFxQHUJ5VpZQOpW+JB4VWyKXRchPJkNfsgRJzGR8pUND1gAtpn8X6/5TO6+LHyWduNLaKmDxnHI8+eFlz3xluiv5NKGGsM1l2Jb6rP0qpZVaBw5wBTGlubTGTPn2SHUrZ1R2HQQJEKNTJ8NLkmnGGjb0y2IhIfEFqACcK7w38FMNe8l05JUfEVYbT2Vyc069z+irFPfgX2VjujBPB9fJaa2sp+FwnH2FmtB1OQDtPw4nufJa/T68ie67T7JQyDqJNMpt7I0jLRA7JjTuxGQAUW0Yzws/wCJX7AXc9gmuezoqr3vBRrlTeMdD+ayb7KqXioX7tuQ3j81qdMq7g0uHy7+ZTerp7SMYn6IJUq1ZyWI2KHDAvDWs7x8YhwMY4/ytDVqMIysbc0/dEuESO/CL0PVXVjAaQOpPU/9QU2EuNrEyh/mO+Jqvu2ksJGJxifLzSjwbqZuXFxqEbZGwnk94WspaWHE7xI4gpHZ+HKbK5LBtLgMNwMTn14S7YyTT+CxXZBww+zXWNAjloLT1ARVzprXDj08v8rlkXNAHKYMeISbWUnN5yhHbEtOzp0TVt6GwOSst4u1M0nsLWufJja3lU6XcV6wJNM0yDAD4n8iYQwY6UFJcmlvqm5Zw02tccclNrCxqj8cHzQN9Yu39uqVYpZyOoklwi4aQHZGD+6fWVFwieiXWt4PwjlOrN05XZQnUTljkKc8wl1R5JgpmFRc0Qc9kE5SfyUapJMXnBMKm0wSg7m9IcewULes9xxABHXlJ3cmkqntyzT275V8JLY7m8mU334lPrlkzrYbWIvFBgSOQhLK+cW/hcSmep09wKDsaZGISZZ3cF+pr0uSFhTeCT3MpzTrnqpW1LCudRCKOStbbGT5QFf3HwpQ1hOY6qzWq+3BVFCsSMCV3LeC1XDbDKGdm8K+s2UsoOc3kGP0VrrwHqjSaFyhzlGe8SvIKW6DVABzmfv0Wi1HTDVH3/dZyh4dc0k7uvHCmUJLou12Qxhs0lmQeqr1ImEvo0yzqYUbq7gY/NRhi1Xl5G9rfw2CUJRvw50JFc34Hz7KmyvYkIhjoNTVuI6oqzdjKxNG++OOQtO+oAwQU6qSyVrqnEZXNcQktzb5kFDV7vMSpUrsboKbOaYmNbQ3tazYHdQv2tdxgoW4e3up2Tdw5Uww3gF5RS3Tz14VVGmWk5+RTZlQRtPKXarZnlqdtx0CpZ4JO1DzXre6LuFmdQc4Hqmfhm5HB64Qxk28BOCS4NdoV3gtdyrjh0rPULiHY74TgXII805z9pWlXljwXDTBCND1m7Fnmndu1V/c8gOtIJldBUWsXdqFRkgCwLq41ce5XYtRjuYJJQq0wRELwcphP02qlF5ixc61JYZj9V0gtcXN/CUu1HTmVWFlRoII+i31zR3CFmdTs9pK+p+I8nHU1JN8o8lr9PPTy3R6+D87e0vwSbY72CabjE/7Xdsd/wBl82uLHPC/V2vaeK9F9Fww4Ynoeh++6+DeJ/DL6Dy1wx0PdL8r4xSW+C/n/wAnq/x/zatj6dj5/cztpaCF889ptl+B/q0/qPvzX1e3o4WJ9pNsPcu8iCPqvMNODPXUSzL+T5pZnj1Vzjyh6SJLxn0XS7N2r9KIlkiUIeUc0naeyBPKKAN/wXNVtnUhwKL0kDMxyENe04cfPIS9ybcTv2N1plWWgo9pBWd8NV5bE9E53bc/VYF8HGTiUJrDH3hrUjTdsJ+E8LcsdOei+b0GBwnv+S1PhXUD+BxyOFFFqztZWnDPJq7UomeyBpuRG9XEIYYx2FdSehabsIhqMW2EtcuscoUlMrgQig/KLYUspvhFU6qNC5InUcpUnoUvVtNSgAn34XWVVQwImkxW62DJBFFF0wh6CJatGBVmy6ii6LULRRdJNSADKSIahKRRVJNQthNJFUkPSCJplEAy5gU5UWhdXNHbjwK85QKkUiSHReQS9bgrHapSglbW4WY1636/VFTLEgdRXuga+VFdXit484kQcV5RK6CiyESC8V5cKWQQeoKTlEIkyUdhRcukqJKhhYRF5VZUnlVuchBaOOKqeVN5VLipO7OVHIW4qgAknAVlV6wfjPXNx92w4/q8z/ZIts2Is0UOyWDviHWfeHaPwj8/vKAtHYS6gzqmFrnosqyxyZ6OmtVrCGVu9MLanKEs7dH064GEMUMlMIZaqZokKttyuguKZsQre/ksYSpCqpMpFcqU0E1gOuRXUKAuKiMe1wSy+d1VZ8FyMs9Gb8RAGfvkhKf5UAeaZXTS9/kM/wBlC4pqzRVuWTN8jqXlQQhuKcJbd009u6aWXbE+VeEZSkJ6qEej6zUNUYkSWRinkBqqiqi6rFU+mh2tEpp8ALgqH4knpn5d0w90p0rYbvi4IgD+653qtclmvRt8mv8AZH4HFz/8TVE0WOhjf/3HCDJ/4gx8wvudhU4B/COAlvh2kKdBgDQ0bW47GM8d0fRpOO2F5nXaqVsw/TUcj+2bx2RVVoAQtiyO5/NMalGcQgcfaVG+RVYtLnkDgLQ6FbAOdPP+Uho2b6b5OFrdOpECT1VaqWzORt2H0H7RCppNhWyqy5Bfelhi4rHBbKiSotcpFQrtyOwDAy49kS1UijmfyVzUFcmnhhSwzjmqLmqxypJQ6h4kQgSu2FTUOEbctwlz1Vk2pJotQeUB1qaU6m6GnzwnFYpLqNMkFDPOC3RjPIgZSV1GzAcCByIPqpWIzlMHjCrQX2XbJY6Fmp08GOqWWNiNwPPdNdSJAKV2VzH1Qyw5BwT2k9SoxnpKCqUve/D04CO1GpLf8pdo1wA4GOvdC2nLa/klcLJXQ0Z1P4AeStFYXD2kNPb7+aKqw4hwMGOv3ygqOohrtpmfNOVca1wVZ2ubNEL8bfRZzxFcb+Gl0cwJTCgw1OCAFcyjt5HHPmmOtyQqMlF5M1p941x2/hg9VpRXaG4cltfSWvJLQJj7+aGudOc0ZOewXVuUFjAUts3kW+I9Q+JrfxFzhgdc/kFq/DlHbn8IxhYVmmPbXY+ZAnBW7p3YAjr1StO5OUpSDvXt2ob/AM18UBXVNOaXNfkEGUooxIPCfsqYHZOc2ynKOMYGTWNIQlwIlSs6iE1Kv080mx8EVxeRfRsRO+JdOCegTu2pgwYQVFMrZ4hKyxlrYSWCEt1G2DoU729jCrL5gylb23gCuEo+4z2oWjmOlh55kcJhpF67guk+kI2uzdwqqGnHBjgrtv0XHbFwxIZ0NyLeMIe3YUXC7ZxwZlj5EFzawSV6yY35pve0sFZW6ufduknCROO18l+iTujg0luQjXDCz2n6o13GU/pvlMqZT1FcovkW1nxhUVHQJUtcpkZaqtNt97Yco2NvBZjjZuGdlUlsq33ipt7ANwD9/srjQwmKvBUk4tmP8VVNzwD3TDSCISzxNTIdJ6Sj9GeNoKGLxLBqTS9JYNFSYCErutNbv3fl5/sirWr9FO6dhWm0zOi2mQtgOOiD1qlgkKpl0Qq9RvPhKP1E1gNRlu5A6DZAVr9GY4Z6r2nAHqjHLlWkssOdsovCMx/6MKbj1HSUq1q2PLRnjAWqr1JdCk6kCMwh9NNFiOoa7Pn2n2FbfMY/ynlxcECDIhNw4NkR8wll/ZF6X6GFwxju3PkBt7jc4lSbmT1C5S0p1PrKGvsCeqXtx2GnFsLta5LoTiiwsWS0XUN1WB05WsuK/dP06UlkTqFh4I1L34kxo3X0WOvrpzagIznontvd7hj5hWoSyVbI4Q5/lmVGkwEpGnw4bTCL0+52tI+io0++l8dU2SXAqLlyM9O0k/iU7+nBwmemXcYjyRNe0a7ootxtwJjJti+zHwpzZVElpktds6ff5pjvyAEEMYCsixwwrpCop1OFc16KM49MRhnQFGu1TXXBP27oNArsHpFXNVRapUiqlL2ywFJFwKC1ajuaUYvOEhem8TrHTasFHWUK2tow9yznCWaxprK7Nrx6HqFrdSsh9UlvaEcL6lTdGyJ4Oe+ieUfDfFfhx1s//gcg/t6r5j7RKX+jU9F+pde0ttxTdTPJB2ns7oV+YPafLKVVjhDhII9F57zeiUf8SK/k+kfi3lXqkoS7R8bptU4VllRn6q3UHQYXnnL3YPoimlwco0+iArco61uYw7hCXxE44UwzuAsk2nktpvhE1mbmg9UDTcmWmtJCCzjkbuTWT2j3vu3T0OCtxQeHAHusFqFuWmfr5f4T/wAL6kSNp6cKhrad8fUiKvipxyh9aV9js/hPHkn1uOHDkJHVo7hKM0C9g7XHqsiST5/1KTXBtdPveAU5pOSGnRDmiIJ7o2yeRz+qu1ywipOA5puRVN6CpuVzXJ2RDQbTepmohQ5SpPRoEt3omlVQbivNeiQLDiVaxyFaraSIFoKpFF0noABGW1NWKREwtjlfTJXKLERRC1IFefR6nKMpSotCupJyQlllElHUShKQR1JqcuQGwmkURTQ1MIikUeAMhTVwrgK8oaJxg4uuKiV0qvPsdApqpZqlKQmpCorswlZwxuMhq4V1cXo0zyxBehdK4ubOOkrkry4VBxF6i1eqKDSoJRJygV0lcK5hLog9Ukqx6qeUOTsEHvQ9V6seUHdVIBK6UsIKERD411r3NOB+J8gL5yysXHceTlW+MtW97VJn4W4aP1KCszKxdXfulhHodFp9kcscWMuPknlBwaOiSUa+3hMdNoF2SlxeS1MYtqOdwjrazPVWWVIBMqFNNihDk0VUbdGUaSmGKymE7ALZJtNS/l1awK5tMlRtJTAnUUv1LSA8cZ7p6aRUHtS3AarWjB1NCLJjMpfdaa/svo1Smgbm0lQm48IGdcbHlo+cV9Ief6Uh1S1LTBaR9/mvqtS1hC3VsCMgH1UOyRH9HA+PV6XkfohKzQvqlfT29QPp/hKr7Rmf7Ql+oF/w9fDPm1RiHetfquhCZbjy6JRcW4by2Uq7UPHAVWgw8sQEpx4K03+Yrhh/C343eg/ST+iGuKjR/Qtr7K7GWOqxG+oWz/xZgD67lkSt3PlmjKKhWfUdKYXENGY/ROy2CED4Zt4M9Op7prqFEGIWdP7MaT9zQ1sbbEymVoQHSe3HmgdEpHAPRF3tOCUFl+1cFNQzIvq0feHp2RltR2iEDpdcAd0dReT6dFXsllBuOHgslU13wrXKusyQs2+TfAUcZ5OW1UEK8FJ20XsMnLZ6dPl2TOk9FVc48MKyCT4LiVEFcBXinuxy6F4JvKqXapUWoLLcz5JS4PVThAvajqvCAqhG5JjIMoq00BdUZTGo7CCc9QproZFtPIi1W2xLRkGfkl9PUcwn94MFZ99Me8mJVazvg1K55XJ2s7cD+6zOrU3NcNvUhaq4pGMLP3bzvAjslTg8cj6plDrKpty6Z/JZytqT6DoI3CVuw7Cz+tacKjtsx3KTbU+HHsKFq5UhlYa0HgHbiPokd5qRdWDWQSTHn/0jq1IU2bWmYGFnfCbnm4k03EAH4oO0ZjmMlNlTdYoxw/34Kkra1nk+maQ17G5MgIq3uPeTu4St94QDJHohrC7+LbPrC0djg9rKO7dyjUWIa2QAoV7JzjMYRTaTYEI7fAhPVSwJ3NGW1LTH/iA4S2vcFpDiCB1n79FtqtZJNXoCoAIOfVJsrXwW4ajjkHtKr3kEcLV2gloBVGlaeAwAduZRTBtwnV6dY5K12oT6CKVSBCBrmXZGFY8lV0mF2eEM6U3gCFuA62tpCJoWpGECyttwiaN+ThNVMMC5XSyWXemBw8+6UNpuB2/cLRW9QnlddbjlVL9In+kbVqWlhi11KIKIt3SF66oFQtwsm6E4PAbe6OQpilKqLoQ9zeAId7iuRag5dBdQ4WX1zT9xH+3qm7b0HEqu7BIwh9TfyWqFKqRHSbFgAgBOWtCU6ZRc0ZTJr06t47QrUNuXeSF/Q3BLrJ+w5xKdShr+0Dx5jKsSgpcxArtwtr6LCeF0FKqt/tIBwjqNWVWlP6OlU0gbXrEPpuxmCsfptw6djsEY9V9AKwHjqGPaRgnt1UODlyi1pLE/8ORpKdSG8rzKyyukaoHQDz+SfMq9k1LKBshseCF7UAMpHrV5jlNdReIXz/xPqGwkcoZ+1ZH6dbmbDTK/YoyvdQsz4U1IPZPbHzRuqV/0VmPME0Lsj/iNDLTXbzKJu3gJXoF62IkK3Vrkd/mEfUQZL3YKaFXc8g9pRUhJrRpDt08iE2Y3qop6DmsA+p3GIWe1CmSEyv6slToUASAUFkN3AyuW15Zi9CJp1/i4diexW498HGO6C1PS2tPHVc0uuNwHYhL00fSexjb5qxZQ9oaIHCcSO6g/T9slvTkffVPK74iOvK7RYIJ8lrqpYMn1nkz1Js/JUutYcHt5HIVz2w+E20q0Eyq8olhvHIdplQO8nY+/1T+0WcosiotFYqvZLnAiceMg+tWkt3AfECClVC7+Ik9lpqjZCxfiNjmk7fyUPgdpsTW1juxupIym1GrKyGgPMDdgp7p1X4iol9kXVJZwOWlSJVTSrAVZqs4wUmiBXWqRCiUEq9jyyckiVJqgFNqtUZ3ZYLKbqjIWW1DBIK2JWS8Us2ulfSvx3UuxbWeQ89QoLehZQGV+Tv4k60XNVo/qc2fzJ+sD6L9X2pX5X9vdkal7UbHUH9f7rX8y8aaT/g0//wCPpL+re76Z838NWoc0468r2vaQcEBazw7o5aAI4TDWdNlhxkcL52o2OXqL/Q+qW6lRse0+S1rFwMfog7thC0viBrqc45P0WduMq7TNy5Y7O+DZRRcmGnXW0+XVLbYIkNTbIp8MijMomrbSa8dDjKSV2Gi+Rxz8uyZeHaZg9lLX7clvmP0WbXJQscH0dBqMnBj7Rr8PaCPsoq4tzhzcELC6Ff8Au3iT8J58vNfRbGqHARn7/RZ+sodM8x6ZE4bXkaeHNVkQ7B+/yWl95hYh9Hq3BGU40jVNwDXcqtC1L+P+hWshu5RqLO46FNWlZy0rJxbV5V+HRSnHDGNAq+ELbuRjAnoU0UvcvArtwFSHLuSA1lZXUaiCa5X0kaAGVu/KY0SlVqE1twrVIiyIbQVzFRSarWtWlArNBTHK6k5U0aasDVYiKaDKSMoFK2FG29RMixbQbTcimoOmUbSTF0LaLQpBeAXYQsIg5clecohV5DYs6q3tVqg9IkOQQAoFSlQlekPLnnFRK6SolcckdUSV4lcUBYIuUQuuKjKgjo8VBxUiVBy4KPJGoUO9ysqFC1HIG+QsEKrllPaDq3uqJA/E/wCEeh5P0WlqvXzT2mXe54b/ALUjUyxAfpobrEZAZKKtHxhAuqngJpp7YhYL5Z6NdDbTKHdaawbCS6d37J5aO4ToMhsaUWo+ggqCY2wVqAlltMIig3Cg1itp004Q5FzFdTcoUmqexQSnksL1U/Km1q6hYxNAj2qpzUeWKs00Eh0RbUpIK5oJ5UpoGtTQOIyMuTO3lJKLkxytPd0Elv7eQQkzjgsqZltQrAysnrTx3haTXGbdxWC8S34Co3y2ptj4rIh1m8gnPTuvqHsUvi60dkECo8jyM5H33XwXxNqfQcrW/wAO3imKlWzdJ95/qUzyJEBzfLofkVn6bRuachmtjsoTP1L4TuQ8Fs/gOfmtBSeSRHEr594dquY6QPhcYct5p9QAiDwq2pioy2/RhSXya2wt9pBUNbGFO3vpgR2Q+q3QMgcrN1HWBFSe7Ik0q9LHZGJWwt3gieiwty2JJlOdBvC6G7sSlwTwPvhxuNGSuhV1vhCjamVWlBqZWxxkvcFABWQolHdX8kI4F0LihVKTF4JI1nrwcqCxSAhIlJ7mxu1YLHPQlZymaiFrlMjJ7WHGDydcgq7lc9yHqFDTLkd6eAO6OClTbaMymNy5Ae9gp0msj4Pg9UEJH4kt9zZbhwyPknFeuEi1W6EFRJpxwHB4Yooax/Q53xj8/wDKto0zu3HrwFnadt7yvuztbn1PZaJ1V2XZEYA6ffRbHgvFS1UveuM8FLymvjRF4GJpwJgen91ypqQ2/wC0DECEloXrjgZJMR1/wEc7QS9vxH6ED9l9To8XRpq8NI8Bf5C66ft6Ba731CCBA4n75TrwpbhoO/4nE89h/wBqilaNY3LuB0z+ZVPhipVdWcGglgnPSey+feZ08/W9Rxwvg9R425entzybWkHSMEDzThj8cIWTieypubyFmbcGgEV/SUS2qNvEIK0PcqyqIHKLhIW3ngMoV0VSQNrRwMoxtSMIXZgW456J1qY7IGm0yrqlzJCMDAQCh9RSCxtFTmEoi1aQRKaOsxHGUsaDu9EmyzBEVljy3OFbKGtH4V6CN3HBLjhknKprFMBTClR9R5Z2cEHMBSbX9NBG4cjsnRKg8SkXVxaawMqscJJoyNowT1TX3qtuNOjI+iDax05ELFnCVbwaUrY28ja3eICvYlrN2MJhTcmVWfZRsjhlik0qAKGvb5rOStLSp2TUY/JXnJRWWIvEdv8AF6nClpZeOswOPJU3V42oVY26Az1/Vekf4bfs3/3wVH+QVNbBmbz4ZWa16n70GYkGQfvp/dX6ncEtkY9ElpagCYJW/wCA/FlKLdqZi6/zTrkvTfJZp1MB3xCCOf8AHkm1Y9Qk2pVdoDhlCjU4A7E5Q+W/DZRj6lHQei/JFOW23sNvLuVg/GGmVajmkEbQcrWXbhz3CSX1fBA6lIq/DvU0zlb2W7PyHZZ7COgUPcjbODBCnrWpDgHJVVrYvI3OOOyX3lNvvqYA6yTPC8/Z4O+ut4XCNWvy1cpJv5HHhx7sk47I7UaphBUTnHGfyUdS3bccrFmnCODVjJTlkbWpwAjqrsR5LLaTqJcIPLTH6f3Tk1zCmuWYkzWWLLiqd49crSUCJB4SCwcNyc2wG4BdX3kix+0a6nZhzf0Kxeo2zqZa4cA5X0YsBASXW7EFpUXV/K7Aou+GV0tQBa2CIIx9yjm1oHP35L5abupTqbeIJ/Va/Tbpzx3TNPq/U4+ibNMlyhlqrgQI5BwjfDdySc9DCWae3/VLScdE1NoQQRj902X2c48YZo6dEEz1TKljKTaUCeUXfVzwk2LjJXa+Am6uPhkJVaMDnGc4R4p/AkrHlrsdUCWAocLgIuqQHClpjTulX29vIyoNaWnCmxYOU88D2nwFawIazfIRbQm6aGXkqz4eCD3KKlUavBqmcJOZ2USaFIBQldpvWvpdHOXUWVp3xTw2WFZPxG+XELUudhZjVLckkjzXuvAU+km5cHl/PW74pREVu6DC+N+1bRP/AI0vI+Go0EHrIgH85+i+xNPxws17TNP3Um1OtMx8nYP5r0euq9SqS/Yp/jOrdGpWOPg+WWumCOFVqOn4OE/t6Slc0JELxDrSPq/qNs+Q+KNJBBEL5zrGllgnp18v8L7p4hsFjda0YuY4R0WfNOuW5GjpdRjhnymypkmPNO6Wkukf2QVKgadXa7BB/wCitzZNkBL1molBrb8l2VrrhiIBptHaEVWtimlGyAMnqi22QPdZWJye5FN285Pmes6eWEkDBz6f2THwpq+0hjuOGn9ithqOkyDhYPWdIdTO5sxz5j/CvwtjdH0rOzSrmrIn061Mj1VFzbwZHKQ+Ftc3taCYc3DvP08uq1oeCsm2rY9r7X+5UknF4OabqJ4PIWgsrsLOVLcASOVZa3BBAK6m9we2REqlJcG5saswmja2FltOufNPaT5HK0YSyslGcGi+q+UN7yF574QVRyPIhoZU3IljkstnI1r0SBGlo5N7QpHYVMJza1FcqAmNKauah6Dle0LQgVJhdJytCHargU/IhotARFBDhyvoFEmcw1iNpJfTflH0SmRYtoKYV0lQplSUsHHJArhKm5UkJMg0SlccuhcKrzQ+JYFxy8olekPNRRwleCiQuhQTg4VwroUai4gi5RXYXJUNhESq3lTKpqIWwiuoULWKuqOQlZyBhJFFYr4342vf9Wqeu6B8sL63d1V8G8VXYNV3qfqVR1s8RNHQQzInYv6pxaVVk7W66dk6064lYu7k2UjW6dUkgdFp7JvCzmhUoWosgrVXIqx4GtmxM7diW2b0zovVqKKrkFNCsaqGOU2vTUC2ENKsDlS1SlSCi7ePTp9VKFRKmPVcwk+SwLz1RlS2qMDlIi4KlzEQ5qr2JQ5MXXVJJbyktLVall7SQyWRikYHxFbSCviPj2mWEnoAV+hdZt18s9oGkhzTjus7VV5Re01mJcn51vK5MnqtX7Aa7G6nSL3bZa9rZ6uIED9T8lltYtixzmnoUF4f1BtG6t6r/wAFOtTc7/xa4E/QZ+StaaKfRPl7fbln7z0GkMnsVqdPuRMwPRYvT67G7XsdLXCTGQ4OEg+a03hm/pvLmEguaRg+n6LJ8lopKxv4MCm9OOGa63qz9Jwoag9B29eDgSBIVOp3wI81mabxtmpntihF+rhTzIS6rrLB8LnAE8TyfRO/C1Ilu7cOZgL5/wCJ9HFxgkgz05+R6LYeE/8ASYG7iYgGfT8+EzV+Os0s9tiCq1sb4YibytVmnK5plRRoXTXsgHgIDT6hBPqsa/iWSxCGYtD/AHKLyoU3ypPGEl2bk0J24OMculCm6AwVbUqCOUHoW7d2CN0c4ySe1QhSYcLxStoxAtdsISoUXX5Qr3LnxwPg8FDihKhRL0JUKGCwNcwd4S6/YEwruSu7fhNSXydGfIjv7wCRKyHiDVQAYdOD+iG9qN3Upt95TidwbB/5GEr8LaW64e0vyxpDndA5wzHnnuihpLb5KEflhWaqFcXJm48JVAKbZGSO33lWavqJBIY3ce0dcdeyKuKwDdoaPQdEHYXc4EGJ556r7D4jRR01Siu8HgfI6p3SfPAPYljDvdBqeXAP7pheaoY8z0H3hZK4u99wKYIY0gl3fHbplPP/AEuGlzN2R/UecfeFrWYjzIzaLHNYgiJqveYjHHK1XhW1e1uBAnnv6fks34f0Ug7i9znEzAPwgfuFuKN3tbBXzfy+rlde1nhdHsfHaZV1p/IXVuseaXOcZBJlLr+7cJMQEhqao41A0HqsGy1I0lW2fTrGlgfCh9QGVXojzt74+/kiarcyUdksrgXt5DrCpgA4Q+qXMSqKt7t4CHuKb3CREJL5QSjhnNOrOJmMeq1WmiQs5pls4efcLTaaccKE0ogS5DnJLqREzGU1uakBL2wqd8+RtS+SywlMAUPQYr2lBVLANjyyYK8SvBRcrUpNR4FnZXoUZUghi9xJ0tVb2BWErhaunFP4OTKy1B6gdjS4dMlHEKFWkHAg5BEEKo6d3DXIcZYYssb7cEg8S1dpz1KY1bD3HB+E5A6/5SXxNXD2HuMgrY8JpLVqIy2/JW8pbWq5bX8Cyjc7Z/NHMrbwYwVn7F2M8f2R+nXYJIavukeYLjk+bP8AUwupVdxylzNMduJImcpyY5RVvWkZTFa4LhAtKT9zFnuZG2Fm9etnU2nnuD81toBKovqDXNhw81NWow8NcCralLlPkwtHUfhycj7z2SijctqV9sxtG6O/9itFrGkgfPqvnWp6kLW5IIkVBh3+0+kfhV+dUJw9pRstsqmlL7PphfjHELN13gkuIy0/l1RthfTTnuJwgaldpHlMFee1eixVJNfBu6bVqTi0xr4TJc2SIhxRGs1IBAwSQB80H4Yv5YcYBIx1Mqyq01XCMAET9918vq8HO6beOMntZeVjCCw+SrQ9N2uMumefqml9XgbUs1yWubt5lF3Lhtn6rH8nov6Wbgkamg1XrRTYDprwKhBMYWo0obnjK+Z+K6m0h7SQQnngHWjW25Ejk+iyNPPlp/Zf1GMH1xreiD1BuFZYV5HoEHq9aPmtCceCpU/cfPvFVm51VpYJOJ9E+8N/A4B+BHPmp6c0l+7pMFaJuntMff8A0q1WnxJyRcttaWGAijFWe60FkQcFANs4PUjunFrSAITZNiZSzgMt6MYQ9yMpvb08Ia/tZykttilJNghvhAb1Seo74wPP91VrdXY4Dr3VVqSSCVLeeB+zasmqZ0Q9xUAOehRVpUBb5oa4ZudhTangrVNZ5GNlXDuOEZKT6ezYc/JNGPXU27OyLYrPBZKhcVIBPYLoK9UEiD1Whpb47k5FayLcWkJHaxIOEJb3Tu6s1ix2iRwgLV4HPVfW9DXS6FKtdnz7XX3QtcZMa09RJ6qNSql1RsZQtzfYVuNCb9pWdza9zK78jfIxISLxreAUXNid2D9UTcXeZWL1+73viZDf1VjVv0aXJ/XBpeA0crtTnHHYvosVxpqVuxE+6XiZJvk+o5XRntUtAcpLc6eCDha2/ppVUYqliQ2Ej4b7TdF2ObWaMD4XfIkg/WR8wjvDFRr9sdv2W+8XaUKjHg5lpC+Y+ErZ1KoWH+lxj06fNZmpiml+zNaE1OnHyj6A+0ELlm1NLajuaqadvCGUfozW2dfbgiCFkvEGlSDjHC21NilVsQ4Ql2Vb+V2PoucGmfAbm2dQfI6HGPyK3Hh7VRUaDjsR2Pb0RfizQhBEYK+e0qj7ep5cEdx/dROC1MXF/qX+5txlG2GUfXrQiF51ESkOiakHNBBkY+z2WltasrP4b2yXKK8k4sqp1XNPf0EJ5puozylT2QcLwbmeqfW3ATOCkjXtcCEDcCCh9Iuj1R91BVtSyijOGHghRcjqbkDQolF0KLkSF4GFq5OrIpFaAgp3ZBWqmLnEa0SiKb0NbtRIC0ovgpTXIUxyvaUHScr2uTIsUwmmUTRCCYUXbuTIgBbUdRdhLS5FMfhOTwAw6k5Wb0JQKuChsjBYHKBXFwpTZKOheJXmrzkEkPRYolSKi8rfPNogV5ecFxq448oOVhKrcoyTgioFy6SoKGkSjzlRVcrHlDVShySVVHIGu9EV3pdXeltkgGsV9rHns0/ovz3qVfc5x7kr7T44udtCpmJx9V8OuuSsryD+DZ8dDjJ63qGVq/Ddv1WY0qhJW70W1gBZiWDVwaXTgtDYpLp1JaCypq5UV7UHWzUwohD21JHsarcSm0SpqbV5rVYGpoKRNhVrVUArGriWibWqZCi1y6SuCSPBSUFIlcmEjzlAhSc5RKBodAg5qBvKSYKqs2ULQ1Iyeq0VhvFFjIIX0zUaSy2r2kyq84bh0Mn5b9pWilpLwOJn07r5RftMr9aeMtDDmnHfpzhfnbxtoBovdj4CTt8vLyQUP03hjNXF6ivHyj7P/C94mFW0q276hNWi4FgeZ/0nYAbJktBBEdFu9crVKZ96xzmkf7THHTz7ZX4zsLx9Go2oxzmuaQQWktPmJHQjBHmv174c8TW1/Ta6g/dt2e8aQQWE/wBLgR+LBW7QoW+2SPIXVtZafR9n0S9Jt6b8y5rSfIkCfmqdZuoI9FDw9UDAKZ42iOoHGEJ4mdAM8g/ULd0Whqp/SjzetvnJ4GWn0gTPUFGi1IPcTn1S/RzABWm02o08/VYf5N4x307orlFvxus9GzDHVjSaGtjmFy3AQwuWtMTgjlBUNXZ7z3e4T+vp+RXzK/x1uOYs9XVrIPpmlolevLgNaSl1O9CU61qoJIBT/C+Ds1V6WPb8lPyOuhTW2nyV31/5qdnfHASyzt3OMkYRVA7HQvqt3i9M6XQoro8NVr7/AFlY3waejcq19wqLdgc1e91C+LeQ0z0+plW10z6NpbFdWpHK1RC1qwCuumYKQVLrKZR4+zURcoLoKepjW1GQzqVUDcvUW1FVUqKnGlp4Y3d8g1aqszruobXET5pzf1OyxXjKvDCXZJBAx07qZQaD3qKyYnVqbru6p0i4mmCXPEmIaJAMdzA+a3lhTY34GgMa0cD7yVhvArHA1CeuB6fsVprKofeAZyvYeB0eyCnJcs85rdTvbQ9oWTpLt4IjASiraPNYtYcEEyPwj1PCd3lIAcjznH/arbqDKbDj1PVe80uVyYeoqXTM7p+gsoEuefeVXHJJwBOAO3RO7yq9zPgMRA5/L1SEOfcVj7t22m38bj+gHc5Wm0y1B+Gn8XUkmf7QsnzeqnCLZd8VpYYwkEeF3FvPCK1G8l4a31Poqryg5rI/SEkYC07v6j3Xze22XyewrgksI1l7QFRu3klLT4ZgCDkdv7ppoLSCC/qJx0TK8d2UyimskJtPBRotyWQ0/VMLu5wUNaWwkEwu6nRJBDeUO14OWN3JG0uJTKxeJ5+SQ6bbVG4cOVoNH04z3U1vC6Iuihvb0B+IJpQGENuERwVdQdhVr39CUV6kMJfTeJ9EdqFQQssXvLztEqhZnJoaatSjya+lVVzUj0i3qcuwndMLoKSfJWugovhloXHLi6VdUvbyVyBXWlUvmVYxU4Te4NrgsKk1cC6FpV8PItnnBQIUnFcCieJMkzfiSoQcjCzd5bEztIz3W21q1D2OB/JYepeBp29u/wB8L6R+JXxvr27eV+x5HzblVLOeGZC5LqctfjJjsrtMuocD1I6InxMDUadv4unqueGLWGtLvxdj2X0R7diyjyak5M0lEy0KVMwrmswpe6We5IGWSAeq61SQfJD3FXaUBTvYcR3TY0t8o6Lf2R1l25i+fa7otN9Vrnn8UiOkj9FsdSuYBCyes0y4t8jPotnSVNLBna6yLfKyC6m427IGWx8J+sLP+H752yo52G7pEk9eYTTxQ53u45Ax9+SytxqW+mKQEbck94/dRqNPugIhqNtmV0uj6F4cc6nScDmSXD5qzw1qRdVc3sAfr0SDTNVm2bmXDBBMHGE58CXDAP8AnucD1JHP0WDHRRgnwbVes3zjFP45HHiSuRt7hwM/RN9QcPdgxyEi8Zu+Ax/tkfKYSzwf4m9+wMdx37EcheJ/KPEOyUZpdnsPEeRVeYSZR4wb/pHvHKD9k9sWF7556dOQm/jOjLY6Y4VOn6O+k1rmGYhx8wVg3fidlVe9F+PnVZdsPqmjV/glC65cfCqNNrgMBB6fX7/ZC6pcl0ACZXmtSnBYZ6HTtSaYF4e1GajmfP8ANbq1YWgT1H0Xx7WalS3f76mMtznhw7LeeC/FH81SBja4YLZmD9yquksck4y7LOqrw8o29oQcHhEsoQYHVKbZy0GnOlHOLKvqYCrV2FaQoBqmEuL+GA+8oy3iyzBBPHZIbSuWkNPfn1Wy8QUwW5Xz2ldE1nNI+EcFW9Lop3SexZDt1ka4+42NCps688I61qjn5pA6vuYM5CPsqvw+addo7IPDRVjfGSymaMAOyp02oOzqwM9ldaVpVGenaksobGeUFgKFUK1qjUCsW0f4fBCYLeslsHqsld0trvmtlVZIWc8RRP6r6L+KaiXpKuR4/wA/RFvegK5ry2OqQ1wYKbOKWa7dtpNL3cCf0K9rU1A8/TRKyaikY3UtZklrRxg+SDo00ppXW95dxLiR6Tj8k8tuF5ryGrd1jjnhH1TQ6GOmqWF8FtFiKDFVRRjGLO4LORdfUsJDdAArTakIHyWLvbiTCoajgt1rKPPpz81888QaZsrtcB1z6L6nY28hJta0uXjyPZUbKd6RYrntOaFSlgUNSt4M9k80qygKV/aqJV4QDZnbXKaUqShSs4JRnu8JaRK7M74gsQ8EdV808VaFu6QRwvrd5SyUh1Ww3DhVL4SjLfDtF/S3uDPiun3j6LiOk5H7hfUPC9XcAe4WY8T+GHEF4GR+aH8F6wWH3bsEHE/p8l12LErEuV2vk2pKN1eYn0iuI9FUVO1uQ9uEJdvhInJbdyM5RfQ40qqPoU/qUAQsbpdXK1tpcY+SsUvcitasM7SpEI63lcsso9tKFYjDApIptplO7QYStjcplaFOi8ATWRpbNRYahrVFlaFcuChZDB6kMohoQ9DkIstToiZRwcKKooR4RNF2ESngBxCWHIRjQl9ByOpuUqeQHELpq0KhhVzVOQcHiq3lWuVLlwKR1hU1TKkSoY5BIUSpFVlbp5vJElRJXXKIXEp8nSoPKmVVUXI6RElVucuvKrKCTJRF7kNUKuqFCVn8oCcA1dyXXL0VXcl9w5Kb5CRi/ahcRRa3/e+PoJXzP+VBHX5r6D7Q6klg7Sfmf8ArJ21NZmsacjb0WdmC/RrDjC2Om2sJfpNvELVafayqT5fBfzgIsKKe2lOEPaUYR1IKzWmJm8hVIIhgQ9JEsKsRZWkEU1aEOFe1OyLZPapBiiHLu5SSiYaphqqapqGxq7J7V5wUJXiUvcMjEiQvQoFcIKIYo4JSq3KYC85iBhoX3dNJdRtFo6jEPWtgg4HRZ851qwkQvlHtC8Lio0gj/vuv0DqNisf4i0uQcJc45Gxlhn4p8R6Q6k4tPT8/RXeBfFdaxrCpTJ2mBVZ0ezsezhyCMg/Nfb/aL4NFRpIEEZBjg/uOF8N1zR3UyQ5pB/I+h6hOo1Di+SjrvHKf+JX/AHR++PBGo07i2pVWuDg+m1zT3DgCPnwrddZIX5z/AITPHrwXae8bg0Oq0nl34QC0OZBMuy6QBPLuy/RWo1gQva6O9Sgjw2t0nOUd8OaqDLHHI4++q1Fm7ovkN9dGm8PaMtP1HYLf+GdZbVph7TM48weoI5BVicNyM+ypNfuPtRqZ+WVjdPcKd17wtLgJA/4n5n0+i1Nw/GeViqm737pPwnp8kC0Nd8HGSKLunVPOTZVNTc+YbA6ZVVnlwlCaW/BB5TC3cGmVFWkhpoOEELu1DuktzNK1oayeO6z99V+Oei5X18OBZw4mMkcd+eUNUE4BmMLO8bXP1bJT/sWtWo+nFQNPoV6m1SssjpL9vJR9fVgCB5LzP5N4GWosVlUf5NjxPkVVDFjD7++DRlZa7uxuJXdVvtxSW9eYnlbP45+PLT1f4nbM3y3l/Ul7H0aSyvwV7UqkNKzVndRCPvLuQM8qn5L8Vh/UKcFwW9H5qTpw2A/zYBMzCwPtH1hgc1pJjnIjPaePqtJ4kqEAOHQ/LPfsF8y9pb9zQ0OkzMcwOqZf+I1SlGaXHyUrvyGyMXD5KNC8StZVLHEhpIgx1Pn2mFu7aQ9rp818IrWBcDtkkff1Wh066umMYBUcRkZyW+S1KPFx6isGdDyqgve8n2HU5J5kxgcrN6hqNQOFIN+N+ATwPP5Jj4Yqn3DXO/F1mUMyo41t2MDiOPTzKXL/AAZNfRrb/XimvnkcUGChTFNp3OcTuPc/2/wtX4UcWs+IEA9PvosEHkPbySXLb2Gp5AMeQ814fzuqk54Z6fxtCjDI6vmb4Aws74jtSGGOeAtQWuIBKX6naBzSOq8vfFyizYqlyLvBd1UDNrzPTojtXviMBIdIdsDgTmcKy5qbQXOM/qqm57Eh23ke+Hr1xdBytOWwZhfPPD1wS6Rj5rd2FYvjy5VnTz4FXV4Y4oMJEwm+kU4BKo06jPoEZcYGEVsyn84I3VYAqmndThLNUrkKOn3XVVU03yWNjSGl5Rle0mmB0CsZUDgfRCWNWCgtwmEm2h5tUYXGuVgULE+RPRxRJXXqsFKtu2vBKWSRXQohSCXXLLOLF5RBUoWnBp9AkXrzF564xKT/AMQ74FuvVi0GOF8+1muDIMT3X0LxA0luPmsLrGmB8kYP5SvsH4qqo0qWMP7Pn/5BKz1GkZx1wACJ+L9UysXbgHHB8llWtqe/LHNhvQ9D/dbDTtPgdf7/ANl7LUKMVnPZ5iq6yUeg6jcdEbTqIJlurWvjCzZpPosUuTfuQFf0d24rMiuACTyJTjU9SaJErN6gzf5fur+naivcaH9E2spAdG795LukkJZ/NfGQe/5JjY2RY3b5oGlZfGSQtWq6Bja3QWrDSCLmkHCMGQR8isXpFlTFw9rvOPl09Vv6tCG4HCyXiK0DarajeQQTC5yymkU7atmG1+zGlDwuwtLmEgnMT98rMWzH21yJMBxjyz1/RfRbC6bskdcx1WS8d0d7NwaQWkZ8j9hVKo5zGRZtpjBKcDTak/dTJPG2fqOfRY32T2vx1XE/ACAO0yZK94J141WPt3nLAQCYktPHWSRKI8Gv9xVdRPFR3wunAMcSe6oX6PfxL4LvrqM4Sybi6pbw9pHMx9MJZ4b1Nzg6mfxUyWkf8QYB9CFobgYJ8gvndzqRt7zcG7hUO0jvJj8jlPejjZW1gGeqlXapZ+cG38OXwl1P/YT9FoqVOSI6rH+Hrbbce8cSGunB9F9HtmtwRBjsvjv5J4eVN+Yrg+i+G8hurSfZn/FWnjaZ4Kw3h7UP5KvkH3buR+48+V9W1WgHtIKxOq6S1zXYnmP8JPgPDR1NzUi15PyE64ZTNtoGtMrDcwyFqtNq5C+O+Cbj3YiMjBC+haXrEjAiFa8t+N20SbS4K2j8tXbHD7N3SdKmQkdlf95TL+dELy0tG0a0bExX4muYaQsZc0cyOU7166kkdUFQgr3X4jo1FSlJHnvO3e1KLFnuHASE0tb4wDxjKtawcd1y6tdo8lua3SUy1Ed0eGZGm1NiqeGEW2tB+OyZaTeySFkv5Ta6R1TvTz1VPyf4xXP3VPBd0nmHHiZrqFWBK4b1pxKVVLn4eUsuLmOqoUfjKfEmWbfLYXA8udZY0xKzGp3PvHEhJ7muXvmVK81BlGmXuIAb3XrdH4yvRx9pj2aizVy2pBGs3QpUy4ngL5j4w8QurN2AfDgk+YXfEfib+YIDT8ETnrnjySe7b8JVXXa9KDhB8nsPB+FjXidi5BtNuoIC1+nPkL5l/O7akErfeHLoEDK8pXZ7mmes1MOB9SGUzpDCVVHo+wqSFYyZsuEB+IG/AfRfOLKrL89Cvp3iJnwO9F8ftriKhHWVQ1vDWS7pnuifQtPYralnuKA0e54ErUWTAYS4NNESbQFQs8KuvQWjbaiEPWtfJHKvgFTM+2yVNxZQCVqaFoOyqvrFJ9MZGXJgrumgDRTzV6O0+WUme5V5rDLK/YsGkB7I7r5h7QvBD2E1aYy34iO4Gcdzwvs+iskInV7LcDI6IfT53Lv/AN4LGn1Tql+3yfCvDGrODWkjBAB9f7LT3u1wlqB1DSfdVXAN+EmR8yndDR94luDGZ4/wstRcm0lhFyyyLe4Q0biCFpNKvAWzKR6npjm/FtjP3Cq0a8wQg085QnhnTq3rMT6RoVSVojSwsV4ZuphbyzEtW3T7lwZtuYi9zIEq20ciK1DBQ9uMopRITTQ5tXI9L7ZMmcK5SVLeyNIZTBrZQNPkJjSVmPZXmyosUnugLu1QvVzQC5ZK2ei7epJS5roCItHpOeSWhyxyuovS6nUyjKZT4sVJBJVdUKxqjVCkEFcV0PUai5K6TCTGBKrKmolb3R5zBU4rjSuvUQVwPyecVW5SKqeVGcB4IvVbiuucqnFLkEiFRyCruV9RyEqlLkw0sglcpdclF3T0k1642se6eGkpMmGonz7xXdbqjs9Y+ip0m3kjsM/4Sl73PeZPUlazRqEALEvt3SPQaavbEe6ZarTaeyAlFk2E3tCuhyHMOpopiGYFcxytVsryYTTCIYUPSepscmABbVY1yoa5XUyrERcmXMUwqpVjAuaJRcwKUL1NqmGoRqINCuNILrWqSEYig0lMUVaukrkdyCPpqBRJUHsUBJgdUKshX1GKohLXY5dAlekkmpWUrRuag7uiiySsnzrW9IkHC+T+PfCAe10j5jkenmv0FqNtPRY/xBYc4QNFqFzifi/WrKra1pa5zHtMtewlrh2IIgtOF9D8F+3e7puDboivSO0OdAbUaBjcIw89SIRHtl0El0tGWg4jPP5r45cW5aVc0upnDhMw/JaRJ74rh/7H7stK9K4DX03Nex7A5rmkEOBzIK7oVI0qjoMNdx/5Y+h81+MvAHjKtY3FKswuc2mTNIvIY5rgQ4RwHfEXAxg5X6L8Ee2awuy+nVP8q6R7r3p+F0gf1j4GODsfEROD3XoNN5JPiR527Rp8o+4Uazy0CJPc/uk9xYHeSSd0zj74XPDutNjZ7xjnlu5u14cXNmNwgmRkfVaSxLTBPMQepHqtqjVLHBhazSPsDtBxOCiqzjHyRWwcoXUHGIjn8ke/dIw7IuLZgrfWagvPd1Gjb/S/yjjzK3FJ0fF0ISfUtLYRJiRkHrK5ZXDwIOeIVyyEJpOCx9i9JZOOVPn6NJbVO6Wapey8Aeatt2nuqbqhKrwhFS5B1VssYiRdUQt7diQBknoFOrReRjHmh7mxcILfxdZVmCjnkpSsmvg9vUt5Qz2kdp6rzw7vymSgmMqveDOe0XU4pbBO4ubEf7cysI/QKrhvIOcx5ei+qXNgHcgH8/sLl3RHbpC5ySSikLlVOyTm2fKbK0hvEZPRNNHsJERyey0NHSzvcXAQTgAcDsfvoj6NrHQBHsguUZ0dPOcsy4WQm2oNZS7pRVcGtnq45++y09K13MhYnxvdmkDgmB0HdeM19b9Vn0TRyUaU/wBhjo9Ub5dyBj5rlHXqgrhrGbzMARk/ttCo0ktZQFWo0hzgOTwP3TP2V7KlV9QuHOO4nOD0XiPN6Bz9+cHotDqsLauT6Lo1Oq4/6hAgcDif7K7UaBjH5Ip90wnkfJFscI9V5z00+MmrGeOT5/qRLQcQYPRZZlZ9QxM5OF9a1rTmlpxOCvn1KyDHuxB7LL1GnkpL6LlVyaCNFs3TzEL6HoVzgCM9Vi9Kad4nhbOytIMzgq1Wtq4Aslk1mnO6K+9qYQGnOHdSu6kBKskVIrMhRf1t2FyytiDyqZ+KUfbu4Q1Q3cli6zasDK3MLr6JPC5QymdAABFZVnsRG5pldi1wGUY1cCmAhpo2kylnkiQoOaroXIR26XcRuKFJVPOVaFmVcSaDaPKbSqyrGK1p29+AX0ccvNULusGiShf59vdei0/gL7WrIrgzr/JVVNxb5KdeyIBhYR73NeWnqcLa6ncgjH1WU1elncOi+oeHpVNahg8J5XU75uSZRcUWuEEZ6KVlS24mUJVqFH0cha0k0jFjduCWoXVKrWNLj2+qKYsv4ouC5+3o39UuuO6Rq6OndLLEnOV401c1isaxWmzaUQcU159BE7FEhCpYZPpqSwzlMJBrekkkObwDkfqtDsVjGpy1LRSu8bXYsYM9o9D4sqw0hUD2kYg/f32TapbjphU2lttnzRwuy8lO3RYW3HB8vstBdTup4DiYPeP3hbU6A1zTJyeD1B6FQ8S6Y4tG3BB3D76KWl1XubtM46+itSk5NNGa9Mo5hJNh2l0KuwNcSSBk90m8XaW5uys3mm4OIPXqt5pA3MMcgJde2vvmOYcSCJ/RMrv93PXyIv03s47+ALw9rDLqngQ9v4gRx/hFWGte5cdxkAE89uq+eXOl3Fs5z6ZOcGOvqCtRo9EVKPxZd19eo9Fn+R8bVcsNZTL3jtfZn6aNXZeKWXFJr6XDsGencKfueO5BWZ8O6OLduzpOPr+q1FC6Etn0WdpPEV6aTdaNS3yDtj/iPkW6XR21Hh2JWjtAGmRwlOukEbgId9/VUeH9Ywd8Dp94WrbR6tecfs0ZcbVXZwzS3OrObnpKYW+tgs3duiSXNRrmmCFjdSe9teQTtIAIn8/NeZ1H41VqOYrDNmnzE6V7nk3YvRVcSEdZ28iQs3ph4cOoAI/daLTboAK3p9B/SVbYgajU+u8s9TuIeQVzWr4Bo7SllbUGmqVDWH7mgDJlWp6RTcXJFSmUkmojUVQQIRYKU2DuEc96icMPA302+cFN3fO4Qd1XKo1PV6NP/wBx7W+bjA+q+Z+IfaDve5tu5rqURvGSTOdv/EYyusurohukXNH462+xR+DbP1trHEckff1WJ8a6o+qdhMN/2j8p7hAaXqE8mT5/qu3NMkknqvJeQ8xO7Ki+D6N4zxFOmWccgto+IHZNHO3CEtrUMKnT7qDH7rHha12zZcV8Gc8TUi2oD0la3wTe4AWe8Tic+aj4RvIcB5pTkvUCm90T6fd3EAFNtBryAslqtx8KP8L32B6pjsxIo2V+02Wp0pafNfDvE9H3dUnzX3GlV3D5L5d7RdPyT1SvJrdXlHaKW14YL4f1Ceq+iaNdYC+EadqBpvzwvqHhDUQ8crN01yfBdup+T6daukK11JLdJrynTRK2oe5Gc1hlVKgu1qCKptVhYmbETnDMN4qsYaT5L5/UOYX1zxHby0r5JqrNtX64+azNbHZyX6HuRqPDwx9E/fbyFnNCq/stlYtkIaueALVh5PnfjDSRzCG8PWq+ia5pgc04WZ0+yLXpdtWGNhPdEt//AE+HjIWE8XeGTTJc0Qvt2kW4LUHr+iBzTiUc9JGyANGtcJYb4PhPh65LXgFfWvDtSQsLqGje7qzHdbPww/CqaCMqntl9lvUtWR3IeV6WEq25WgYyQltejBWpZHcsmdCWODtsCmIOFRZtV1UYKfUlgCyXJG2f8SaW7uUksH5KbW5TF2IsQW0KnUETSGFTqATJR4K8XyC1T8Khb1kHqlxAAVemOlU5Swy3FPGTSWZlMqZS2zOEfQKbWxViDWhcqhToleqhORXAKgVTkRVCGqLjhmouXSouW6zAXJW4qJXnFRcV3RGDjiqXlTJVTygySitxVT3qVQoeoUDYSRCs5BV6ivrOQNw5KbDQHdPWS8fXW2ifPC01crB+02t8LW95Kr3y2wbLOnjmaRkNNfJW40Y4WJ0JmfmttpjwFgQk5PLPQtYWDR2j5Te1CS2RTZjsK5FCZB7Xqxj0va9EMqJsRe3Iax6IpFA03IqkU2LFuLDqYVsoZr1MPT1LADiF0gjaDUvpFMLdGA0XAK2mFUCr6a5hRkeLVwhWSuIMDMlWxTa1TAUguD3A9RirhEuCqc1CTEqc1UupIgqtyUyxHkFqNQtZG1ENVahTGKIpumLO6vQkFau4alV7RXZOwfG/GOih0mJXxLxr4VIJc0eo7+fqv1dqmnz0WF8S+HWmcIWWK2sYfR+Q761LScIUr7X4u8CbstEHqvmms+GKtOZYY7xj/CsV3/EjJ1fjGnuq5X18inT9Tq0nNdTq1KbmSWOY9zS2edpB+Gescr694a/iN1CkWe+bSuGtEOlpY9//ACLmnaHAdA2CvjVSkRyoBX6dTOvmDMS2lPiaP3v4Y9rGm1209t1SDntDjTe8Mew9QQ44IMhbKhXa+HAgtPBBkfXqv5rArZ6F7UtSt6Qo0rp7aYEBp2ugdgXAkD9FrU+WS/WjMv8AFwn0fvDV2SMIKxrNkNOCvyP7PfbveWvvRX3XYqCWmo87qboxtPHuzj4RHVN9K/iCqbXe/obnyS11J20AdAQ7mFeh5erbjJT/AOC4fGD9e0qIUfdCV+SdJ/iYvBU/1qVJ9L/ayWvA9SSHujyC+y+EfbTZXD6TQKtPcxxfvpP/ANN7eWPIaW5zBBI+FHDW1y6kIt8O30j6nVoiEI9gISlnjaycSBcMns47Mn/yAn5KN74ttKYBNZhk8NO4/wD4zjjKdHURXyUp+MnnDRbcUIlCMM4WC9pvtNZTYP5WnWuKhMjZTeGCCPxOLYHXHkstYe2mvidLuCepDo9cFgTv6+GMNkx8JY1xE+zPaoOpr5rS9stLPvLS8pENkTTDg4/7WlrjnzMJJd+2yrUxbWFU+dZ4YB8hPkolrYfYUfCWvjafYhTEEnhUUWA54np36L4ZqPiLV7oOY407em+P/aa4vAxw/eCDjmOqaadRvS0NqXNX4QANp2YHcCczmZSbfKVQWd3+hdq/HJyaTRvvFvtGtbL/AEnF1Wvj/SpAOLWn+qocCljOeegV+sWzawpvBlrgHD0InPmvkD/B+2o6oNzn1DLySXF3mSeT5r7J4JpTaUwRmnLTPMCYP0hY+o11dsvaa8/E+jVhg/ii3FSm1gMGf0CQ2NF1O4psZgEgPDeDlPqNPdVzkApB4ot3Cpupu2wYHcn+yxPLV79M8LkTpEo2Js+w1KLYBb5Ky01bYTOTxKD8J2pbQbudueQPi56IZlEGsA/qZ8l87nuhI9PFKSNcypuAPUhZXXbUMqA95+v9lptwB+HMDoUNfWfvGlx5APyTbIOURae1iOzZuOOi11lJaAegWf0lrWjOCtFatgYSoRwgnLIz01pV16DCp09p+qIujhV5pMD/ADCKmZdCYCoJACR39yWukFTtLsbgZyVoaXSy9Pdhi77E3g2tkMeaIpySlFO8AjKbadUnJPb911tSTwV1kLCkwqmvcDopWhwqLjifDLPIQF4BcldaVahLL5OYC60IeXSYPToiGhCate7SEJS1YTlakfxO2xepD55Mu3zdUZ7JfHA3hSVdC4a7hV6rX2sJVfS+FtVyrlF94LFmurVTnF/GRfrt0PwpQgLi5LnSSjrZ/wAJX1SnTLT1Rgvg+b6jXO+xtkDUwQUqBkkFXXNxEyh6dSVfrhhZKFl+eDrLQEottOFy05Rl0z4T6FDObzgsabTqfKFOoXvu2zycQO6ylaqXOLjySiLuq5xyeOAqwxWoRUEeh09GxFYYpNarYXQxdksFYC6GK0MU/doWwlkp92u+6V7WLrWIMk8g2xR92jNi4aalSwS4ZBgwQQQhadmAZGExNNVOpolbIB0RfaCLV7WAnvyrLe3ADnDrlL3tKsoXRaI6IvVaK0tJFllCxDwZA+iVN033boA+GeEyoajtmRPohbvUXHjA/NT/AFLQC0Ec8HqzJICZULPyWd/nCDPKc2fiGmB8Ug+ilanIu7xueQrUbf4eEuGijkpta6zSeJ3CB3/scwim3rDEFufMI46qUVhFWXiMyyZ6rZOYMEx25+wrW2zXESM9VZ4l8Q0qI6Oceg/dfOdQ8XVp+AhoJ+ih60u1eMWD6tbWAHCPaxfFrH2i3NPBa1+TkmCq7n2m3U4awd+ThVZ6mLfLHf8ADm+j63cW7R8TiB5nCxntA8dUrUbabmvq/wD7cyenbgQvmHiPxfd3I2vfsZ1ayRPrMlZmuDzJJ7kkn8+iq3+WrisJ8mxofCNcy6Pp2k+2Xaf9WiQO7CDn0J44481DX/bI8z7qnDTj4vxQeogxPHK+Vupqp4WFd5i3pI3oeM0/0X+JtSqXLQ6o9zpcZB4hpkCOg4GEupVHNMteW+nCmQotasPU6669bZsv1U118xQ207xFUYR/V6r6D4d1plcAgw7/AGnmfLuvlQporT3FrsEg9wYVOKwWVa8n127ASKtTh+FDStWLgA78UQT0+4hG2rJMpxZVnAs1unLUq0obHNP/ACC0er08JK+3wga5yMjPg1mpulnyQvhW/JBHYqdk/dTHXEJNo9XZWI6E/mhlnIKw0fWtBvZ5QXiy3DgUv0ytCOvqshNl7o4ZWjHDyfGvF2nbTI7yjfZprB37HYPRPvFdsC12F8xsbs0rmm7gB0H54/dY9ley3j+TboSsrZ+n9DrrWWr5hfO9Cu8A9FtdKuJhbFE8ox7oYHlNTKrpFTKvIrNi3VSNpXyLxRS/1C4d19F8QXkHbPKyup2W7Kzdet8cIv6bhC7w/WgrfaPVXzW3JY4yttoVxwqVDaYy1cGvcyWpBc2QDk9s34ULq3zK0bluiilXPa8MlpLcBNzRBEJbYMTug3Cfpole58nz3xdoo5AzlJ9Do7Svper2ocOFi69ttfx1VTWVYluRe0926O1jm1p4Co1C0EplpjJAVuoWuCrNUcwK0rGpCOlThTu+D6KwU1y7COCxENimzd8Sc6ecpLT5Kb6c8IK3ydasIdU24QWqORZfEBLdWcrMnwUocyEN+SSjLJsQha2XJhZNWU3mRpYwhxaHCOouS6k5F0nqwnhleSXY1oOV7ggaLkY12FYiyvJYB6jUPUYjHBCVgiASyFhceVJVuK2zz+MFblSSp1CqyoYRwlU1CrXIeqULJwVuKHrOVjyh6hQMLJRVKCuXImvUQVUpUgkA13L577UH5Z819BrhYH2p0vga7/lH1VLV/wDLky9oV/iIzWiOWs08rE+H6mT5f2WvsXrGpftRu2Gn0+qm1F2FmbOonFC5wrKmJcMjFr1dSelIuUVRrIoy5O2NDmg9F0npTb1UU2srEWLaeBiXq6iUuY5HWpTocipdDGgjKbkvpuRDCrCEZ5DG1FPch6QRFMKMjIRyXsCsIUGKwBcNUcdnAF2VJrVzahCT5OKL2qwNXnoJhYyDvCHqFEVUPVSWWYxwiio5C1Hq55Q9VR0GDVygqyLqoeoxA2FgW3NKUovLAFaF4Q1RiHklIxeoeHZ4WU1rwcXTifkvrkKqrtjhGsEOxo/MniX2a7pLWwfIRP7LAX3gCrPwDHmv2DqTG9kkr6c0/wBI+ije49MCyKs/Wsn5LqeA6/YfVBXfhC5aJ904/wDiJ/yv1sdIHRv5Jnp3hwE/hH0XLU2Iry0dLXR+Jqei1yYFJ8/+JWq8LezW6uHAFjmNJEucI57Dqv2lYeEqXVjZ/wDEJmzQmAyAB8oRPUTl+wiOlph8N/yfH/Zn7EbagRUqtFV4iNwnaR1EnBX2Ww0CkwCGNHoB9lM7W3A4CPZTRQtkvk6UF8Iz2o6PTIy1p7S0H9RhJamiUx+FjR6ACfoFtb+lhK/5dE9VP7IjRB8syN1orT0H0QbtBb2H0W2qWiEu7ZArJML0oo+e634ba5p+EJJaeHw3+mF9Hv6eCl9OylM9z+QFBIz1DSgr2aa3stLQtQOmVY21nEJiWURnBm6emg9E50i22y3oRPzTFtlHRW0KMQn18MG5qUcGKuauytBxJj77KjxNYQJBE5Imcpl40tocHDBBkHzSZ1171h3/AIgIWm61OGGeWk9kjaezO9NWjBqSW4jt5IzXrYwXNMEAwV8U8OarWpXbWUnP92ZL2/0ROJ6DML687WS7EYjn5Lwes8TZOyUYpmvp9bDblg3gjVXMc9tRxJPErc0L9vuSZH1XxC3sXXNxU2ucG0weJie3qgzqde1qe4PvKjahlpJw05xHbCbpfA6mFOWv/JV1Plqk1l/J99oWTS0OkZyvUa1QugD4e6x3gTxA9zRTqZI4jt9Fq7i+eSG04DiOSqtnjrFHOGPhrIN9mroVYA7wh9QucJZQ3j8RE9ULqepNaM/JZ1el32pfuWJ3YjlAl6gaLvi5V1OoD1+SUXlxscvtHjPEVOhRa+DwPkPJ2Qm3k3ej0g7krR2zCMHIXz7S7yBytbpOqcAleZ87+LOxuVLw/o0PGfkOOLB6KHZTbULYBUrO7BRD6MmV8z1njtTpZYmj2On11V6zEnSerAULWrhnKjdXrQ2SeibodNZbNLDFajUQrTbAtdzhZx9SCiq2pgkoK+M5C+zaOl1wUX9HzDX3b7JSX2MLC7cOqKurouEHM9FnbO6RPv5Tp6f3ZwJhqpKO3IPVo7SeyuDyGkrrsoii2RHdNlLjkpqGW8GbdUc/MYR9hSTNliArLejCZPUJrCIhpnv5I29CMoPxNUcGAtJGYMI+tcAc4Wb1a/LyQPw9PNJri5Syz0ej0+1C0tXi1WhikGK4zTZU1im1qsDVY1iBsPaVAKbWq1tNTDEDZKRSGroYrgxTDUDZOAf3a8WInau7FGQ0sgfu1B9NHbFW6mu3HYwAOpqo0sJi6mqalNDuIaFj2Id9JM301U+khbCguRNVpIS4pp3WYgrimhDfImfSQtWkQmtWmqatNQ5MKC55EdxSSutRHZaCvRQlW3VScmWltM7UtUFcW60Vekga9BVcvI5NLoztaig6lFaGvboOrbqjqKs8l+q7jAjfSQ9Wkm9Wih6lJUpRaZYUhSaShsTF9JD1Kazpx5LEZ54B4V1sF33SlQpoEghraOgrQ6dfRgrP2beExocq2qmwfWxwObo7shRFsCFVSOI8kZQHAQTrwWK7s8FeiO/E09DhKtYplrw4d1oaFCCcCe8KGtWstnql4LKGOnXctB7hG1LjCUaO34QPJG1DmFOSMCrxDlpXx7xGADPmvs+t0Tt+q+VeLbAwRBys7VRxOMvjo2fHSSeGfYvAdzvoUycktBW/0SovkHsfvyaIYTlvTy5H35L6lpVWCrGlmsGfqYYk0bW2eratWAfRAWFaVTrd1tBPktWM1gzcZlgyWp191QnzV1AyEvBkz3RVFyztybLsVhCbXLSDPmjtArcK27EhUacyCq9kcSyh2co3GmV8BNTlZrSqi0Nu5X63mJRsWGE27UxtylzDCMoPT4PDETjuCarJCy+vWmZWqal2q0JB+qK+O6BFEnGQr0d3CeGjuBWf012YWmteErRPKaJ1HDyZa4bBPkVXdDBTDXmQ71SjUX/6ZPkmvEcjIcpMSl8Eo/TqskeWVj7zVMxnn91pfD7pG7ywqsLFuLFsHtyaWhV3O9ENqGV2zMKFYTKtylmJRgsMU1xkplYtwhXUZKZ06cNCzlHLL0pcYJsKYUhwgqTVb7xPYnAyouRTXpVRejabkyEhU0E7lXUapU11yNsWo8kyqqhVjlRVW8zzhW4qLiuuUHIWSVvKoqK56oeUISKqhQ71dVKHeUuTGJAddDVERWKGqJTZ0VgBrrJ+0Ohut3f8TK11ZqVa3a76b292n9Ei6O6LRZontmmfHdGdDj5/2Wxs3Y9QsdZsIqEHkSPoYWv092Fg1rCwejnzyNbSoihcfklb6kD5qDq/KLOBY7p15KMtq6zlG4R1K5UxlycaWncoy3rSs9RqymVpVVmuQLXA/olH25SuzMpnQCuQZUn2H0Qi6AQtBF0irCkAooKYFe0wqqZVlDJ/RdksV8FtEf5RjQgwQMK5lRQS1zkvBUXPCq3qDguI2osNTyUVFq5WdChrIUWcrOQlVsqxzu6rJVeXA4FqNQ9RE1Sh6ihhRYLUCpc1EVAoBqWMTBCxVupo5zELXwoCA6lNB12oqqcqVOhP1Qbmc4iJ9qXFG2mjjqn1CyCNo2yLGRUpmcqaYAi7G1TW7oqFrTQ45DXMSyhSRJpqyhTRHukeBMooFo00U1q62mpwjURUkDV2oX3SMqqmEUK+RbeAWrSQNy1NKyAqhWVAQ5ciHUaXCoNFNrmlJVb6aJR5JcuABjFfS5CrfyURbNRYBZdtXm00QymrWUkUOwGxLr+nhzCesL58zRHQ90GYIC+s1m4j6pNqlh8Jjt/2tHSyzwYnkaFncj4n4eoOa6o6PiJPPYYW71C/ay2a4y34cnr/ANYx6oF9hse6ASDlZ3xxq0N93O2Rgc/9crUp0yc84PMai+VVTWTX+yqtuovq/wC5xEeiC8SU/f3bGNH4QXOI6dM/Upn4A06l/KM924uBlziDGTyPkiPDViBXeScHEHnBWhVGKb4KlsJ2VQX9wbw7cupVhT2yD1g+a3jXSdzfmep/wkHiC1yXMIBb1EIfw3qJqO2zxjnPP17qbfHV2R4QMdXOqW2XZsnX8CT2WJuNW97WLeI4WhviMjPC+eeIqWyoHtJEmIXmLfxV+tGyvrOTRXnHGO1m7t6oxjKo1ehuE9kHotUkDKeUmzhe10/+HFfsYGtj6uX9iuxuox2Wi06+4WWvbfbUnMFNdPdmU/UVxlHJlRUlwbO2vCIgp/Q1kYlYOledEZSuCV5/VeOhasTRoafX21P2tmu1KuKg5Mjj77LM6ldPOCfQIi3roXVDPHKr6Xx1NM+Iosajydk48sHoPzJTC8d8BjshNPsCclOqVsIhXbpxTM6uMmnkxltebZB5R9reE+i7e6KA4nv+S5To7VclOuayhHuTGVOujbV6V0GphahUbYovUQkxlCgRGVB1cAZwEh1fU93wt46n76KvXVKTNejT5YHq9zvcf9vH0QjWqQapBq0VhLBqQhhHA1WNautYrWMQykMwRY1WNapBqm1qTJjERAUmtVjWKe1A2FgqDFIU1aGqQYh3E7SrYubUQGKWxC5BpYBgxcdTRMKMLsnYA3U1W6mjSxQqU1GSNqFtSmqHU0zexUvYoyclyKqtNDVqSb1KaGqU1DeAhJVooerSTupRVD6KFsKIiq0EDVoLQVKKGfQSJcjE2jPVbZC1rdaCrRQ1Sgq8oj0zOVrZA1rZampaoOraJNkCzBmWrWiCrWy1da1QdezVG2rJbrmlwZd9BDvt1oa9oh32yoWQ4LFTWRC+ivU6Sbvt/vCrNGFVawWMlds1MbZiGt6WUytaSuR6K03yFW7UZ7vKqosyjabUTQG/ae3d1acjurW05ELr7eI/X74SZ1fJepvT4KaLIV9bKhKkAq5dRC5bLY8ljPEOnStvQS3U7UcpVtanHDH1WOLMT4crut6ocOP6h3H9+fqvs+i3Ie1rwcEAr5TqFtzC0Xs11aCaDjkSWz2xj77qtp6vTe3I2+W/k+tabWUPFT5ZPZC2L1ZqhlhC0v8ALgoR/UZ2k/C7RrZQQqRg8rtJyo/JawM3cIdlSCrG1MJfeVoIUWBRNRpdbhaeycsXo1SQFrtLqYT9PL4K90RkSr7Z6GC9QqZhWc4eStFZHNIrtwMFUW70Q7IVuPKEvhmfNGHfNPbQpfVZn5pjbjCRSttjGajmIn8UlYfxLqEUyAecLY+NKnwjPdfH9ZvpcQlaue1j9LHMULrQ7n5X0XRRDQF8+0Wn8YW60+vkDsqFDyx9/KHzXrpfOOqBdWRel5yru74KcYfIVa0MhEVhlW2zYkoWu/K5LgJttkveZ8oVDXyZVdQ4+alRwlsNIYWxR1MyldF6Oo1EcWBNDKgcKwqigVeE/sVjDIuVTipFyret/J5nGSFUqsldqFQJQMlEKhQ9VWvVFQoWFkqqIeornlDvKU0MyDVkM4ImoqnBAzkCVgg6jUdVah6jUOAlJHxLxJSLbuoP+Uj5rS6SPhQvtAo7bsGPxMB/NHaWRtC85t2zkv3PUQalXF/sXkIG7CYXLkquSokR0ep1oRttcpVtRNqxdFhI0lpWTizPCQWA+/RaGwZMKxXIGRodPCZ0ylti1MqauRZXlEJpPRlJyBotRlByYpEqOA2miaYQ7Fe1Nic2EMC8GqtiIppiF7jsLhKi+oqnvUk5LHPVDivOcqi5QyY/ZJ6pe5dLkOXKtLA9M9VVW1WErgeltnAzwu02KVQqdALjskXUkBe0k4LUHcUpUTXAcJCejRymNvbKNGjlNbWkkQWWMskUsoq5tJGCmve7VhQwV5C67YuW1NF3FJepUlG3LGp8HaTVcApU6altViMBcmeFNRe1XhV1U7YJcsAtVqGKLegazlyhyJm+Cqul9ZHPKDeE1xK7Aqqg5sq+qxe2ITkwJ9PKItmZXXsVtILiHIJAUZXC7CrlGgc4OhTdQ3DK7bU5zEBFELV0mma9zM3W6lNbUYjXdP2yvmPjLwr7zc4AgnJMkgfLt/dffby2DgZ+/wDCyur6eGAyJnC2arNjPM6rTeoj5T7HNe9y51q8/CXSD1PcL6HqttDw8YHYdQvmHiPRKlOv72k3h25fQtM1Rr6bdwLSRnHB7Js2sqSKullLDhPtGjbRBbPM9Enbamg81NsDy/dS0m/2kgEkefRMru5a5h8h1WjSnjBT1Kjlv6A266Kp208/lH+UPren/AZy5Y7w3V93dlznFlP4jJMN/Nb5+rUas7HteBzBBA+nVXLIem0kjKqkrvc3yLvCTIPxZ8ls6O3t8lj6F21jxAJ9BwtNp9813QhVbq32XHYtu3JZq9AETGQszpt28OIOBK1NY7sRhU1dLESuptjCO2Rk3OTmnF4S/wBwewuBPKdNrBsSeVjriyO6WmFeWPJGTAR2aeMsPIym/OU0a52oNHdQs6u4+SRWrCfNaKzpbQFRtrjWuC1GlzeTQWuArqlSAlNGqralbGVlyq5Lbre3CQPWuZK8aIKFe/MqZvgFa2NLgDT+PnKXuJVKrWf2VT9QPTCDqGTJ+S9tU7Uuzdq0sYI9WuHO5JhQa1WtarNi7d9FhRwUtYrGtVrWKW1A5BpFYarGNVoYptYhbCK2tUmsVm1WNCFsnBS1qkGq0NXdqBskgApsCmxinCE5EJXIVoCigbDyQLFwNU1INXZIKC1RcFe5qi4ITkCvpqp7EY8KpzF2QwNzVRUpo/Yq3sXZCSF7qaoqUk0LFS5iBhCmpRQtWinNSmqH0UthITVLdUVLdOXUlS+ikyHRYlqUELWtk8q0UO+iltDUIK1sg6tqtFWooSrbqtJDsmar2qEq2y0la3QNWgqlsOB1csMzlSghqlBPq9BBvoKlYsItbgC1pZTO1YoUaKOtWLoyTBbO02oymxQY1F02qxBZFTWSdJqNotVDGoik6E1LPAtNpldzYTlv0/t2S8mMHC0VJvUc9lK8sG1B2P5ylW6bPKLtOrceJGdacqvUaMgIi7t3Uz8XXr0/7VoEhUJxxwzUhNPlGavLT4T6LH0Kxp3DXjEOH0C+kXLBB9Fh7uz/ANUdpVO1YwW658NM+t6Xe72gjrk+qMrVMLGeE7za7YeHfqtbe8Kzv4K3+YzniGrtyrNJqbmNPkk/i69gbUZ4cMUwD2Sc5Zca9qY7fUgJJqNRHXlSAstqd8QeUuxhVwybnw3VkLbaU7hfOfCFaQPkvoelcI6OxN6HAchy6Cp9EBcVcq3a8Ir0rI8tqyYUnpHYPTSk5OpnwJugdqtz6ogOgKtyC1i9DGE+SbxF5EtOXBjvaLqWIBXyyrUklaXxNd7yT0WRpOklZGrt3Pg1qIbYjvQG/F8lqtKySVmdDZyU+o3Gxjj1PCrVvAFiGPvZcAE+okNAWO0m8zuKZtuy92FarlnkryjhGqpVJC5UYq7A8I/arseUJfDFrmqARN01CuKXJDEy1j0bbuSuUXQeg6OayO7d6MpFK7SomFB6OM8gNEZUHKareV6Ns8usFdUqpTeqyULOyV1EO9XvKoqIZdEopqqior6qGqpbYeCp6re1WFRISwkD1KaoexGPVNYIksgtYeUfKfal/wD7NLnDBx5uROnUZaPJCe0ozdsHZjf/AOIoum8gNDRM8+S83a8XT/k9VR/yYnbieqCuEbXMSEFcOSmwpA7DJTChTwhbemmNs1TEhIY2lPhaTTaeElsm5C0unM4TqzpdDO1YjWhDW4RbCrqQhhlsMImkEJTeiKRTUjg1iuYUK0lX02lNgQwoFTLlU2njK4KYThSOVagxlVBys2BV1RHC4NIlVKpIKmwqD6iCT4J6IlqHJyrjVQznZVdjIl0Ko8qxhVVblc0EkceFbQVZKm0oScBACrq01fSU9qGXJy7A6NDKa2tuoW9FMKTVNdfydbPjBRVZCra1FXCpTBWSqoxQaxXkLrAjjDnk5NkA2F48q2q1U7YVpRObOOKq3KVR6pBXLsXIruXJdcuRN89BOKn5ESZJhVTgpsXCUxFeTfwCXCqlSueVWlT7OTJEqTCq5V9Gn3R1UyseELssUeWVPJOAJRNvaAc/ET9B/dXU8LpPZbFGijF5ZmX6xtYR2V6VEFdV9LBnSlk4qrm2DhBVy8iwCZvVPD7TnCTUtKDTkYW7hVVbZp6BTyLcEzKUaDTIDQimaaM4GU5/9NHouPpx0lXqdRhYMzUaNyZhPFOitLHCBwYwF8/8MWFSlVc0NI3YzwvtF/ZF3RDt0Prtz3V/+s9uDKXjHvyuCrQ7P4fiy77wm1G17BX29kWphaMABlVLL+C7LQ54wL7SiSUVenoF0NI4UizCS5ZeRT8dxgX2lgDOFY7T0wbhQkrndLPY2vxaXItpW5aeMI81ZiBC65q4GIZWqXZoQ0aSLDcqqtUJXQxdLECkvhDFp4oocFwMRGxd2KHNjNiRUxq61iuDFJjEDkEVtYummrw1SDUKkEkVNpqTaaua1TDFGSWVBim1qmGqQaobISIhq7tUwF2EOQiACk0KULoCFnHguheAUmhBkJEYXtqkuwuIIhqiWqxRK4JECFzapELwUMkpc1RLVa8KBCEkpLVW5qvUXhQEgdzVW9iIIUHNQsIGdTVTmIzaq3MQsNcoAq01Q9iYPYqXU0uQcVyAPYqKlJMajFRUppTGIV1aSGq0E2qU0PUakySGxYnrUEFWop5WYgq9JVpRyh0eBDXooKtST2vSQFWkqdlZYjLIrDUTQarHU1YGpKgkFk6AiaQVTGommE6LILKavpKpoV1Ip0WJYZbo6ggWI2im7gS91uHCHCR1B80lvtBcyTS+Jv8Asn4h/wCJ6jyT+kURTSp1xnwx9N0oPgwDm+UdweR69ilF/Z/GCF9Q1HR6dXJw7o4c/P8A3fNZTVvDlVkkDeOZaP1bzKzbtJJdGpTrIy4fBlK1ItcCD1C1zbuWg+WUge2eeR98ItlbEdFUxgtZyY7xPVLrhg6E5+q2dtAAWQvKe6ru/wBrgtWOAR2SIJptl2x8JFeo3AgnssRf3e53z/VPtfr7WlYS0uN1YCf6gq+qucZKJb0teVk+s+DeB8l9I0d+F848M4AW80mqrlLwUr+cj9z8JHXr/EmT6uEgq1viVi98C9PHk0unO4Tm3ckGmv4TSlVRUsVfHIxqVYCwHjTUy47QVoPEmphrV86NUufJU328YQOmq5ywHVBDT6LJaa+ZWq8UOhh9FldBYYlZNsnuRfT4ya/TYDfNBarf5DR+qqvL4NZPYJJpNY1XF3ScIHNJ4FYb5NXZVpGJhaTQxASHTbYp9ZvDYE5Vmtc5FTNNp6bMCSaNVkrQUwtKHRSn2CXLEruaKeXFJB3FHCPB0ZCZpgwi6DkJVp5hX0hCrT7Hoa2xTW1ckNComtpVQxfJ0oBZCrcpvKqcV6hnkSp6qcVZUVRQnYK6hVTlY9VPCGQaiVVENVKvqlUJLGMrK8QuuKkuQBVUVG1FbVXVYiCR8h8eCb0+TWD6Sf3TezHwwkfjE/8AxtQ+n6BO7Sr8IXmLn/iz/k9TR/yo/wAFF4zqlFUpnf1UnJylBh1qxMbanlD2ITa1YiSBDrFuQtBYFJrNqc2gVitEMaU3IpgQlsUdTVyPZXYRbsTGmxA26PYeE9JsHdwXtCvohUMRdJqsQQqUsnaqpqBXOdyqqlTCmQypEHFVPK656pc9K3FnGTpcha78qyo5UXPVC+UQuCLnZHquPdlDB+VdXKVtGYCKDl25HCqsTKIuBkKXHgHGGVOVjAoVFZRSWGFUgjqVKUJbtTa1aijHIubwiVCiroVrAq3J64RV3ZYNXCpIRNRDPUR7HRRxq6FKmFIhWUjuiDiq3FTrIVzkeQSuqVW84UiVVVdhCLkwC6dlVuKhcOyvSiRXsfJFroVZqL1ZypBUMA9WVJVtQqFJkny6ooQcnhATkorLLLan1+iJYFEKwFeh01Crjgwb73NnSuOXSvEKyitJ8HAukrsLwH9giAJBSAXgF1ccRIXdvK7C7C7JxErhpq0KRCHOCcA7mDiJXhTV21S2qVIFxKS1cAV21cLFO47BQQu7VdsXNi7cdgp2rm1X7F401G4kH2rm1EbF33a7JDQNtUgxXe7UxTXJg8g/u10U0S1imWBRkLaDtapBqu2rzWqGzsFYYpFqs2qW1RkkqaxT2KwBeAUZJSIhqlCkoqCcHFIBeDVKFDOwRhSAUiFIBCcRaFGFMr0LiCELysXIXE4IwuEqTgowuCRwhQIU10qGcUuXCFY4KJCFs4pIXCFa4KBQtklJCg5quIUSuYaZUQoEK2FBwQh5wUvaqS1FuaqXtS2hkWCvYqXtRb2qh7UpoPIJVah3sRzmqmoxKmgkxfVYhK9NM3sQtViU0NjIU1qaBr006rU0FWpKvZHI+MsCeoxRIRlWmhXtVVxGbkTphXtVLFdTK5RO3osCuoqICnTTELbCmIug5B0yiaBREB1IommUExyJovTEcwym9FMegqeUTSempEAeraHSq5I2u/3N5+Y/qWK17QK1GTtL2f7m5+o6FfSWlW0iq9ukhYWqdXKs/P1s/wCN46nv98rQabWwAegX0jVfCVtWO51MNf0eyGn5xhwWB8T+H6tqdwh9KfxDp5OxhZ12ilBZRqVa+NnD4Mv43EMwvmvhm4Bu2t7E/UL6fr9RtSlj5+X3lfJtKHur1pOATH1x9+qxba/8R7vrg9R4+SdUl8n3LTK0Qtho9xgL56zAB+4Wp0O5wArMXyZksM2Dq+EibUl6vNzhJ26g1rsmEdksrkiqODaadVjlX/z+TlYweImn4QcphZvPJUQnhETrLPE9zLf/AKv2KR6eJyV3X7uTAQ1vWx6IJzywYppcCfxtcY2pDQr7GkKPiK9L6vk1JLy959YWTfek+OyxGt4GF9dmoQxvzWp0GxDAOiSeENJiKj+TwOkd/VazcAj01bfvl2yLWukMRcBoVVK8yldWtK7bDI9Vfi8FbafQ/DlTC1lq7CxmhvgLU2FTAV+uXBUsXIzLZVFyxX0SratIEKx2Vk+TN1aOSqnCEzuqUIGsxJnEdCaB2vTGxqJW/CvtLhVG9rLmMmicq6im9VVCvWM8YQeVUSpvKrKg4reqXlWvVNQoJDIlFVVqdQqACUyWRAU2qMKTQuQJ4qO2VMhV3TtrHHs0n6AqXwshxWWfG9Z+O7qnu8x6DEJvTbAWX0a4LqrnHq5x/M/4Wmq1cLySuVkpNfbPWqG2CX7C+/egGUyUfXMqVvR4RAhFixOrOkhbKgndnTTlEBslbMTS3aoW9EI2nSVmEQWyyij6LkJTYjKNNPgKmG0Eaw8JfTR1srlayivJhtMIljlRTVwKdn4A+Sb28+iofKInqh6rkMkOg8A7yhKr1e9UvaluJYUihzlVVevXBhDVHIXwjk+SkvyjDkJU53xJjQelwGthGmnCKqnIQVmYRVV+Qi6iA3mR6sp0CqXlW00loYhhajKb2oSqyCbW5RQXIm3oLCpcVIuVQcnNFZI64IeqxEucovapUeRkXgHauPcuVsIZ1VN3DdrfJdWdhL6j0S50oHUjGV2cgZ5I+8XKz8IZz1Fzl2QdiKK3KjUKk9VPKmLKtiKnKslTeUO4qcZEt4XJOScDqiWNAEffqq6NOPU/l5K7at3R6VRW59mPq79zwjzVNoUWqwBaODOydK7C7C8AhxgHJ1ymGqIardiklEWhSDV0tXaYXEnGhda1SDVJrVBxEBd2qe1eaoySe2r0KQUgFGScFULoCs2KQaoycyrau7VbC9C7IJTsXC1XOC5tXZOKNqmGqwNXiF2TiotXQ1WbV1jVGSSsNXS1WwvQuycQLFyFYQvAKMkNECF4BTIXoXZOwRAXSFMNXYXZOKmtUgFKF5Rkk4AvQpAKSjJxXtUoUoXtq444Vxd2rwC4g9C4pQvFqjJKOQokKa4QpJKoXiFMhRhccRKipwokIHwcVEri64LkISSJCgQrSFGFxKKoUXNVpUIUMMrIVT2q5zVEtQsYmDkKpzUS5qg5qU0S2CPYqXtRbwqnNS5IZF5AKjUNUYmFViHqsVdjUL6jUHVYmVWmhqjEqfY6IouGoOq1NrimgalPKqMNgwarKakWKTAoOJtCkF6VIKV2cWUyiqLkLTV9MozgxjkRSKDYr6bkcWQGsciaTkHSKIplMTID2FXMKEpPVzCmJnMJlSLA4Q4Ag9DkH5dVSHKym5GuRTbTMf4l9njKkutyKb+dhyx3l/w6r4j4/wDCNSk4OqUyx7CHAxLTGcO4JX6kBXLm1ZUaWPaHtPLXCQfqqmp8dC1fRpaPytlDPz3plyH02HsAD6wE5sbnatfr/s0pNDqlpLHcmkTupu8hOWO7Qfovl2rXTm7mkEObgjqCsLV6Z6fl9G7pdVG/ofa34ibTaTOcwsPa3lW4qEkkN78fLzQVC3NeoAT8Iz+y2OnWQaIAgdlkKTuln4NRONS/ca+G7MBwJmfVal11AKRWDYhWalcwIV5JJYK0pZA7m5kkoC51QNa4noh9VutrTB+4WM1vUSRHdVr7FFY+R1de4pr6nknJJKc+FdK3nc/gcD76Jd4Z0j3hyPhxK3NJoYB6dFn0UqUib5qHCDmvDQg7i6nhB3d4hrZxieqvuSXBUf2NRV80fpA6nus5Bc4ZWhtanDR2CKMskNGw0ap9Fq9MfMZWP0dq02nPVyplaxGmtno9owk9pVTOjVwr8ShNYB7uild0yAndUpXetR4Ii+TM31X+ypt60FEajS59UAxZeojhmtXhpG/cqaivc1UPXrMniipyg4qVRVuUPoJEXqh44V5CqLUrIeAdzVGFY8Lm1QTggV0Bd2rsLiDiVeL6+y3rO/8A+bvzEJtCyPtVu9tvs61HbflyUu54g3+w7TxzYkfLtIZDk/LpS3TqceSZWx5815CiiUU/3bZ7CySaWCp7MhG2NOVXsTDSaPCtRg/oqykhjaUk3s6aGoUkfQarMIsU2mXtCMpBUUGIxjVYSAbLabUXSCGpq+imVp5FyawF0mJhb00JbNR9NXYdFfgI2LjSphy8jOaREuQVzUKNeEC/lcwolYKi8or3eENVYhGKQFdoBxRlyT1QFU/X9kqaGxkgeueD2RNpUQ1Qde/5KFKsl45GuS+xxTfx8lbcOQFCqiHvkI31gBNZzksY9F2z0rouTCzKQx7a+0NrZ+UxpOSmngpjQdhHEVJr7CwVAOXaJUKmCpwxKwWtXHuUWuVVRylHcHaoQNZiMDlXWATO0GppcAjXqq8bIXH8rpKKLygJyXYnJgwpyrNRpdUIxyBZ6JlKLRNxVFUqZdlUVno0VJtEHOVlrS6n7Crt2yZ6dPP+yJaMrb0GmWN0jH1mpz7YkiugLoCk1q1soysM4FILuxSDVO5fYDi/o81TiFJjV13/AH5BQ5L7OUWcYFNSYxThRvR2xkB6KdNikxim1qFyQai/oi4YU2NUtq4Wod6+ydrPbV4NVgpLuxDvX2RtZW1im0KW1ehRuROGRheIUivBduX2RtZEheUnrq7cjtrKyF6FOF5duR21kAu7VIBeXbkdtZABdIUl6F25EbX9EIXgpQu7V25HbX9ESvAKe1eDV29HbX9EIXSFPYuuCjcjtr+isLsKbWLu1duR21kF2FINXiFG5EbH9HF5d2ru1duRO1/RxcC6Wrpau3Ija/oiVGFMBeAXbkTtf0RapL21dhQ5IjDIqJU1ByncgsMioOVhUVO5fZ2GRIUCrFxQ2vs7DKiFwhWlqg5qDKCSIgKLwpQvQuyieSlwXIVpCgobX2Sl+xW4KtwV7gqyhyvsnDKiFB7VeQoEIWxiQK4KBaiHtVbmpcmhkcoEqNQ72o57VRUakSSHJi+rTQtViZvYg6rEmRKTTFtdiAqtTau1A3FJVWOBF6FLauEIGmSRLV1dlelQkcdYFfSVNNWsKNHBbSrqbkLSKvYUUTgum5EMchKRVwcmIELa5E0HICi9XscmpokOYVPchqVRWhyOLAkshbXK6kUGxyup4TkxLQRTqZWX8b+A6V3L2xTrRG4RDvJ46+vK0jSr2PQ21QsWJDab51S3RPzre+G321TZVaGu6RkOGDLXRDhEHylF0QvtXi/QW3NEsIAcM03dWuj9DwR2Xw+sHMc5jvhcw7XDzHPyXmdZoFQ8x6PS6XW+uuexoK4EZ6JPrOpCYlC6he4MdFnL1z3ElZl1jhHhM1KopvtFuo309UBpWmOrVJP4QiNP0lzyJ46rV2VAMbAWfGmyx7mizK+EFhMKpbWCOwSnUNRnhQ1y9j4Rz18kkDynzlKPtiitFKTy2Mrd5c4T3Rd1Wj1/JD2zdrJPJQ9xUkhQ1LHQS2jCzrR6p5opJO4rPU4LgtJp1YBMrjL6K9kl9mx0l6c0bmFl9Pu4HyR1pWLoCtx3L4K7x9mvsLpPLSssfZ1uif2VXhW62xVkUP2mUFcMVlvVUniVbjnBUaSYh1Kgs5diCtjqDFmr2jyqmqg2i/p5pH//2Q==;" parent="1" vertex="1">
          <mxGeometry x="590" width="248.89" height="140" as="geometry" />
        </mxCell>
        <mxCell id="yauiNE5-DDS5s2IxFTfD-13" style="edgeStyle=orthogonalEdgeStyle;rounded=0;orthogonalLoop=1;jettySize=auto;html=1;entryX=0.5;entryY=0;entryDx=0;entryDy=0;" parent="1" source="yauiNE5-DDS5s2IxFTfD-2" target="yauiNE5-DDS5s2IxFTfD-11" edge="1">
          <mxGeometry relative="1" as="geometry" />
        </mxCell>
        <mxCell id="yauiNE5-DDS5s2IxFTfD-2" value="отсутствуют необходимые материалы" style="shape=hexagon;perimeter=hexagonPerimeter2;whiteSpace=wrap;html=1;fixedSize=1;fillColor=#f8cecc;strokeColor=#b85450;" parent="1" vertex="1">
          <mxGeometry x="525" y="980" width="120" height="80" as="geometry" />
        </mxCell>
        <mxCell id="yauiNE5-DDS5s2IxFTfD-27" style="edgeStyle=orthogonalEdgeStyle;rounded=0;orthogonalLoop=1;jettySize=auto;html=1;entryX=0.5;entryY=0;entryDx=0;entryDy=0;" parent="1" source="yauiNE5-DDS5s2IxFTfD-3" target="yauiNE5-DDS5s2IxFTfD-25" edge="1">
          <mxGeometry relative="1" as="geometry" />
        </mxCell>
        <mxCell id="yauiNE5-DDS5s2IxFTfD-3" value="все материалы присутствуют" style="shape=hexagon;perimeter=hexagonPerimeter2;whiteSpace=wrap;html=1;fixedSize=1;fillColor=#f8cecc;strokeColor=#b85450;" parent="1" vertex="1">
          <mxGeometry x="715" y="980" width="120" height="80" as="geometry" />
        </mxCell>
        <mxCell id="yauiNE5-DDS5s2IxFTfD-4" value="" style="edgeStyle=orthogonalEdgeStyle;rounded=0;orthogonalLoop=1;jettySize=auto;html=1;" parent="1" edge="1">
          <mxGeometry relative="1" as="geometry">
            <mxPoint x="680.000047259035" y="960.0434782608697" as="sourcePoint" />
            <mxPoint x="580" y="980" as="targetPoint" />
          </mxGeometry>
        </mxCell>
        <mxCell id="yauiNE5-DDS5s2IxFTfD-5" value="" style="edgeStyle=orthogonalEdgeStyle;rounded=0;orthogonalLoop=1;jettySize=auto;html=1;" parent="1" edge="1">
          <mxGeometry relative="1" as="geometry">
            <mxPoint x="679.479952740965" y="960.0434782608697" as="sourcePoint" />
            <mxPoint x="779.48" y="980" as="targetPoint" />
          </mxGeometry>
        </mxCell>
        <mxCell id="yauiNE5-DDS5s2IxFTfD-6" value="XOR" style="ellipse;whiteSpace=wrap;html=1;aspect=fixed;" parent="1" vertex="1">
          <mxGeometry x="659.48" y="940" width="40" height="40" as="geometry" />
        </mxCell>
        <mxCell id="yauiNE5-DDS5s2IxFTfD-10" style="edgeStyle=orthogonalEdgeStyle;rounded=0;orthogonalLoop=1;jettySize=auto;html=1;entryX=0.5;entryY=0;entryDx=0;entryDy=0;" parent="1" source="yauiNE5-DDS5s2IxFTfD-8" target="FyLu69PJ2PbQw6B5v2kj-62" edge="1">
          <mxGeometry relative="1" as="geometry" />
        </mxCell>
        <mxCell id="yauiNE5-DDS5s2IxFTfD-8" value="производство осьминога" style="whiteSpace=wrap;html=1;fillColor=#d5e8d4;strokeColor=#82b366;" parent="1" vertex="1">
          <mxGeometry x="800" y="1215.45" width="120" height="40" as="geometry" />
        </mxCell>
        <mxCell id="yauiNE5-DDS5s2IxFTfD-24" value="" style="edgeStyle=orthogonalEdgeStyle;rounded=0;orthogonalLoop=1;jettySize=auto;html=1;" parent="1" source="yauiNE5-DDS5s2IxFTfD-11" target="yauiNE5-DDS5s2IxFTfD-23" edge="1">
          <mxGeometry relative="1" as="geometry" />
        </mxCell>
        <mxCell id="yauiNE5-DDS5s2IxFTfD-11" value="закупка материалов" style="whiteSpace=wrap;html=1;fillColor=#d5e8d4;strokeColor=#82b366;" parent="1" vertex="1">
          <mxGeometry x="525" y="1110" width="120" height="40" as="geometry" />
        </mxCell>
        <mxCell id="yauiNE5-DDS5s2IxFTfD-14" value="Вязальщик" style="rounded=0;whiteSpace=wrap;html=1;fillColor=#fff2cc;strokeColor=#d6b656;" parent="1" vertex="1">
          <mxGeometry x="960" y="1210" width="130" height="50" as="geometry" />
        </mxCell>
        <mxCell id="yauiNE5-DDS5s2IxFTfD-15" value="" style="endArrow=none;html=1;rounded=0;fillColor=#fff2cc;strokeColor=#d6b656;exitX=0.076;exitY=1.018;exitDx=0;exitDy=0;exitPerimeter=0;" parent="1" source="yauiNE5-DDS5s2IxFTfD-14" edge="1">
          <mxGeometry width="50" height="50" relative="1" as="geometry">
            <mxPoint x="970" y="1250" as="sourcePoint" />
            <mxPoint x="970" y="1210" as="targetPoint" />
          </mxGeometry>
        </mxCell>
        <mxCell id="yauiNE5-DDS5s2IxFTfD-16" value="" style="endArrow=none;html=1;rounded=0;fillColor=#fff2cc;strokeColor=#d6b656;" parent="1" edge="1">
          <mxGeometry width="50" height="50" relative="1" as="geometry">
            <mxPoint x="1080" y="1260" as="sourcePoint" />
            <mxPoint x="1080" y="1210" as="targetPoint" />
          </mxGeometry>
        </mxCell>
        <mxCell id="yauiNE5-DDS5s2IxFTfD-17" value="" style="endArrow=none;html=1;rounded=0;exitX=1;exitY=0.5;exitDx=0;exitDy=0;entryX=0;entryY=0.5;entryDx=0;entryDy=0;" parent="1" target="yauiNE5-DDS5s2IxFTfD-14" edge="1">
          <mxGeometry width="50" height="50" relative="1" as="geometry">
            <mxPoint x="920" y="1235" as="sourcePoint" />
            <mxPoint x="970" y="1210" as="targetPoint" />
          </mxGeometry>
        </mxCell>
        <mxCell id="yauiNE5-DDS5s2IxFTfD-18" value="Ответственный за закупку материалов" style="rounded=0;whiteSpace=wrap;html=1;fillColor=#fff2cc;strokeColor=#d6b656;" parent="1" vertex="1">
          <mxGeometry x="330" y="1104.55" width="130" height="50" as="geometry" />
        </mxCell>
        <mxCell id="yauiNE5-DDS5s2IxFTfD-19" value="" style="endArrow=none;html=1;rounded=0;fillColor=#fff2cc;strokeColor=#d6b656;exitX=0.076;exitY=1.018;exitDx=0;exitDy=0;exitPerimeter=0;" parent="1" source="yauiNE5-DDS5s2IxFTfD-18" edge="1">
          <mxGeometry width="50" height="50" relative="1" as="geometry">
            <mxPoint x="340" y="1144.55" as="sourcePoint" />
            <mxPoint x="340" y="1104.55" as="targetPoint" />
          </mxGeometry>
        </mxCell>
        <mxCell id="yauiNE5-DDS5s2IxFTfD-20" value="" style="endArrow=none;html=1;rounded=0;fillColor=#fff2cc;strokeColor=#d6b656;" parent="1" edge="1">
          <mxGeometry width="50" height="50" relative="1" as="geometry">
            <mxPoint x="450" y="1154.55" as="sourcePoint" />
            <mxPoint x="450" y="1104.55" as="targetPoint" />
          </mxGeometry>
        </mxCell>
        <mxCell id="yauiNE5-DDS5s2IxFTfD-21" value="" style="endArrow=none;html=1;rounded=0;exitX=1;exitY=0.5;exitDx=0;exitDy=0;entryX=0;entryY=0.5;entryDx=0;entryDy=0;" parent="1" source="yauiNE5-DDS5s2IxFTfD-18" edge="1">
          <mxGeometry width="50" height="50" relative="1" as="geometry">
            <mxPoint x="485" y="1129.75" as="sourcePoint" />
            <mxPoint x="525" y="1129.75" as="targetPoint" />
          </mxGeometry>
        </mxCell>
        <mxCell id="yauiNE5-DDS5s2IxFTfD-26" style="edgeStyle=orthogonalEdgeStyle;rounded=0;orthogonalLoop=1;jettySize=auto;html=1;entryX=0;entryY=0.5;entryDx=0;entryDy=0;" parent="1" source="yauiNE5-DDS5s2IxFTfD-23" target="yauiNE5-DDS5s2IxFTfD-25" edge="1">
          <mxGeometry relative="1" as="geometry" />
        </mxCell>
        <mxCell id="yauiNE5-DDS5s2IxFTfD-23" value="материалы получены" style="shape=hexagon;perimeter=hexagonPerimeter2;whiteSpace=wrap;html=1;fixedSize=1;fillColor=#f8cecc;strokeColor=#b85450;" parent="1" vertex="1">
          <mxGeometry x="525" y="1180" width="120" height="80" as="geometry" />
        </mxCell>
        <mxCell id="yauiNE5-DDS5s2IxFTfD-28" value="" style="edgeStyle=orthogonalEdgeStyle;rounded=0;orthogonalLoop=1;jettySize=auto;html=1;" parent="1" source="yauiNE5-DDS5s2IxFTfD-25" target="yauiNE5-DDS5s2IxFTfD-8" edge="1">
          <mxGeometry relative="1" as="geometry" />
        </mxCell>
        <mxCell id="yauiNE5-DDS5s2IxFTfD-25" value="OR" style="ellipse;whiteSpace=wrap;html=1;aspect=fixed;" parent="1" vertex="1">
          <mxGeometry x="841.11" y="1109.55" width="40" height="40" as="geometry" />
        </mxCell>
      </root>
    </mxGraphModel>
  </diagram>
  <diagram id="4n1nGosSOLParqYEk0KK" name="Страница — 2">
    <mxGraphModel dx="1050" dy="551" grid="1" gridSize="10" guides="1" tooltips="1" connect="1" arrows="1" fold="1" page="1" pageScale="1" pageWidth="1169" pageHeight="1654" math="0" shadow="0">
      <root>
        <mxCell id="0" />
        <mxCell id="1" parent="0" />
      </root>
    </mxGraphModel>
  </diagram>
</mxfile>
